<mxfile host="app.diagrams.net" modified="2020-09-28T12:32:25.204Z" agent="5.0 (Windows NT 10.0; Win64; x64) AppleWebKit/537.36 (KHTML, like Gecko) Chrome/85.0.4183.121 Safari/537.36" etag="Vo4VSNYnlAJKLIYdDPHk" version="13.7.5" type="github" pages="3">
  <diagram name="Eureka" id="42789a77-a242-8287-6e28-9cd8cfd52e62">
    <mxGraphModel dx="1038" dy="548" grid="1" gridSize="10" guides="1" tooltips="1" connect="1" arrows="1" fold="1" page="1" pageScale="1" pageWidth="1100" pageHeight="850" background="#ffffff" math="0" shadow="0">
      <root>
        <mxCell id="0" />
        <mxCell id="1" parent="0" />
        <mxCell id="KWstcczz9pRLR9bCZHfC-11" value="主从复制" style="swimlane;" parent="1" vertex="1">
          <mxGeometry x="210" y="300" width="720" height="480" as="geometry" />
        </mxCell>
        <mxCell id="KWstcczz9pRLR9bCZHfC-14" style="edgeStyle=orthogonalEdgeStyle;rounded=0;orthogonalLoop=1;jettySize=auto;html=1;" parent="KWstcczz9pRLR9bCZHfC-11" source="KWstcczz9pRLR9bCZHfC-8" target="KWstcczz9pRLR9bCZHfC-9" edge="1">
          <mxGeometry relative="1" as="geometry" />
        </mxCell>
        <mxCell id="KWstcczz9pRLR9bCZHfC-15" style="edgeStyle=orthogonalEdgeStyle;rounded=0;orthogonalLoop=1;jettySize=auto;html=1;" parent="KWstcczz9pRLR9bCZHfC-11" source="KWstcczz9pRLR9bCZHfC-8" target="KWstcczz9pRLR9bCZHfC-10" edge="1">
          <mxGeometry relative="1" as="geometry" />
        </mxCell>
        <mxCell id="KWstcczz9pRLR9bCZHfC-8" value="server01（主）" style="rounded=0;whiteSpace=wrap;html=1;" parent="KWstcczz9pRLR9bCZHfC-11" vertex="1">
          <mxGeometry x="230" y="60" width="120" height="60" as="geometry" />
        </mxCell>
        <mxCell id="KWstcczz9pRLR9bCZHfC-9" value="service02" style="rounded=0;whiteSpace=wrap;html=1;" parent="KWstcczz9pRLR9bCZHfC-11" vertex="1">
          <mxGeometry x="20" y="170" width="120" height="60" as="geometry" />
        </mxCell>
        <mxCell id="KWstcczz9pRLR9bCZHfC-10" value="service03" style="rounded=0;whiteSpace=wrap;html=1;" parent="KWstcczz9pRLR9bCZHfC-11" vertex="1">
          <mxGeometry x="450" y="180" width="120" height="60" as="geometry" />
        </mxCell>
        <mxCell id="KWstcczz9pRLR9bCZHfC-17" value="数据同步" style="text;html=1;align=center;verticalAlign=middle;resizable=0;points=[];autosize=1;" parent="KWstcczz9pRLR9bCZHfC-11" vertex="1">
          <mxGeometry x="450" y="125" width="60" height="20" as="geometry" />
        </mxCell>
        <mxCell id="KWstcczz9pRLR9bCZHfC-16" value="数据同步" style="text;html=1;align=center;verticalAlign=middle;resizable=0;points=[];autosize=1;" parent="KWstcczz9pRLR9bCZHfC-11" vertex="1">
          <mxGeometry x="60" y="125" width="60" height="20" as="geometry" />
        </mxCell>
        <mxCell id="KWstcczz9pRLR9bCZHfC-20" style="edgeStyle=orthogonalEdgeStyle;rounded=0;orthogonalLoop=1;jettySize=auto;html=1;" parent="KWstcczz9pRLR9bCZHfC-11" source="KWstcczz9pRLR9bCZHfC-19" target="KWstcczz9pRLR9bCZHfC-8" edge="1">
          <mxGeometry relative="1" as="geometry" />
        </mxCell>
        <mxCell id="KWstcczz9pRLR9bCZHfC-19" value="client" style="ellipse;whiteSpace=wrap;html=1;" parent="KWstcczz9pRLR9bCZHfC-11" vertex="1">
          <mxGeometry x="230" y="270" width="120" height="80" as="geometry" />
        </mxCell>
        <mxCell id="KWstcczz9pRLR9bCZHfC-13" value="ap架构" style="whiteSpace=wrap;html=1;" parent="1" vertex="1">
          <mxGeometry x="80" y="50" width="120" height="60" as="geometry" />
        </mxCell>
        <mxCell id="KWstcczz9pRLR9bCZHfC-21" value="注册，续约，注销" style="text;html=1;align=center;verticalAlign=middle;resizable=0;points=[];autosize=1;" parent="1" vertex="1">
          <mxGeometry x="465" y="500" width="110" height="20" as="geometry" />
        </mxCell>
        <mxCell id="KWstcczz9pRLR9bCZHfC-22" value="Peer to Peer （对等模式）" style="swimlane;shadow=0;" parent="1" vertex="1">
          <mxGeometry x="150" y="860" width="930" height="1430" as="geometry" />
        </mxCell>
        <mxCell id="KWstcczz9pRLR9bCZHfC-23" value="&lt;span style=&quot;color: rgb(18 , 18 , 18) ; font-family: , &amp;#34;blinkmacsystemfont&amp;#34; , &amp;#34;helvetica neue&amp;#34; , &amp;#34;pingfang sc&amp;#34; , &amp;#34;microsoft yahei&amp;#34; , &amp;#34;source han sans sc&amp;#34; , &amp;#34;noto sans cjk sc&amp;#34; , &amp;#34;wenquanyi micro hei&amp;#34; , sans-serif ; font-size: medium ; background-color: rgb(255 , 255 , 255)&quot;&gt;对等复制模式，任何副本都可以接收写请求，不存在写压力瓶颈，但各个副本间数据同步时可能产生数据冲突。&lt;/span&gt;" style="text;html=1;align=center;verticalAlign=middle;resizable=0;points=[];autosize=1;" parent="KWstcczz9pRLR9bCZHfC-22" vertex="1">
          <mxGeometry x="-10" y="50" width="800" height="20" as="geometry" />
        </mxCell>
        <mxCell id="KWstcczz9pRLR9bCZHfC-24" value="&lt;span&gt;server03&lt;/span&gt;" style="rounded=0;whiteSpace=wrap;html=1;" parent="KWstcczz9pRLR9bCZHfC-22" vertex="1">
          <mxGeometry x="320" y="290" width="120" height="60" as="geometry" />
        </mxCell>
        <mxCell id="KWstcczz9pRLR9bCZHfC-29" style="edgeStyle=orthogonalEdgeStyle;rounded=0;orthogonalLoop=1;jettySize=auto;html=1;entryX=0;entryY=0.5;entryDx=0;entryDy=0;" parent="KWstcczz9pRLR9bCZHfC-22" source="KWstcczz9pRLR9bCZHfC-25" target="KWstcczz9pRLR9bCZHfC-26" edge="1">
          <mxGeometry relative="1" as="geometry" />
        </mxCell>
        <mxCell id="KWstcczz9pRLR9bCZHfC-43" style="edgeStyle=orthogonalEdgeStyle;rounded=0;orthogonalLoop=1;jettySize=auto;html=1;fillColor=#f8cecc;strokeColor=#b85450;" parent="KWstcczz9pRLR9bCZHfC-22" source="KWstcczz9pRLR9bCZHfC-25" target="KWstcczz9pRLR9bCZHfC-24" edge="1">
          <mxGeometry relative="1" as="geometry">
            <Array as="points">
              <mxPoint x="240" y="280" />
              <mxPoint x="380" y="280" />
            </Array>
          </mxGeometry>
        </mxCell>
        <mxCell id="KWstcczz9pRLR9bCZHfC-25" value="server01" style="rounded=0;whiteSpace=wrap;html=1;" parent="KWstcczz9pRLR9bCZHfC-22" vertex="1">
          <mxGeometry x="130" y="130" width="120" height="60" as="geometry" />
        </mxCell>
        <mxCell id="KWstcczz9pRLR9bCZHfC-31" style="edgeStyle=orthogonalEdgeStyle;rounded=0;orthogonalLoop=1;jettySize=auto;html=1;entryX=1;entryY=0.5;entryDx=0;entryDy=0;" parent="KWstcczz9pRLR9bCZHfC-22" source="KWstcczz9pRLR9bCZHfC-26" target="KWstcczz9pRLR9bCZHfC-24" edge="1">
          <mxGeometry relative="1" as="geometry">
            <Array as="points">
              <mxPoint x="610" y="320" />
            </Array>
          </mxGeometry>
        </mxCell>
        <mxCell id="KWstcczz9pRLR9bCZHfC-26" value="&lt;span&gt;server02&lt;/span&gt;" style="rounded=0;whiteSpace=wrap;html=1;" parent="KWstcczz9pRLR9bCZHfC-22" vertex="1">
          <mxGeometry x="520" y="130" width="120" height="60" as="geometry" />
        </mxCell>
        <mxCell id="KWstcczz9pRLR9bCZHfC-30" value="请求" style="text;html=1;align=center;verticalAlign=middle;resizable=0;points=[];autosize=1;" parent="KWstcczz9pRLR9bCZHfC-22" vertex="1">
          <mxGeometry x="330" y="170" width="40" height="20" as="geometry" />
        </mxCell>
        <mxCell id="KWstcczz9pRLR9bCZHfC-32" value="请求" style="text;html=1;align=center;verticalAlign=middle;resizable=0;points=[];autosize=1;" parent="KWstcczz9pRLR9bCZHfC-22" vertex="1">
          <mxGeometry x="500" y="300" width="40" height="20" as="geometry" />
        </mxCell>
        <mxCell id="KWstcczz9pRLR9bCZHfC-34" style="edgeStyle=orthogonalEdgeStyle;rounded=0;orthogonalLoop=1;jettySize=auto;html=1;entryX=0.5;entryY=1;entryDx=0;entryDy=0;" parent="KWstcczz9pRLR9bCZHfC-22" source="KWstcczz9pRLR9bCZHfC-33" target="KWstcczz9pRLR9bCZHfC-24" edge="1">
          <mxGeometry relative="1" as="geometry" />
        </mxCell>
        <mxCell id="KWstcczz9pRLR9bCZHfC-36" style="edgeStyle=orthogonalEdgeStyle;rounded=0;orthogonalLoop=1;jettySize=auto;html=1;entryX=0;entryY=0.5;entryDx=0;entryDy=0;" parent="KWstcczz9pRLR9bCZHfC-22" source="KWstcczz9pRLR9bCZHfC-33" target="KWstcczz9pRLR9bCZHfC-25" edge="1">
          <mxGeometry relative="1" as="geometry" />
        </mxCell>
        <mxCell id="KWstcczz9pRLR9bCZHfC-37" style="edgeStyle=orthogonalEdgeStyle;rounded=0;orthogonalLoop=1;jettySize=auto;html=1;entryX=1;entryY=0.25;entryDx=0;entryDy=0;" parent="KWstcczz9pRLR9bCZHfC-22" source="KWstcczz9pRLR9bCZHfC-33" target="KWstcczz9pRLR9bCZHfC-26" edge="1">
          <mxGeometry relative="1" as="geometry" />
        </mxCell>
        <mxCell id="KWstcczz9pRLR9bCZHfC-33" value="client" style="ellipse;whiteSpace=wrap;html=1;" parent="KWstcczz9pRLR9bCZHfC-22" vertex="1">
          <mxGeometry x="320" y="470" width="120" height="80" as="geometry" />
        </mxCell>
        <mxCell id="KWstcczz9pRLR9bCZHfC-35" value="注册，续约，注销" style="text;html=1;align=center;verticalAlign=middle;resizable=0;points=[];autosize=1;" parent="KWstcczz9pRLR9bCZHfC-22" vertex="1">
          <mxGeometry x="335" y="400" width="110" height="20" as="geometry" />
        </mxCell>
        <mxCell id="KWstcczz9pRLR9bCZHfC-38" value="复制请求为http请求" style="text;html=1;align=center;verticalAlign=middle;resizable=0;points=[];autosize=1;" parent="KWstcczz9pRLR9bCZHfC-22" vertex="1">
          <mxGeometry x="20" y="90" width="120" height="20" as="geometry" />
        </mxCell>
        <mxCell id="KWstcczz9pRLR9bCZHfC-44" value="复制请求" style="text;html=1;align=center;verticalAlign=middle;resizable=0;points=[];autosize=1;" parent="KWstcczz9pRLR9bCZHfC-22" vertex="1">
          <mxGeometry x="240" y="240" width="60" height="20" as="geometry" />
        </mxCell>
        <mxCell id="KWstcczz9pRLR9bCZHfC-45" value="假如：&lt;br&gt;server01写入了client的请求，&lt;br&gt;server01和server02相互发送请求，这就会造成死循环&lt;br&gt;所以可以在复制请求的头部放入HEADER_REPLICATION，声明这是个复制请求，&lt;br&gt;则接受到该请求的地址就不会想原地址发送复制请求 了" style="text;html=1;align=left;verticalAlign=middle;resizable=0;points=[];autosize=1;" parent="KWstcczz9pRLR9bCZHfC-22" vertex="1">
          <mxGeometry x="70" y="580" width="450" height="70" as="geometry" />
        </mxCell>
        <mxCell id="KWstcczz9pRLR9bCZHfC-27" style="edgeStyle=orthogonalEdgeStyle;rounded=0;orthogonalLoop=1;jettySize=auto;html=1;fillColor=#f8cecc;strokeColor=#b85450;fontFamily=Helvetica;horizontal=1;" parent="KWstcczz9pRLR9bCZHfC-22" source="KWstcczz9pRLR9bCZHfC-24" target="KWstcczz9pRLR9bCZHfC-25" edge="1">
          <mxGeometry relative="1" as="geometry" />
        </mxCell>
        <mxCell id="KWstcczz9pRLR9bCZHfC-47" value="数据冲突问题，使用&lt;span style=&quot;color: rgb(18 , 18 , 18) ; font-family: &amp;#34;menlo&amp;#34; , &amp;#34;monaco&amp;#34; , &amp;#34;consolas&amp;#34; , &amp;#34;andale mono&amp;#34; , &amp;#34;lucida console&amp;#34; , &amp;#34;courier new&amp;#34; , monospace ; font-size: 14.4px ; background-color: rgb(246 , 246 , 246)&quot;&gt;lastDirtyTimestamp解决&lt;/span&gt;" style="text;html=1;align=center;verticalAlign=middle;resizable=0;points=[];autosize=1;fontFamily=Helvetica;" parent="KWstcczz9pRLR9bCZHfC-22" vertex="1">
          <mxGeometry x="30" y="720" width="290" height="20" as="geometry" />
        </mxCell>
        <mxCell id="KWstcczz9pRLR9bCZHfC-51" value="Container" style="swimlane;fontFamily=Helvetica;" parent="KWstcczz9pRLR9bCZHfC-22" vertex="1">
          <mxGeometry x="35" y="760" width="765" height="620" as="geometry" />
        </mxCell>
        <mxCell id="KWstcczz9pRLR9bCZHfC-52" value="" style="endArrow=none;html=1;fontFamily=Helvetica;" parent="KWstcczz9pRLR9bCZHfC-51" edge="1">
          <mxGeometry width="50" height="50" relative="1" as="geometry">
            <mxPoint x="305" y="620" as="sourcePoint" />
            <mxPoint x="305" y="30" as="targetPoint" />
          </mxGeometry>
        </mxCell>
        <mxCell id="KWstcczz9pRLR9bCZHfC-54" value="server02" style="text;html=1;align=center;verticalAlign=middle;resizable=0;points=[];autosize=1;fontFamily=Helvetica;" parent="KWstcczz9pRLR9bCZHfC-51" vertex="1">
          <mxGeometry x="415" y="50" width="60" height="20" as="geometry" />
        </mxCell>
        <mxCell id="KWstcczz9pRLR9bCZHfC-56" value="" style="endArrow=classic;html=1;fontFamily=Helvetica;entryX=0;entryY=0.5;entryDx=0;entryDy=0;" parent="KWstcczz9pRLR9bCZHfC-51" target="KWstcczz9pRLR9bCZHfC-58" edge="1">
          <mxGeometry width="50" height="50" relative="1" as="geometry">
            <mxPoint x="135" y="120" as="sourcePoint" />
            <mxPoint x="415" y="120" as="targetPoint" />
          </mxGeometry>
        </mxCell>
        <mxCell id="KWstcczz9pRLR9bCZHfC-58" value="比较版本号&lt;br&gt;01&amp;gt;02" style="rhombus;whiteSpace=wrap;html=1;fontFamily=Helvetica;" parent="KWstcczz9pRLR9bCZHfC-51" vertex="1">
          <mxGeometry x="415" y="80" width="80" height="80" as="geometry" />
        </mxCell>
        <mxCell id="KWstcczz9pRLR9bCZHfC-63" value="发送实例注册请求" style="whiteSpace=wrap;html=1;fontFamily=Helvetica;" parent="KWstcczz9pRLR9bCZHfC-51" vertex="1">
          <mxGeometry x="95" y="340" width="120" height="60" as="geometry" />
        </mxCell>
        <mxCell id="KWstcczz9pRLR9bCZHfC-65" value="注册，完成数据同步" style="whiteSpace=wrap;html=1;fontFamily=Helvetica;" parent="KWstcczz9pRLR9bCZHfC-51" vertex="1">
          <mxGeometry x="345" y="340" width="120" height="60" as="geometry" />
        </mxCell>
        <mxCell id="KWstcczz9pRLR9bCZHfC-66" style="edgeStyle=orthogonalEdgeStyle;rounded=0;orthogonalLoop=1;jettySize=auto;html=1;fontFamily=Helvetica;" parent="KWstcczz9pRLR9bCZHfC-51" source="KWstcczz9pRLR9bCZHfC-63" target="KWstcczz9pRLR9bCZHfC-65" edge="1">
          <mxGeometry relative="1" as="geometry" />
        </mxCell>
        <mxCell id="KWstcczz9pRLR9bCZHfC-67" value="02版本新" style="whiteSpace=wrap;html=1;" parent="KWstcczz9pRLR9bCZHfC-51" vertex="1">
          <mxGeometry x="555" y="190" width="120" height="60" as="geometry" />
        </mxCell>
        <mxCell id="KWstcczz9pRLR9bCZHfC-68" value="" style="edgeStyle=orthogonalEdgeStyle;rounded=0;orthogonalLoop=1;jettySize=auto;html=1;fontFamily=Helvetica;fillColor=#ffff88;strokeColor=#36393d;" parent="KWstcczz9pRLR9bCZHfC-51" source="KWstcczz9pRLR9bCZHfC-58" target="KWstcczz9pRLR9bCZHfC-67" edge="1">
          <mxGeometry relative="1" as="geometry" />
        </mxCell>
        <mxCell id="KWstcczz9pRLR9bCZHfC-73" style="edgeStyle=orthogonalEdgeStyle;rounded=0;orthogonalLoop=1;jettySize=auto;html=1;entryX=0.5;entryY=0;entryDx=0;entryDy=0;fontFamily=Helvetica;" parent="KWstcczz9pRLR9bCZHfC-51" source="KWstcczz9pRLR9bCZHfC-71" target="KWstcczz9pRLR9bCZHfC-72" edge="1">
          <mxGeometry relative="1" as="geometry" />
        </mxCell>
        <mxCell id="KWstcczz9pRLR9bCZHfC-71" value="返回我的数据新的消息" style="whiteSpace=wrap;html=1;shadow=0;fontFamily=Helvetica;" parent="KWstcczz9pRLR9bCZHfC-51" vertex="1">
          <mxGeometry x="555" y="410" width="120" height="60" as="geometry" />
        </mxCell>
        <mxCell id="KWstcczz9pRLR9bCZHfC-70" style="edgeStyle=orthogonalEdgeStyle;rounded=0;orthogonalLoop=1;jettySize=auto;html=1;fontFamily=Helvetica;entryX=0.5;entryY=0;entryDx=0;entryDy=0;" parent="KWstcczz9pRLR9bCZHfC-51" source="KWstcczz9pRLR9bCZHfC-67" target="KWstcczz9pRLR9bCZHfC-71" edge="1">
          <mxGeometry relative="1" as="geometry">
            <mxPoint x="615" y="480" as="targetPoint" />
          </mxGeometry>
        </mxCell>
        <mxCell id="KWstcczz9pRLR9bCZHfC-72" value="发送复制请求" style="whiteSpace=wrap;html=1;shadow=0;fontFamily=Helvetica;" parent="KWstcczz9pRLR9bCZHfC-51" vertex="1">
          <mxGeometry x="75" y="470" width="120" height="60" as="geometry" />
        </mxCell>
        <mxCell id="KWstcczz9pRLR9bCZHfC-76" value="同步完成" style="whiteSpace=wrap;html=1;shadow=0;fontFamily=Helvetica;" parent="KWstcczz9pRLR9bCZHfC-51" vertex="1">
          <mxGeometry x="75" y="540" width="120" height="60" as="geometry" />
        </mxCell>
        <mxCell id="KWstcczz9pRLR9bCZHfC-74" value="返回01没有的数据" style="whiteSpace=wrap;html=1;shadow=0;fontFamily=Helvetica;" parent="KWstcczz9pRLR9bCZHfC-51" vertex="1">
          <mxGeometry x="555" y="490" width="120" height="60" as="geometry" />
        </mxCell>
        <mxCell id="KWstcczz9pRLR9bCZHfC-75" style="edgeStyle=orthogonalEdgeStyle;rounded=0;orthogonalLoop=1;jettySize=auto;html=1;fontFamily=Helvetica;" parent="KWstcczz9pRLR9bCZHfC-51" source="KWstcczz9pRLR9bCZHfC-72" target="KWstcczz9pRLR9bCZHfC-74" edge="1">
          <mxGeometry relative="1" as="geometry" />
        </mxCell>
        <mxCell id="KWstcczz9pRLR9bCZHfC-78" style="edgeStyle=orthogonalEdgeStyle;rounded=0;orthogonalLoop=1;jettySize=auto;html=1;fontFamily=Helvetica;entryX=1;entryY=0.5;entryDx=0;entryDy=0;" parent="KWstcczz9pRLR9bCZHfC-51" source="KWstcczz9pRLR9bCZHfC-74" target="KWstcczz9pRLR9bCZHfC-76" edge="1">
          <mxGeometry relative="1" as="geometry">
            <mxPoint x="585" y="600" as="targetPoint" />
            <Array as="points">
              <mxPoint x="615" y="570" />
            </Array>
          </mxGeometry>
        </mxCell>
        <mxCell id="KWstcczz9pRLR9bCZHfC-28" value="请求" style="text;html=1;align=center;verticalAlign=middle;resizable=0;points=[];autosize=1;" parent="1" vertex="1">
          <mxGeometry x="340" y="1120" width="40" height="20" as="geometry" />
        </mxCell>
        <mxCell id="KWstcczz9pRLR9bCZHfC-53" value="server01" style="text;html=1;align=center;verticalAlign=middle;resizable=0;points=[];autosize=1;fontFamily=Helvetica;" parent="1" vertex="1">
          <mxGeometry x="220" y="1680" width="60" height="20" as="geometry" />
        </mxCell>
        <mxCell id="KWstcczz9pRLR9bCZHfC-57" value="复制请求" style="text;html=1;align=center;verticalAlign=middle;resizable=0;points=[];autosize=1;fontFamily=Helvetica;" parent="1" vertex="1">
          <mxGeometry x="370" y="1720" width="60" height="20" as="geometry" />
        </mxCell>
        <mxCell id="KWstcczz9pRLR9bCZHfC-64" style="edgeStyle=orthogonalEdgeStyle;rounded=0;orthogonalLoop=1;jettySize=auto;html=1;entryX=0.407;entryY=0.017;entryDx=0;entryDy=0;entryPerimeter=0;fontFamily=Helvetica;" parent="1" source="KWstcczz9pRLR9bCZHfC-60" target="KWstcczz9pRLR9bCZHfC-63" edge="1">
          <mxGeometry relative="1" as="geometry" />
        </mxCell>
        <mxCell id="KWstcczz9pRLR9bCZHfC-60" value="01的版本比较新&lt;br&gt;所以01没有哟啊更新的数据，返回404" style="whiteSpace=wrap;html=1;" parent="1" vertex="1">
          <mxGeometry x="580" y="1870" width="120" height="60" as="geometry" />
        </mxCell>
        <mxCell id="KWstcczz9pRLR9bCZHfC-61" value="" style="edgeStyle=orthogonalEdgeStyle;rounded=0;orthogonalLoop=1;jettySize=auto;html=1;fontFamily=Helvetica;fillColor=#cdeb8b;strokeColor=#36393d;" parent="1" source="KWstcczz9pRLR9bCZHfC-58" target="KWstcczz9pRLR9bCZHfC-60" edge="1">
          <mxGeometry relative="1" as="geometry" />
        </mxCell>
      </root>
    </mxGraphModel>
  </diagram>
  <diagram id="JVTff29v-kZCsz-jGG_W" name="nacos">
    <mxGraphModel dx="1038" dy="548" grid="1" gridSize="10" guides="1" tooltips="1" connect="1" arrows="1" fold="1" page="1" pageScale="1" pageWidth="827" pageHeight="1169" math="0" shadow="0">
      <root>
        <mxCell id="2pCgV1P5LcFLkyx0zvWh-0" />
        <mxCell id="2pCgV1P5LcFLkyx0zvWh-1" parent="2pCgV1P5LcFLkyx0zvWh-0" />
        <mxCell id="2pCgV1P5LcFLkyx0zvWh-3" value="init方法" style="swimlane;shadow=0;fontFamily=Helvetica;strokeColor=#9673a6;separatorColor=#E1D5E7;fillColor=none;" parent="2pCgV1P5LcFLkyx0zvWh-1" vertex="1">
          <mxGeometry x="50" y="50" width="1125" height="1690" as="geometry" />
        </mxCell>
        <mxCell id="2pCgV1P5LcFLkyx0zvWh-2" value="&lt;font style=&quot;font-size: 18px&quot;&gt;获取集群节点列表（集群or单机）&lt;/font&gt;" style="rounded=1;whiteSpace=wrap;html=1;shadow=0;fontFamily=Helvetica;" parent="2pCgV1P5LcFLkyx0zvWh-3" vertex="1">
          <mxGeometry x="60" y="90" width="120" height="60" as="geometry" />
        </mxCell>
        <mxCell id="2pCgV1P5LcFLkyx0zvWh-9" value="&lt;span style=&quot;color: rgb(51 , 51 , 51) ; text-align: left ; background-color: rgb(255 , 255 , 255)&quot;&gt;MasterElection.sendVote()进行投票&lt;/span&gt;" style="whiteSpace=wrap;html=1;rounded=1;shadow=0;fillColor=#dae8fc;strokeColor=#6c8ebf;" parent="2pCgV1P5LcFLkyx0zvWh-3" vertex="1">
          <mxGeometry x="210" y="370" width="220" height="60" as="geometry" />
        </mxCell>
        <mxCell id="2pCgV1P5LcFLkyx0zvWh-13" value="所有的节点的voteFor重置为null" style="whiteSpace=wrap;html=1;shadow=0;fontFamily=Helvetica;fillColor=#dae8fc;strokeColor=#6c8ebf;" parent="2pCgV1P5LcFLkyx0zvWh-3" vertex="1">
          <mxGeometry x="550" y="230" width="120" height="60" as="geometry" />
        </mxCell>
        <mxCell id="2pCgV1P5LcFLkyx0zvWh-12" style="edgeStyle=orthogonalEdgeStyle;orthogonalLoop=1;jettySize=auto;html=1;fontFamily=Helvetica;fillColor=#e1d5e7;curved=1;strokeColor=#9673a6;" parent="2pCgV1P5LcFLkyx0zvWh-3" source="2pCgV1P5LcFLkyx0zvWh-9" target="2pCgV1P5LcFLkyx0zvWh-13" edge="1">
          <mxGeometry relative="1" as="geometry">
            <mxPoint x="520" y="260" as="targetPoint" />
            <Array as="points">
              <mxPoint x="440" y="400" />
              <mxPoint x="440" y="260" />
            </Array>
          </mxGeometry>
        </mxCell>
        <mxCell id="2pCgV1P5LcFLkyx0zvWh-17" value="向其他节点发送投票信息" style="whiteSpace=wrap;html=1;shadow=0;fillColor=#dae8fc;strokeColor=#6c8ebf;" parent="2pCgV1P5LcFLkyx0zvWh-3" vertex="1">
          <mxGeometry x="590" y="480" width="120" height="60" as="geometry" />
        </mxCell>
        <mxCell id="2pCgV1P5LcFLkyx0zvWh-24" value="投票给自己" style="whiteSpace=wrap;html=1;shadow=0;fillColor=#dae8fc;strokeColor=#6c8ebf;" parent="2pCgV1P5LcFLkyx0zvWh-3" vertex="1">
          <mxGeometry x="250" y="530" width="120" height="60" as="geometry" />
        </mxCell>
        <mxCell id="2pCgV1P5LcFLkyx0zvWh-30" value="重置这个follower的超时时间，&lt;br&gt;投票给发送这个给予投票请求的候选人&lt;br&gt;同时跟新这个本地term。" style="whiteSpace=wrap;html=1;shadow=0;align=left;fillColor=#dae8fc;strokeColor=#6c8ebf;" parent="2pCgV1P5LcFLkyx0zvWh-3" vertex="1">
          <mxGeometry x="440" y="640" width="240" height="60" as="geometry" />
        </mxCell>
        <mxCell id="2pCgV1P5LcFLkyx0zvWh-26" value="本地term&amp;gt;候选term？" style="rhombus;whiteSpace=wrap;html=1;shadow=0;fillColor=#dae8fc;strokeColor=#6c8ebf;" parent="2pCgV1P5LcFLkyx0zvWh-3" vertex="1">
          <mxGeometry x="420" y="470" width="130" height="100" as="geometry" />
        </mxCell>
        <mxCell id="2pCgV1P5LcFLkyx0zvWh-28" style="edgeStyle=orthogonalEdgeStyle;curved=1;orthogonalLoop=1;jettySize=auto;html=1;strokeColor=#9673a6;fontFamily=Helvetica;fillColor=#e1d5e7;" parent="2pCgV1P5LcFLkyx0zvWh-3" source="2pCgV1P5LcFLkyx0zvWh-26" target="2pCgV1P5LcFLkyx0zvWh-24" edge="1">
          <mxGeometry relative="1" as="geometry" />
        </mxCell>
        <mxCell id="2pCgV1P5LcFLkyx0zvWh-29" value="是" style="edgeLabel;html=1;align=center;verticalAlign=middle;resizable=0;points=[];fontFamily=Helvetica;" parent="2pCgV1P5LcFLkyx0zvWh-28" vertex="1" connectable="0">
          <mxGeometry x="0.3571" y="-9" relative="1" as="geometry">
            <mxPoint as="offset" />
          </mxGeometry>
        </mxCell>
        <mxCell id="2pCgV1P5LcFLkyx0zvWh-31" value="" style="edgeStyle=orthogonalEdgeStyle;curved=1;orthogonalLoop=1;jettySize=auto;html=1;strokeColor=#9673a6;fontFamily=Helvetica;fillColor=#e1d5e7;" parent="2pCgV1P5LcFLkyx0zvWh-3" source="2pCgV1P5LcFLkyx0zvWh-26" target="2pCgV1P5LcFLkyx0zvWh-30" edge="1">
          <mxGeometry relative="1" as="geometry" />
        </mxCell>
        <mxCell id="2pCgV1P5LcFLkyx0zvWh-32" value="否" style="edgeLabel;html=1;align=center;verticalAlign=middle;resizable=0;points=[];fontFamily=Helvetica;" parent="2pCgV1P5LcFLkyx0zvWh-31" vertex="1" connectable="0">
          <mxGeometry x="-0.2356" y="-2" relative="1" as="geometry">
            <mxPoint as="offset" />
          </mxGeometry>
        </mxCell>
        <mxCell id="2pCgV1P5LcFLkyx0zvWh-27" value="" style="edgeStyle=orthogonalEdgeStyle;curved=1;orthogonalLoop=1;jettySize=auto;html=1;strokeColor=#9673a6;fontFamily=Helvetica;fillColor=#e1d5e7;" parent="2pCgV1P5LcFLkyx0zvWh-3" source="2pCgV1P5LcFLkyx0zvWh-17" target="2pCgV1P5LcFLkyx0zvWh-26" edge="1">
          <mxGeometry relative="1" as="geometry" />
        </mxCell>
        <mxCell id="2pCgV1P5LcFLkyx0zvWh-16" value="&lt;font style=&quot;font-size: 8px&quot;&gt;&lt;span style=&quot;box-sizing: border-box ; outline: 0px ; font-weight: 700 ; overflow-wrap: break-word ; color: rgb(77 , 77 , 77) ; font-family: , &amp;#34;sf ui text&amp;#34; , &amp;#34;arial&amp;#34; , &amp;#34;pingfang sc&amp;#34; , &amp;#34;hiragino sans gb&amp;#34; , &amp;#34;microsoft yahei&amp;#34; , &amp;#34;wenquanyi micro hei&amp;#34; , sans-serif , &amp;#34;simhei&amp;#34; , &amp;#34;simsun&amp;#34; ; text-indent: 50px ; background-color: rgb(255 , 255 , 255)&quot;&gt;通过自增&lt;/span&gt;&lt;span style=&quot;box-sizing: border-box ; outline: 0px ; font-weight: 700 ; overflow-wrap: break-word ; color: rgb(77 , 77 , 77) ; font-family: , &amp;#34;sf ui text&amp;#34; , &amp;#34;arial&amp;#34; , &amp;#34;pingfang sc&amp;#34; , &amp;#34;hiragino sans gb&amp;#34; , &amp;#34;microsoft yahei&amp;#34; , &amp;#34;wenquanyi micro hei&amp;#34; , sans-serif , &amp;#34;simhei&amp;#34; , &amp;#34;simsun&amp;#34; ; text-indent: 50px ; background-color: rgb(255 , 255 , 255)&quot;&gt;1&lt;/span&gt;&lt;span style=&quot;box-sizing: border-box ; outline: 0px ; font-weight: 700 ; overflow-wrap: break-word ; color: rgb(77 , 77 , 77) ; font-family: , &amp;#34;sf ui text&amp;#34; , &amp;#34;arial&amp;#34; , &amp;#34;pingfang sc&amp;#34; , &amp;#34;hiragino sans gb&amp;#34; , &amp;#34;microsoft yahei&amp;#34; , &amp;#34;wenquanyi micro hei&amp;#34; , sans-serif , &amp;#34;simhei&amp;#34; , &amp;#34;simsun&amp;#34; ; text-indent: 50px ; background-color: rgb(255 , 255 , 255)&quot;&gt;制造和其它节点的&lt;/span&gt;&lt;span style=&quot;box-sizing: border-box ; outline: 0px ; font-weight: 700 ; overflow-wrap: break-word ; color: rgb(77 , 77 , 77) ; font-family: , &amp;#34;sf ui text&amp;#34; , &amp;#34;arial&amp;#34; , &amp;#34;pingfang sc&amp;#34; , &amp;#34;hiragino sans gb&amp;#34; , &amp;#34;microsoft yahei&amp;#34; , &amp;#34;wenquanyi micro hei&amp;#34; , sans-serif , &amp;#34;simhei&amp;#34; , &amp;#34;simsun&amp;#34; ; text-indent: 50px ; background-color: rgb(255 , 255 , 255)&quot;&gt;term&lt;/span&gt;&lt;span style=&quot;box-sizing: border-box ; outline: 0px ; font-weight: 700 ; overflow-wrap: break-word ; color: rgb(77 , 77 , 77) ; font-family: , &amp;#34;sf ui text&amp;#34; , &amp;#34;arial&amp;#34; , &amp;#34;pingfang sc&amp;#34; , &amp;#34;hiragino sans gb&amp;#34; , &amp;#34;microsoft yahei&amp;#34; , &amp;#34;wenquanyi micro hei&amp;#34; , sans-serif , &amp;#34;simhei&amp;#34; , &amp;#34;simsun&amp;#34; ; text-indent: 50px ; background-color: rgb(255 , 255 , 255)&quot;&gt;差异，避免所有节点&lt;/span&gt;&lt;span style=&quot;box-sizing: border-box ; outline: 0px ; font-weight: 700 ; overflow-wrap: break-word ; color: rgb(77 , 77 , 77) ; font-family: , &amp;#34;sf ui text&amp;#34; , &amp;#34;arial&amp;#34; , &amp;#34;pingfang sc&amp;#34; , &amp;#34;hiragino sans gb&amp;#34; , &amp;#34;microsoft yahei&amp;#34; , &amp;#34;wenquanyi micro hei&amp;#34; , sans-serif , &amp;#34;simhei&amp;#34; , &amp;#34;simsun&amp;#34; ; text-indent: 50px ; background-color: rgb(255 , 255 , 255)&quot;&gt;term&lt;/span&gt;&lt;span style=&quot;box-sizing: border-box ; outline: 0px ; font-weight: 700 ; overflow-wrap: break-word ; color: rgb(77 , 77 , 77) ; font-family: , &amp;#34;sf ui text&amp;#34; , &amp;#34;arial&amp;#34; , &amp;#34;pingfang sc&amp;#34; , &amp;#34;hiragino sans gb&amp;#34; , &amp;#34;microsoft yahei&amp;#34; , &amp;#34;wenquanyi micro hei&amp;#34; , sans-serif , &amp;#34;simhei&amp;#34; , &amp;#34;simsun&amp;#34; ; text-indent: 50px ; background-color: rgb(255 , 255 , 255)&quot;&gt;一样选举不出&lt;/span&gt;&lt;span style=&quot;box-sizing: border-box ; outline: 0px ; font-weight: 700 ; overflow-wrap: break-word ; color: rgb(77 , 77 , 77) ; font-family: , &amp;#34;sf ui text&amp;#34; , &amp;#34;arial&amp;#34; , &amp;#34;pingfang sc&amp;#34; , &amp;#34;hiragino sans gb&amp;#34; , &amp;#34;microsoft yahei&amp;#34; , &amp;#34;wenquanyi micro hei&amp;#34; , sans-serif , &amp;#34;simhei&amp;#34; , &amp;#34;simsun&amp;#34; ; text-indent: 50px ; background-color: rgb(255 , 255 , 255)&quot;&gt;Leader&lt;/span&gt;&lt;/font&gt;" style="text;html=1;align=center;verticalAlign=middle;resizable=0;points=[];autosize=1;fontFamily=Helvetica;" parent="2pCgV1P5LcFLkyx0zvWh-3" vertex="1">
          <mxGeometry x="510" y="320" width="440" height="20" as="geometry" />
        </mxCell>
        <mxCell id="IHleirMCCipjKmFEQbuY-2" value="&lt;span style=&quot;font-family: &amp;#34;source code pro&amp;#34; , &amp;#34;dejavu sans mono&amp;#34; , &amp;#34;ubuntu mono&amp;#34; , &amp;#34;anonymous pro&amp;#34; , &amp;#34;droid sans mono&amp;#34; , &amp;#34;menlo&amp;#34; , &amp;#34;monaco&amp;#34; , &amp;#34;consolas&amp;#34; , &amp;#34;inconsolata&amp;#34; , &amp;#34;courier&amp;#34; , monospace , &amp;#34;pingfang sc&amp;#34; , &amp;#34;microsoft yahei&amp;#34; , sans-serif ; text-align: left ; background-color: rgb(255 , 255 , 255)&quot;&gt;&lt;font style=&quot;font-size: 8px&quot; color=&quot;#1a1a1a&quot;&gt;hearbeatDueMs 默认为 5s，TICK_PERIOD_MS 为 500ms，每 500ms 检查一次，每 5s 发送一次心跳&lt;/font&gt;&lt;/span&gt;" style="text;html=1;align=center;verticalAlign=middle;resizable=0;points=[];autosize=1;" vertex="1" parent="2pCgV1P5LcFLkyx0zvWh-3">
          <mxGeometry x="310" y="820" width="580" height="20" as="geometry" />
        </mxCell>
        <mxCell id="IHleirMCCipjKmFEQbuY-3" value="&lt;font style=&quot;font-size: 18px&quot;&gt;raft发送心跳&lt;/font&gt;" style="whiteSpace=wrap;html=1;fillColor=none;gradientColor=none;" vertex="1" parent="2pCgV1P5LcFLkyx0zvWh-3">
          <mxGeometry x="65" y="930" width="120" height="60" as="geometry" />
        </mxCell>
        <mxCell id="IHleirMCCipjKmFEQbuY-4" value="重置心跳包（因为可能心跳重新设置时间）" style="whiteSpace=wrap;html=1;fillColor=#fff2cc;strokeColor=#d6b656;" vertex="1" parent="2pCgV1P5LcFLkyx0zvWh-3">
          <mxGeometry x="380" y="900" width="120" height="60" as="geometry" />
        </mxCell>
        <mxCell id="IHleirMCCipjKmFEQbuY-5" value="" style="edgeStyle=orthogonalEdgeStyle;curved=1;orthogonalLoop=1;jettySize=auto;html=1;fillColor=#fff2cc;strokeColor=#d6b656;" edge="1" parent="2pCgV1P5LcFLkyx0zvWh-3" source="IHleirMCCipjKmFEQbuY-3" target="IHleirMCCipjKmFEQbuY-4">
          <mxGeometry relative="1" as="geometry" />
        </mxCell>
        <mxCell id="2pCgV1P5LcFLkyx0zvWh-5" value="&lt;font style=&quot;font-size: 18px&quot;&gt;集群数据恢复，从集群中的datum和term获取数据&lt;/font&gt;" style="whiteSpace=wrap;html=1;rounded=1;shadow=0;" parent="2pCgV1P5LcFLkyx0zvWh-3" vertex="1">
          <mxGeometry x="55" y="230" width="130" height="80" as="geometry" />
        </mxCell>
        <mxCell id="2pCgV1P5LcFLkyx0zvWh-6" value="" style="edgeStyle=orthogonalEdgeStyle;rounded=0;orthogonalLoop=1;jettySize=auto;html=1;fontFamily=Helvetica;" parent="2pCgV1P5LcFLkyx0zvWh-3" source="2pCgV1P5LcFLkyx0zvWh-2" target="2pCgV1P5LcFLkyx0zvWh-5" edge="1">
          <mxGeometry relative="1" as="geometry" />
        </mxCell>
        <mxCell id="IHleirMCCipjKmFEQbuY-8" value="follower接受心跳包并解析&lt;br&gt;&lt;span style=&quot;box-sizing: border-box ; outline: 0px ; font-weight: 700 ; overflow-wrap: break-word ; color: rgb(77 , 77 , 77) ; font-family: , &amp;#34;sf ui text&amp;#34; , &amp;#34;arial&amp;#34; , &amp;#34;pingfang sc&amp;#34; , &amp;#34;hiragino sans gb&amp;#34; , &amp;#34;microsoft yahei&amp;#34; , &amp;#34;wenquanyi micro hei&amp;#34; , sans-serif , &amp;#34;simhei&amp;#34; , &amp;#34;simsun&amp;#34; ; background-color: rgb(255 , 255 , 255)&quot;&gt;&lt;font style=&quot;font-size: 12px&quot;&gt;receivedBeat()处理心跳包&lt;/font&gt;&lt;/span&gt;" style="whiteSpace=wrap;html=1;fillColor=#fff2cc;align=left;strokeColor=#d6b656;" vertex="1" parent="2pCgV1P5LcFLkyx0zvWh-3">
          <mxGeometry x="360" y="1000" width="120" height="60" as="geometry" />
        </mxCell>
        <mxCell id="2pCgV1P5LcFLkyx0zvWh-7" value="&lt;font style=&quot;font-size: 18px&quot;&gt;raft选举&lt;/font&gt;" style="whiteSpace=wrap;html=1;rounded=1;shadow=0;" parent="2pCgV1P5LcFLkyx0zvWh-3" vertex="1">
          <mxGeometry x="60" y="370" width="120" height="60" as="geometry" />
        </mxCell>
        <mxCell id="2pCgV1P5LcFLkyx0zvWh-8" value="" style="edgeStyle=orthogonalEdgeStyle;rounded=0;orthogonalLoop=1;jettySize=auto;html=1;fontFamily=Helvetica;" parent="2pCgV1P5LcFLkyx0zvWh-3" source="2pCgV1P5LcFLkyx0zvWh-5" target="2pCgV1P5LcFLkyx0zvWh-7" edge="1">
          <mxGeometry relative="1" as="geometry" />
        </mxCell>
        <mxCell id="2pCgV1P5LcFLkyx0zvWh-10" value="" style="edgeStyle=orthogonalEdgeStyle;rounded=0;orthogonalLoop=1;jettySize=auto;html=1;fontFamily=Helvetica;" parent="2pCgV1P5LcFLkyx0zvWh-3" source="2pCgV1P5LcFLkyx0zvWh-7" target="2pCgV1P5LcFLkyx0zvWh-9" edge="1">
          <mxGeometry relative="1" as="geometry" />
        </mxCell>
        <mxCell id="IHleirMCCipjKmFEQbuY-11" value="&lt;div style=&quot;text-align: left&quot;&gt;&lt;span&gt;接受心跳包并初步处理&lt;/span&gt;&lt;/div&gt;&lt;span style=&quot;background-color: rgb(255 , 255 , 255) ; color: rgb(79 , 79 , 79) ; font-family: &amp;#34;pingfang sc&amp;#34; , &amp;#34;microsoft yahei&amp;#34; , &amp;#34;simhei&amp;#34; , &amp;#34;arial&amp;#34; , &amp;#34;simsun&amp;#34;&quot;&gt;&lt;div style=&quot;text-align: left&quot;&gt;beat()&lt;/div&gt;&lt;/span&gt;" style="whiteSpace=wrap;html=1;fillColor=#fff2cc;strokeColor=#d6b656;" vertex="1" parent="2pCgV1P5LcFLkyx0zvWh-3">
          <mxGeometry x="730" y="890" width="140" height="60" as="geometry" />
        </mxCell>
        <mxCell id="IHleirMCCipjKmFEQbuY-9" value="" style="edgeStyle=orthogonalEdgeStyle;curved=1;orthogonalLoop=1;jettySize=auto;html=1;exitX=1;exitY=0.5;exitDx=0;exitDy=0;fillColor=#fff2cc;strokeColor=#d6b656;" edge="1" parent="2pCgV1P5LcFLkyx0zvWh-3" source="IHleirMCCipjKmFEQbuY-11" target="IHleirMCCipjKmFEQbuY-8">
          <mxGeometry relative="1" as="geometry" />
        </mxCell>
        <mxCell id="IHleirMCCipjKmFEQbuY-13" value="如果该节点为followe节点不管，不为则变为follower节点，同时还让votefor变为leader节点位置" style="whiteSpace=wrap;html=1;align=left;fillColor=#e1d5e7;strokeColor=#9673a6;" vertex="1" parent="2pCgV1P5LcFLkyx0zvWh-3">
          <mxGeometry x="520" y="1030" width="120" height="70" as="geometry" />
        </mxCell>
        <mxCell id="IHleirMCCipjKmFEQbuY-14" value="" style="edgeStyle=orthogonalEdgeStyle;curved=1;orthogonalLoop=1;jettySize=auto;html=1;fillColor=#fff2cc;strokeColor=#d6b656;" edge="1" parent="2pCgV1P5LcFLkyx0zvWh-3" source="IHleirMCCipjKmFEQbuY-8" target="IHleirMCCipjKmFEQbuY-13">
          <mxGeometry relative="1" as="geometry" />
        </mxCell>
        <mxCell id="2pCgV1P5LcFLkyx0zvWh-36" value="这里跟新这个term就是投一票的意思" style="text;html=1;align=center;verticalAlign=middle;resizable=0;points=[];autosize=1;fontFamily=Helvetica;" parent="2pCgV1P5LcFLkyx0zvWh-3" vertex="1">
          <mxGeometry x="335" y="700" width="210" height="20" as="geometry" />
        </mxCell>
        <mxCell id="IHleirMCCipjKmFEQbuY-15" value="重置本地节点的心跳和选举时间" style="whiteSpace=wrap;html=1;align=left;strokeColor=#9673a6;fillColor=#e1d5e7;" vertex="1" parent="2pCgV1P5LcFLkyx0zvWh-3">
          <mxGeometry x="730" y="1040" width="120" height="60" as="geometry" />
        </mxCell>
        <mxCell id="IHleirMCCipjKmFEQbuY-16" value="" style="edgeStyle=orthogonalEdgeStyle;curved=1;orthogonalLoop=1;jettySize=auto;html=1;" edge="1" parent="2pCgV1P5LcFLkyx0zvWh-3" source="IHleirMCCipjKmFEQbuY-13" target="IHleirMCCipjKmFEQbuY-15">
          <mxGeometry relative="1" as="geometry" />
        </mxCell>
        <mxCell id="IHleirMCCipjKmFEQbuY-20" value="检查datum" style="whiteSpace=wrap;html=1;align=left;strokeColor=#9673a6;fillColor=#e1d5e7;" vertex="1" parent="2pCgV1P5LcFLkyx0zvWh-3">
          <mxGeometry x="420" y="1190" width="120" height="60" as="geometry" />
        </mxCell>
        <mxCell id="IHleirMCCipjKmFEQbuY-22" value="遍历参数中的datum，如果follower如果不存在该datum或者timestamp较旧" style="whiteSpace=wrap;html=1;align=left;strokeColor=#b85450;fillColor=#f8cecc;" vertex="1" parent="2pCgV1P5LcFLkyx0zvWh-3">
          <mxGeometry x="500" y="1290" width="120" height="60" as="geometry" />
        </mxCell>
        <mxCell id="IHleirMCCipjKmFEQbuY-23" value="" style="edgeStyle=orthogonalEdgeStyle;curved=1;orthogonalLoop=1;jettySize=auto;html=1;" edge="1" parent="2pCgV1P5LcFLkyx0zvWh-3" source="IHleirMCCipjKmFEQbuY-20" target="IHleirMCCipjKmFEQbuY-22">
          <mxGeometry relative="1" as="geometry" />
        </mxCell>
        <mxCell id="2pCgV1P5LcFLkyx0zvWh-14" value="每个节点的任期term+1&lt;br&gt;候选节点的voteFor选自己&lt;br&gt;state为候选状态" style="whiteSpace=wrap;html=1;shadow=0;fillColor=#dae8fc;strokeColor=#6c8ebf;" parent="2pCgV1P5LcFLkyx0zvWh-3" vertex="1">
          <mxGeometry x="545" y="350" width="200" height="70" as="geometry" />
        </mxCell>
        <mxCell id="2pCgV1P5LcFLkyx0zvWh-18" value="" style="edgeStyle=orthogonalEdgeStyle;curved=1;orthogonalLoop=1;jettySize=auto;html=1;strokeColor=#9673a6;fontFamily=Helvetica;fillColor=#e1d5e7;" parent="2pCgV1P5LcFLkyx0zvWh-3" source="2pCgV1P5LcFLkyx0zvWh-14" target="2pCgV1P5LcFLkyx0zvWh-17" edge="1">
          <mxGeometry relative="1" as="geometry" />
        </mxCell>
        <mxCell id="2pCgV1P5LcFLkyx0zvWh-15" value="" style="edgeStyle=orthogonalEdgeStyle;curved=1;orthogonalLoop=1;jettySize=auto;html=1;strokeColor=#9673a6;fontFamily=Helvetica;fillColor=#e1d5e7;" parent="2pCgV1P5LcFLkyx0zvWh-3" source="2pCgV1P5LcFLkyx0zvWh-13" target="2pCgV1P5LcFLkyx0zvWh-14" edge="1">
          <mxGeometry relative="1" as="geometry" />
        </mxCell>
        <mxCell id="IHleirMCCipjKmFEQbuY-0" value="本来term初始值一致，但是自增有时间差导致不动，看谁的速度快咯&lt;br&gt;谁就能投自己票咯，在多线程下考虑就知道了" style="text;html=1;align=left;verticalAlign=middle;resizable=0;points=[];autosize=1;" vertex="1" parent="2pCgV1P5LcFLkyx0zvWh-3">
          <mxGeometry x="745" y="380" width="380" height="30" as="geometry" />
        </mxCell>
        <mxCell id="2pCgV1P5LcFLkyx0zvWh-4" value="&lt;h2 id=&quot;1.%20%E8%8E%B7%E5%8F%96Raft%E9%9B%86%E7%BE%A4%E8%8A%82%E7%82%B9&quot; style=&quot;box-sizing: border-box ; outline: 0px ; margin: 8px 0px 16px ; padding: 0px ; font-family: &amp;#34;pingfang sc&amp;#34; , &amp;#34;microsoft yahei&amp;#34; , &amp;#34;simhei&amp;#34; , &amp;#34;arial&amp;#34; , &amp;#34;simsun&amp;#34; ; font-size: 24px ; color: rgb(79 , 79 , 79) ; line-height: 32px ; overflow-wrap: break-word ; background-color: rgb(255 , 255 , 255)&quot;&gt;Raft&lt;/h2&gt;" style="text;html=1;align=center;verticalAlign=middle;resizable=0;points=[];autosize=1;fontFamily=Helvetica;" parent="2pCgV1P5LcFLkyx0zvWh-1" vertex="1">
          <mxGeometry x="55" y="30" width="70" height="60" as="geometry" />
        </mxCell>
        <mxCell id="2pCgV1P5LcFLkyx0zvWh-35" style="edgeStyle=orthogonalEdgeStyle;curved=1;orthogonalLoop=1;jettySize=auto;html=1;strokeColor=#9673a6;fontFamily=Helvetica;fillColor=#e1d5e7;" parent="2pCgV1P5LcFLkyx0zvWh-1" source="2pCgV1P5LcFLkyx0zvWh-30" target="2pCgV1P5LcFLkyx0zvWh-33" edge="1">
          <mxGeometry relative="1" as="geometry" />
        </mxCell>
        <mxCell id="2pCgV1P5LcFLkyx0zvWh-38" value="" style="edgeStyle=orthogonalEdgeStyle;curved=1;orthogonalLoop=1;jettySize=auto;html=1;strokeColor=#000000;fontFamily=Helvetica;entryX=0.5;entryY=0;entryDx=0;entryDy=0;" parent="2pCgV1P5LcFLkyx0zvWh-1" source="2pCgV1P5LcFLkyx0zvWh-33" target="IHleirMCCipjKmFEQbuY-3" edge="1">
          <mxGeometry relative="1" as="geometry">
            <mxPoint x="250" y="920" as="targetPoint" />
          </mxGeometry>
        </mxCell>
        <mxCell id="2pCgV1P5LcFLkyx0zvWh-33" value="&lt;font style=&quot;font-size: 18px&quot;&gt;投票结束后&lt;br&gt;&lt;/font&gt;&lt;h3 id=&quot;%EF%BC%882%EF%BC%89PeerSet.decideLeader()%E9%80%89%E4%B8%BE&quot; style=&quot;box-sizing: border-box ; outline: 0px ; margin: 8px 0px 16px ; padding: 0px ; font-family: &amp;#34;pingfang sc&amp;#34; , &amp;#34;microsoft yahei&amp;#34; , &amp;#34;simhei&amp;#34; , &amp;#34;arial&amp;#34; , &amp;#34;simsun&amp;#34; ; color: rgb(79 , 79 , 79) ; line-height: 30px ; overflow-wrap: break-word ; background-color: rgb(255 , 255 , 255)&quot;&gt;&lt;font size=&quot;3&quot;&gt;PeerSet.decideLeader统计票数，选择超过半数投票的leader&lt;/font&gt;&lt;/h3&gt;" style="whiteSpace=wrap;html=1;shadow=0;fontFamily=Helvetica;" parent="2pCgV1P5LcFLkyx0zvWh-1" vertex="1">
          <mxGeometry x="90" y="680" width="190" height="140" as="geometry" />
        </mxCell>
        <mxCell id="2pCgV1P5LcFLkyx0zvWh-34" style="edgeStyle=orthogonalEdgeStyle;curved=1;orthogonalLoop=1;jettySize=auto;html=1;strokeColor=#9673a6;fontFamily=Helvetica;fillColor=#e1d5e7;" parent="2pCgV1P5LcFLkyx0zvWh-1" source="2pCgV1P5LcFLkyx0zvWh-24" target="2pCgV1P5LcFLkyx0zvWh-33" edge="1">
          <mxGeometry relative="1" as="geometry" />
        </mxCell>
        <mxCell id="IHleirMCCipjKmFEQbuY-12" value="" style="edgeStyle=orthogonalEdgeStyle;curved=1;orthogonalLoop=1;jettySize=auto;html=1;fillColor=#fff2cc;strokeColor=#d6b656;" edge="1" parent="2pCgV1P5LcFLkyx0zvWh-1" source="IHleirMCCipjKmFEQbuY-6" target="IHleirMCCipjKmFEQbuY-11">
          <mxGeometry relative="1" as="geometry" />
        </mxCell>
        <mxCell id="IHleirMCCipjKmFEQbuY-6" value="leader发送心跳包，如果是follwer发送或者本地term小的就不处理该心跳包" style="whiteSpace=wrap;html=1;fillColor=#fff2cc;strokeColor=#d6b656;" vertex="1" parent="2pCgV1P5LcFLkyx0zvWh-1">
          <mxGeometry x="640" y="900" width="120" height="60" as="geometry" />
        </mxCell>
        <mxCell id="IHleirMCCipjKmFEQbuY-7" value="" style="edgeStyle=orthogonalEdgeStyle;curved=1;orthogonalLoop=1;jettySize=auto;html=1;fillColor=#fff2cc;strokeColor=#d6b656;" edge="1" parent="2pCgV1P5LcFLkyx0zvWh-1" source="IHleirMCCipjKmFEQbuY-4" target="IHleirMCCipjKmFEQbuY-6">
          <mxGeometry relative="1" as="geometry" />
        </mxCell>
        <mxCell id="IHleirMCCipjKmFEQbuY-10" value="其中的datum为数据" style="text;html=1;align=center;verticalAlign=middle;resizable=0;points=[];autosize=1;" vertex="1" parent="2pCgV1P5LcFLkyx0zvWh-1">
          <mxGeometry x="240" y="150" width="120" height="20" as="geometry" />
        </mxCell>
        <mxCell id="IHleirMCCipjKmFEQbuY-21" value="" style="edgeStyle=orthogonalEdgeStyle;curved=1;orthogonalLoop=1;jettySize=auto;html=1;" edge="1" parent="2pCgV1P5LcFLkyx0zvWh-1" source="IHleirMCCipjKmFEQbuY-17" target="IHleirMCCipjKmFEQbuY-20">
          <mxGeometry relative="1" as="geometry" />
        </mxCell>
        <mxCell id="IHleirMCCipjKmFEQbuY-17" value="peerSet.makeLeader通知leader，在通知其他节点进行更新" style="whiteSpace=wrap;html=1;align=left;strokeColor=#9673a6;fillColor=#e1d5e7;" vertex="1" parent="2pCgV1P5LcFLkyx0zvWh-1">
          <mxGeometry x="780" y="1230" width="120" height="60" as="geometry" />
        </mxCell>
        <mxCell id="IHleirMCCipjKmFEQbuY-18" value="" style="edgeStyle=orthogonalEdgeStyle;curved=1;orthogonalLoop=1;jettySize=auto;html=1;" edge="1" parent="2pCgV1P5LcFLkyx0zvWh-1" source="IHleirMCCipjKmFEQbuY-15" target="IHleirMCCipjKmFEQbuY-17">
          <mxGeometry relative="1" as="geometry" />
        </mxCell>
      </root>
    </mxGraphModel>
  </diagram>
  <diagram id="hHVL1fWL3Su4tsb3WITc" name="zookeeper">
    <mxGraphModel dx="1221" dy="645" grid="1" gridSize="10" guides="1" tooltips="1" connect="1" arrows="1" fold="1" page="1" pageScale="1" pageWidth="827" pageHeight="1169" math="0" shadow="0">
      <root>
        <mxCell id="YiJMnF56RPMD7wd5EbZs-0" />
        <mxCell id="YiJMnF56RPMD7wd5EbZs-1" parent="YiJMnF56RPMD7wd5EbZs-0" />
        <mxCell id="SAMm_WZ2sFC5QimjHP4S-3" value="&lt;font style=&quot;font-size: 16px&quot;&gt;在选举，serverid越大权重越大&lt;br&gt;&lt;br&gt;zookeeper通过复制leader的数据到follower实现高可用，确保在leader节点的树内容至少有一般以上的机器都有&lt;br&gt;&lt;br&gt;zxid:服务器存放的最大数据的id，id越大，说明数据越新&lt;br&gt;&lt;br&gt;&lt;/font&gt;&lt;h3 style=&quot;margin: 10px 0px ; padding: 0px ; line-height: 1.5 ; font-family: &amp;#34;helvetica neue&amp;#34; , &amp;#34;helvetica&amp;#34; , &amp;#34;verdana&amp;#34; , &amp;#34;arial&amp;#34; , sans-serif ; background-color: rgba(255 , 255 , 255 , 0.5) ; font-size: 16px&quot;&gt;&lt;font style=&quot;font-weight: normal ; font-size: 16px&quot;&gt;最新的事物ID 既 LastLoggedZxid&lt;/font&gt;&lt;/h3&gt;" style="rounded=1;whiteSpace=wrap;html=1;fillColor=none;gradientColor=none;align=left;" vertex="1" parent="YiJMnF56RPMD7wd5EbZs-1">
          <mxGeometry x="20" y="40" width="460" height="170" as="geometry" />
        </mxCell>
        <mxCell id="SAMm_WZ2sFC5QimjHP4S-5" value="zookeeper读写机制" style="swimlane;fillColor=none;gradientColor=none;" vertex="1" parent="YiJMnF56RPMD7wd5EbZs-1">
          <mxGeometry x="30" y="400" width="810" height="360" as="geometry">
            <mxRectangle x="30" y="400" width="130" height="23" as="alternateBounds" />
          </mxGeometry>
        </mxCell>
        <mxCell id="SAMm_WZ2sFC5QimjHP4S-7" value="" style="line;strokeWidth=1;fillColor=none;align=left;verticalAlign=middle;spacingTop=-1;spacingLeft=3;spacingRight=3;rotatable=0;labelPosition=right;points=[];portConstraint=eastwest;" vertex="1" parent="SAMm_WZ2sFC5QimjHP4S-5">
          <mxGeometry x="84" y="116" width="600" height="8" as="geometry" />
        </mxCell>
        <mxCell id="SAMm_WZ2sFC5QimjHP4S-9" value="" style="line;strokeWidth=1;fillColor=none;align=left;verticalAlign=middle;spacingTop=-1;spacingLeft=3;spacingRight=3;rotatable=0;labelPosition=right;points=[];portConstraint=eastwest;" vertex="1" parent="SAMm_WZ2sFC5QimjHP4S-5">
          <mxGeometry x="84" y="316" width="600" height="8" as="geometry" />
        </mxCell>
        <mxCell id="SAMm_WZ2sFC5QimjHP4S-8" value="" style="line;strokeWidth=1;fillColor=none;align=left;verticalAlign=middle;spacingTop=-1;spacingLeft=3;spacingRight=3;rotatable=0;labelPosition=right;points=[];portConstraint=eastwest;" vertex="1" parent="SAMm_WZ2sFC5QimjHP4S-5">
          <mxGeometry x="94" y="216" width="600" height="8" as="geometry" />
        </mxCell>
        <mxCell id="SAMm_WZ2sFC5QimjHP4S-12" value="clientB" style="text;html=1;align=center;verticalAlign=middle;resizable=0;points=[];autosize=1;" vertex="1" parent="SAMm_WZ2sFC5QimjHP4S-5">
          <mxGeometry x="74" y="310" width="50" height="20" as="geometry" />
        </mxCell>
        <mxCell id="SAMm_WZ2sFC5QimjHP4S-13" value="" style="endArrow=classic;html=1;entryX=0.149;entryY=0.425;entryDx=0;entryDy=0;entryPerimeter=0;" edge="1" parent="SAMm_WZ2sFC5QimjHP4S-5" target="SAMm_WZ2sFC5QimjHP4S-8">
          <mxGeometry width="50" height="50" relative="1" as="geometry">
            <mxPoint x="134" y="126" as="sourcePoint" />
            <mxPoint x="174" y="136" as="targetPoint" />
          </mxGeometry>
        </mxCell>
        <mxCell id="SAMm_WZ2sFC5QimjHP4S-15" value="" style="endArrow=classic;html=1;entryX=0.275;entryY=0.325;entryDx=0;entryDy=0;entryPerimeter=0;exitX=0.169;exitY=0.725;exitDx=0;exitDy=0;exitPerimeter=0;" edge="1" parent="SAMm_WZ2sFC5QimjHP4S-5" source="SAMm_WZ2sFC5QimjHP4S-8" target="SAMm_WZ2sFC5QimjHP4S-7">
          <mxGeometry width="50" height="50" relative="1" as="geometry">
            <mxPoint x="144" y="136" as="sourcePoint" />
            <mxPoint x="193.4000000000001" y="229.4000000000001" as="targetPoint" />
          </mxGeometry>
        </mxCell>
        <mxCell id="SAMm_WZ2sFC5QimjHP4S-17" value="" style="endArrow=classic;html=1;entryX=0.275;entryY=0.325;entryDx=0;entryDy=0;entryPerimeter=0;exitX=0.169;exitY=0.725;exitDx=0;exitDy=0;exitPerimeter=0;" edge="1" parent="SAMm_WZ2sFC5QimjHP4S-5">
          <mxGeometry width="50" height="50" relative="1" as="geometry">
            <mxPoint x="214.00000000000009" y="324" as="sourcePoint" />
            <mxPoint x="267.6" y="220.79999999999995" as="targetPoint" />
          </mxGeometry>
        </mxCell>
        <mxCell id="SAMm_WZ2sFC5QimjHP4S-19" value="" style="endArrow=classic;html=1;entryX=0.149;entryY=0.425;entryDx=0;entryDy=0;entryPerimeter=0;" edge="1" parent="SAMm_WZ2sFC5QimjHP4S-5">
          <mxGeometry width="50" height="50" relative="1" as="geometry">
            <mxPoint x="274" y="224" as="sourcePoint" />
            <mxPoint x="323.4000000000001" y="317.4000000000001" as="targetPoint" />
          </mxGeometry>
        </mxCell>
        <mxCell id="SAMm_WZ2sFC5QimjHP4S-21" value="" style="endArrow=classic;html=1;entryX=0.275;entryY=0.325;entryDx=0;entryDy=0;entryPerimeter=0;exitX=0.169;exitY=0.725;exitDx=0;exitDy=0;exitPerimeter=0;" edge="1" parent="SAMm_WZ2sFC5QimjHP4S-5">
          <mxGeometry width="50" height="50" relative="1" as="geometry">
            <mxPoint x="374" y="324" as="sourcePoint" />
            <mxPoint x="427.5999999999999" y="220.79999999999995" as="targetPoint" />
          </mxGeometry>
        </mxCell>
        <mxCell id="SAMm_WZ2sFC5QimjHP4S-24" value="" style="endArrow=classic;html=1;entryX=0.149;entryY=0.425;entryDx=0;entryDy=0;entryPerimeter=0;" edge="1" parent="SAMm_WZ2sFC5QimjHP4S-5">
          <mxGeometry width="50" height="50" relative="1" as="geometry">
            <mxPoint x="444" y="222.60000000000002" as="sourcePoint" />
            <mxPoint x="493.4000000000001" y="316.0000000000001" as="targetPoint" />
          </mxGeometry>
        </mxCell>
        <mxCell id="SAMm_WZ2sFC5QimjHP4S-27" value="" style="endArrow=classic;html=1;entryX=0.149;entryY=0.425;entryDx=0;entryDy=0;entryPerimeter=0;" edge="1" parent="SAMm_WZ2sFC5QimjHP4S-5">
          <mxGeometry width="50" height="50" relative="1" as="geometry">
            <mxPoint x="494" y="124" as="sourcePoint" />
            <mxPoint x="543.4000000000001" y="217.4000000000001" as="targetPoint" />
          </mxGeometry>
        </mxCell>
        <mxCell id="SAMm_WZ2sFC5QimjHP4S-29" value="" style="endArrow=classic;html=1;entryX=0.275;entryY=0.325;entryDx=0;entryDy=0;entryPerimeter=0;exitX=0.169;exitY=0.725;exitDx=0;exitDy=0;exitPerimeter=0;" edge="1" parent="SAMm_WZ2sFC5QimjHP4S-5">
          <mxGeometry width="50" height="50" relative="1" as="geometry">
            <mxPoint x="564.0000000000001" y="219.19999999999993" as="sourcePoint" />
            <mxPoint x="617.6" y="115.99999999999989" as="targetPoint" />
          </mxGeometry>
        </mxCell>
        <mxCell id="SAMm_WZ2sFC5QimjHP4S-11" value="clientA" style="text;html=1;align=center;verticalAlign=middle;resizable=0;points=[];autosize=1;" vertex="1" parent="SAMm_WZ2sFC5QimjHP4S-5">
          <mxGeometry x="84" y="110" width="50" height="20" as="geometry" />
        </mxCell>
        <mxCell id="SAMm_WZ2sFC5QimjHP4S-14" value="set(/a,version01)" style="text;html=1;align=center;verticalAlign=middle;resizable=0;points=[];autosize=1;" vertex="1" parent="SAMm_WZ2sFC5QimjHP4S-5">
          <mxGeometry x="84" y="156" width="110" height="20" as="geometry" />
        </mxCell>
        <mxCell id="SAMm_WZ2sFC5QimjHP4S-16" value="跟新版本为02" style="text;html=1;align=center;verticalAlign=middle;resizable=0;points=[];autosize=1;" vertex="1" parent="SAMm_WZ2sFC5QimjHP4S-5">
          <mxGeometry x="214" y="156" width="90" height="20" as="geometry" />
        </mxCell>
        <mxCell id="SAMm_WZ2sFC5QimjHP4S-28" value="set（/c,version=02）" style="text;html=1;align=center;verticalAlign=middle;resizable=0;points=[];autosize=1;" vertex="1" parent="SAMm_WZ2sFC5QimjHP4S-5">
          <mxGeometry x="414" y="156" width="130" height="20" as="geometry" />
        </mxCell>
        <mxCell id="SAMm_WZ2sFC5QimjHP4S-30" value="版本不对，设置失败" style="text;html=1;align=center;verticalAlign=middle;resizable=0;points=[];autosize=1;" vertex="1" parent="SAMm_WZ2sFC5QimjHP4S-5">
          <mxGeometry x="554" y="166" width="120" height="20" as="geometry" />
        </mxCell>
        <mxCell id="SAMm_WZ2sFC5QimjHP4S-25" value="返回版本为03" style="text;html=1;align=center;verticalAlign=middle;resizable=0;points=[];autosize=1;" vertex="1" parent="SAMm_WZ2sFC5QimjHP4S-5">
          <mxGeometry x="454" y="266" width="90" height="20" as="geometry" />
        </mxCell>
        <mxCell id="SAMm_WZ2sFC5QimjHP4S-22" value="set(/b,version=02)" style="text;html=1;align=center;verticalAlign=middle;resizable=0;points=[];autosize=1;" vertex="1" parent="SAMm_WZ2sFC5QimjHP4S-5">
          <mxGeometry x="344" y="276" width="110" height="20" as="geometry" />
        </mxCell>
        <mxCell id="SAMm_WZ2sFC5QimjHP4S-18" value="获取版本" style="text;html=1;align=center;verticalAlign=middle;resizable=0;points=[];autosize=1;" vertex="1" parent="SAMm_WZ2sFC5QimjHP4S-5">
          <mxGeometry x="204" y="266" width="60" height="20" as="geometry" />
        </mxCell>
        <mxCell id="SAMm_WZ2sFC5QimjHP4S-10" value="zookeeper" style="text;html=1;align=center;verticalAlign=middle;resizable=0;points=[];autosize=1;" vertex="1" parent="SAMm_WZ2sFC5QimjHP4S-5">
          <mxGeometry x="84" y="211" width="70" height="20" as="geometry" />
        </mxCell>
        <mxCell id="SAMm_WZ2sFC5QimjHP4S-31" value="非锁，基于版本比对进行读写" style="text;html=1;align=center;verticalAlign=middle;resizable=0;points=[];autosize=1;" vertex="1" parent="SAMm_WZ2sFC5QimjHP4S-5">
          <mxGeometry x="69" y="50" width="170" height="20" as="geometry" />
        </mxCell>
        <mxCell id="SAMm_WZ2sFC5QimjHP4S-6" value="Text" style="text;html=1;align=center;verticalAlign=middle;resizable=0;points=[];autosize=1;" vertex="1" parent="YiJMnF56RPMD7wd5EbZs-1">
          <mxGeometry x="160" y="250" width="40" height="20" as="geometry" />
        </mxCell>
        <mxCell id="SAMm_WZ2sFC5QimjHP4S-32" value="&lt;div style=&quot;text-align: left ; font-size: 15px&quot;&gt;&lt;font style=&quot;font-size: 15px&quot;&gt;zookeeper实现同步策略的条件：&lt;/font&gt;&lt;/div&gt;&lt;div style=&quot;text-align: left ; font-size: 15px&quot;&gt;&lt;span&gt;&lt;font style=&quot;font-size: 15px&quot;&gt;全局串行化所有操作&lt;/font&gt;&lt;/span&gt;&lt;/div&gt;&lt;div style=&quot;text-align: left ; font-size: 15px&quot;&gt;&lt;font style=&quot;font-size: 15px&quot;&gt;保证同一个客户端的指令被FIFO执行？？&lt;/font&gt;&lt;/div&gt;" style="text;html=1;align=center;verticalAlign=middle;resizable=0;points=[];autosize=1;" vertex="1" parent="YiJMnF56RPMD7wd5EbZs-1">
          <mxGeometry x="20" y="820" width="290" height="50" as="geometry" />
        </mxCell>
        <mxCell id="SAMm_WZ2sFC5QimjHP4S-33" value="&lt;span style=&quot;font-size: 16px&quot;&gt;在写入树前，数据先写入磁盘&lt;/span&gt;" style="text;html=1;align=left;verticalAlign=middle;resizable=0;points=[];autosize=1;" vertex="1" parent="YiJMnF56RPMD7wd5EbZs-1">
          <mxGeometry x="40" y="900" width="220" height="20" as="geometry" />
        </mxCell>
        <mxCell id="SAMm_WZ2sFC5QimjHP4S-34" value="&lt;span style=&quot;color: rgb(51 , 51 , 51) ; font-family: &amp;#34;microsoft yahei&amp;#34; ; font-size: 16px ; letter-spacing: 1px ; background-color: rgb(255 , 255 , 255)&quot;&gt;ZooKeeper使用自定义的原子性消息协议。由于消息传送层是原子性的&lt;/span&gt;" style="text;html=1;align=left;verticalAlign=middle;resizable=0;points=[];autosize=1;" vertex="1" parent="YiJMnF56RPMD7wd5EbZs-1">
          <mxGeometry x="10" y="960" width="550" height="20" as="geometry" />
        </mxCell>
        <mxCell id="SAMm_WZ2sFC5QimjHP4S-36" value="Zookeeper的核心是原子广播机制（zab）" style="swimlane;fillColor=none;gradientColor=none;" vertex="1" parent="YiJMnF56RPMD7wd5EbZs-1">
          <mxGeometry x="100" y="1070" width="1329" height="2590" as="geometry" />
        </mxCell>
        <mxCell id="SAMm_WZ2sFC5QimjHP4S-37" value="广播模式" style="swimlane;fillColor=none;gradientColor=none;" vertex="1" collapsed="1" parent="SAMm_WZ2sFC5QimjHP4S-36">
          <mxGeometry x="73" y="160" width="80" height="23" as="geometry">
            <mxRectangle x="73" y="160" width="697" height="800" as="alternateBounds" />
          </mxGeometry>
        </mxCell>
        <mxCell id="SAMm_WZ2sFC5QimjHP4S-49" style="edgeStyle=orthogonalEdgeStyle;curved=1;orthogonalLoop=1;jettySize=auto;html=1;entryX=0.5;entryY=0;entryDx=0;entryDy=0;" edge="1" parent="SAMm_WZ2sFC5QimjHP4S-37" source="SAMm_WZ2sFC5QimjHP4S-39" target="SAMm_WZ2sFC5QimjHP4S-47">
          <mxGeometry relative="1" as="geometry">
            <Array as="points">
              <mxPoint x="216" y="230" />
              <mxPoint x="216" y="330" />
            </Array>
          </mxGeometry>
        </mxCell>
        <mxCell id="SAMm_WZ2sFC5QimjHP4S-39" value="F1" style="rounded=1;whiteSpace=wrap;html=1;fillColor=none;gradientColor=none;" vertex="1" parent="SAMm_WZ2sFC5QimjHP4S-37">
          <mxGeometry x="36" y="200" width="120" height="60" as="geometry" />
        </mxCell>
        <mxCell id="SAMm_WZ2sFC5QimjHP4S-40" value="L1" style="rounded=1;whiteSpace=wrap;html=1;fillColor=none;gradientColor=none;" vertex="1" parent="SAMm_WZ2sFC5QimjHP4S-37">
          <mxGeometry x="236" y="200" width="120" height="60" as="geometry" />
        </mxCell>
        <mxCell id="SAMm_WZ2sFC5QimjHP4S-41" value="F2" style="rounded=1;whiteSpace=wrap;html=1;fillColor=none;gradientColor=none;" vertex="1" parent="SAMm_WZ2sFC5QimjHP4S-37">
          <mxGeometry x="456" y="200" width="120" height="60" as="geometry" />
        </mxCell>
        <mxCell id="SAMm_WZ2sFC5QimjHP4S-45" value="发送写请求" style="text;html=1;align=center;verticalAlign=middle;resizable=0;points=[];autosize=1;" vertex="1" parent="SAMm_WZ2sFC5QimjHP4S-37">
          <mxGeometry x="66" y="150" width="80" height="20" as="geometry" />
        </mxCell>
        <mxCell id="SAMm_WZ2sFC5QimjHP4S-46" value="F1" style="rounded=1;whiteSpace=wrap;html=1;fillColor=none;gradientColor=none;" vertex="1" parent="SAMm_WZ2sFC5QimjHP4S-37">
          <mxGeometry x="36" y="330" width="120" height="60" as="geometry" />
        </mxCell>
        <mxCell id="SAMm_WZ2sFC5QimjHP4S-54" style="edgeStyle=orthogonalEdgeStyle;curved=1;orthogonalLoop=1;jettySize=auto;html=1;" edge="1" parent="SAMm_WZ2sFC5QimjHP4S-37" source="SAMm_WZ2sFC5QimjHP4S-47" target="SAMm_WZ2sFC5QimjHP4S-51">
          <mxGeometry relative="1" as="geometry">
            <Array as="points">
              <mxPoint x="296" y="440" />
              <mxPoint x="106" y="440" />
            </Array>
          </mxGeometry>
        </mxCell>
        <mxCell id="SAMm_WZ2sFC5QimjHP4S-55" style="edgeStyle=orthogonalEdgeStyle;curved=1;orthogonalLoop=1;jettySize=auto;html=1;" edge="1" parent="SAMm_WZ2sFC5QimjHP4S-37" source="SAMm_WZ2sFC5QimjHP4S-47" target="SAMm_WZ2sFC5QimjHP4S-52">
          <mxGeometry relative="1" as="geometry" />
        </mxCell>
        <mxCell id="SAMm_WZ2sFC5QimjHP4S-56" style="edgeStyle=orthogonalEdgeStyle;curved=1;orthogonalLoop=1;jettySize=auto;html=1;" edge="1" parent="SAMm_WZ2sFC5QimjHP4S-37" source="SAMm_WZ2sFC5QimjHP4S-47" target="SAMm_WZ2sFC5QimjHP4S-53">
          <mxGeometry relative="1" as="geometry">
            <Array as="points">
              <mxPoint x="296" y="430" />
              <mxPoint x="446" y="430" />
              <mxPoint x="446" y="490" />
            </Array>
          </mxGeometry>
        </mxCell>
        <mxCell id="SAMm_WZ2sFC5QimjHP4S-47" value="L1" style="rounded=1;whiteSpace=wrap;html=1;fillColor=none;gradientColor=none;" vertex="1" parent="SAMm_WZ2sFC5QimjHP4S-37">
          <mxGeometry x="236" y="330" width="120" height="60" as="geometry" />
        </mxCell>
        <mxCell id="SAMm_WZ2sFC5QimjHP4S-48" value="F2" style="rounded=1;whiteSpace=wrap;html=1;fillColor=none;gradientColor=none;" vertex="1" parent="SAMm_WZ2sFC5QimjHP4S-37">
          <mxGeometry x="456" y="330" width="120" height="60" as="geometry" />
        </mxCell>
        <mxCell id="SAMm_WZ2sFC5QimjHP4S-61" style="edgeStyle=orthogonalEdgeStyle;curved=1;orthogonalLoop=1;jettySize=auto;html=1;" edge="1" parent="SAMm_WZ2sFC5QimjHP4S-37" source="SAMm_WZ2sFC5QimjHP4S-51" target="SAMm_WZ2sFC5QimjHP4S-59">
          <mxGeometry relative="1" as="geometry" />
        </mxCell>
        <mxCell id="SAMm_WZ2sFC5QimjHP4S-51" value="F1" style="rounded=1;whiteSpace=wrap;html=1;fillColor=none;gradientColor=none;" vertex="1" parent="SAMm_WZ2sFC5QimjHP4S-37">
          <mxGeometry x="46" y="460" width="120" height="60" as="geometry" />
        </mxCell>
        <mxCell id="SAMm_WZ2sFC5QimjHP4S-62" style="edgeStyle=orthogonalEdgeStyle;curved=1;orthogonalLoop=1;jettySize=auto;html=1;" edge="1" parent="SAMm_WZ2sFC5QimjHP4S-37" source="SAMm_WZ2sFC5QimjHP4S-52" target="SAMm_WZ2sFC5QimjHP4S-59">
          <mxGeometry relative="1" as="geometry" />
        </mxCell>
        <mxCell id="SAMm_WZ2sFC5QimjHP4S-52" value="L1" style="rounded=1;whiteSpace=wrap;html=1;fillColor=none;gradientColor=none;" vertex="1" parent="SAMm_WZ2sFC5QimjHP4S-37">
          <mxGeometry x="246" y="460" width="120" height="60" as="geometry" />
        </mxCell>
        <mxCell id="SAMm_WZ2sFC5QimjHP4S-63" style="edgeStyle=orthogonalEdgeStyle;curved=1;orthogonalLoop=1;jettySize=auto;html=1;entryX=0.5;entryY=0;entryDx=0;entryDy=0;" edge="1" parent="SAMm_WZ2sFC5QimjHP4S-37" source="SAMm_WZ2sFC5QimjHP4S-53" target="SAMm_WZ2sFC5QimjHP4S-59">
          <mxGeometry relative="1" as="geometry" />
        </mxCell>
        <mxCell id="SAMm_WZ2sFC5QimjHP4S-53" value="F2" style="rounded=1;whiteSpace=wrap;html=1;fillColor=none;gradientColor=none;" vertex="1" parent="SAMm_WZ2sFC5QimjHP4S-37">
          <mxGeometry x="466" y="460" width="120" height="60" as="geometry" />
        </mxCell>
        <mxCell id="SAMm_WZ2sFC5QimjHP4S-58" value="F1" style="rounded=1;whiteSpace=wrap;html=1;fillColor=none;gradientColor=none;" vertex="1" parent="SAMm_WZ2sFC5QimjHP4S-37">
          <mxGeometry x="46" y="580" width="120" height="60" as="geometry" />
        </mxCell>
        <mxCell id="SAMm_WZ2sFC5QimjHP4S-73" style="edgeStyle=orthogonalEdgeStyle;curved=1;orthogonalLoop=1;jettySize=auto;html=1;" edge="1" parent="SAMm_WZ2sFC5QimjHP4S-37" source="SAMm_WZ2sFC5QimjHP4S-59" target="SAMm_WZ2sFC5QimjHP4S-70">
          <mxGeometry relative="1" as="geometry">
            <Array as="points">
              <mxPoint x="306" y="690" />
              <mxPoint x="106" y="690" />
            </Array>
          </mxGeometry>
        </mxCell>
        <mxCell id="SAMm_WZ2sFC5QimjHP4S-74" style="edgeStyle=orthogonalEdgeStyle;curved=1;orthogonalLoop=1;jettySize=auto;html=1;" edge="1" parent="SAMm_WZ2sFC5QimjHP4S-37" source="SAMm_WZ2sFC5QimjHP4S-59" target="SAMm_WZ2sFC5QimjHP4S-71">
          <mxGeometry relative="1" as="geometry" />
        </mxCell>
        <mxCell id="SAMm_WZ2sFC5QimjHP4S-75" style="edgeStyle=orthogonalEdgeStyle;curved=1;orthogonalLoop=1;jettySize=auto;html=1;" edge="1" parent="SAMm_WZ2sFC5QimjHP4S-37" source="SAMm_WZ2sFC5QimjHP4S-59" target="SAMm_WZ2sFC5QimjHP4S-72">
          <mxGeometry relative="1" as="geometry">
            <Array as="points">
              <mxPoint x="306" y="710" />
              <mxPoint x="526" y="710" />
            </Array>
          </mxGeometry>
        </mxCell>
        <mxCell id="SAMm_WZ2sFC5QimjHP4S-59" value="L1" style="rounded=1;whiteSpace=wrap;html=1;fillColor=none;gradientColor=none;" vertex="1" parent="SAMm_WZ2sFC5QimjHP4S-37">
          <mxGeometry x="246" y="580" width="120" height="60" as="geometry" />
        </mxCell>
        <mxCell id="SAMm_WZ2sFC5QimjHP4S-60" value="F2" style="rounded=1;whiteSpace=wrap;html=1;fillColor=none;gradientColor=none;" vertex="1" parent="SAMm_WZ2sFC5QimjHP4S-37">
          <mxGeometry x="466" y="580" width="120" height="60" as="geometry" />
        </mxCell>
        <mxCell id="SAMm_WZ2sFC5QimjHP4S-70" value="F1" style="rounded=1;whiteSpace=wrap;html=1;fillColor=none;gradientColor=none;" vertex="1" parent="SAMm_WZ2sFC5QimjHP4S-37">
          <mxGeometry x="46" y="720" width="120" height="60" as="geometry" />
        </mxCell>
        <mxCell id="SAMm_WZ2sFC5QimjHP4S-71" value="L1" style="rounded=1;whiteSpace=wrap;html=1;fillColor=none;gradientColor=none;" vertex="1" parent="SAMm_WZ2sFC5QimjHP4S-37">
          <mxGeometry x="246" y="720" width="120" height="60" as="geometry" />
        </mxCell>
        <mxCell id="SAMm_WZ2sFC5QimjHP4S-72" value="F2" style="rounded=1;whiteSpace=wrap;html=1;fillColor=none;gradientColor=none;" vertex="1" parent="SAMm_WZ2sFC5QimjHP4S-37">
          <mxGeometry x="466" y="720" width="120" height="60" as="geometry" />
        </mxCell>
        <mxCell id="SAMm_WZ2sFC5QimjHP4S-43" value="client" style="ellipse;whiteSpace=wrap;html=1;fillColor=none;gradientColor=none;" vertex="1" parent="SAMm_WZ2sFC5QimjHP4S-37">
          <mxGeometry x="46" y="30" width="120" height="80" as="geometry" />
        </mxCell>
        <mxCell id="SAMm_WZ2sFC5QimjHP4S-44" style="edgeStyle=orthogonalEdgeStyle;curved=1;orthogonalLoop=1;jettySize=auto;html=1;entryX=0.5;entryY=0;entryDx=0;entryDy=0;" edge="1" parent="SAMm_WZ2sFC5QimjHP4S-37" source="SAMm_WZ2sFC5QimjHP4S-43" target="SAMm_WZ2sFC5QimjHP4S-39">
          <mxGeometry relative="1" as="geometry" />
        </mxCell>
        <mxCell id="SAMm_WZ2sFC5QimjHP4S-50" value="发送请求到L1" style="text;html=1;align=center;verticalAlign=middle;resizable=0;points=[];autosize=1;" vertex="1" parent="SAMm_WZ2sFC5QimjHP4S-37">
          <mxGeometry x="146" y="280" width="90" height="20" as="geometry" />
        </mxCell>
        <mxCell id="SAMm_WZ2sFC5QimjHP4S-57" value="将该写请求发送到全部节点，进行投票" style="text;html=1;align=center;verticalAlign=middle;resizable=0;points=[];autosize=1;" vertex="1" parent="SAMm_WZ2sFC5QimjHP4S-37">
          <mxGeometry x="217" y="390" width="220" height="20" as="geometry" />
        </mxCell>
        <mxCell id="SAMm_WZ2sFC5QimjHP4S-78" value="这里会为投票分配一个zxid" style="text;html=1;align=center;verticalAlign=middle;resizable=0;points=[];autosize=1;" vertex="1" parent="SAMm_WZ2sFC5QimjHP4S-37">
          <mxGeometry x="417" y="420" width="160" height="20" as="geometry" />
        </mxCell>
        <mxCell id="SAMm_WZ2sFC5QimjHP4S-64" value="获取投票结果&amp;nbsp; &amp;nbsp; ack" style="text;html=1;align=center;verticalAlign=middle;resizable=0;points=[];autosize=1;" vertex="1" parent="SAMm_WZ2sFC5QimjHP4S-37">
          <mxGeometry x="277" y="540" width="120" height="20" as="geometry" />
        </mxCell>
        <mxCell id="SAMm_WZ2sFC5QimjHP4S-76" value="如果有超过半数投票，则提交该写请求到所有节点上" style="text;html=1;align=center;verticalAlign=middle;resizable=0;points=[];autosize=1;" vertex="1" parent="SAMm_WZ2sFC5QimjHP4S-37">
          <mxGeometry x="203.5" y="660" width="290" height="20" as="geometry" />
        </mxCell>
        <mxCell id="SAMm_WZ2sFC5QimjHP4S-79" value="恢复模式" style="swimlane;fillColor=none;gradientColor=none;" vertex="1" parent="SAMm_WZ2sFC5QimjHP4S-36">
          <mxGeometry x="130" y="170" width="1000" height="800" as="geometry" />
        </mxCell>
        <mxCell id="SAMm_WZ2sFC5QimjHP4S-80" value="&lt;span style=&quot;color: rgb(0 , 0 , 255) ; font-family: &amp;#34;microsoft yahei&amp;#34; ; font-size: 16px ; letter-spacing: 1px ; text-align: justify ; background-color: rgb(255 , 255 , 255)&quot;&gt;zxid = epoch(标志leader)+counter&amp;nbsp; &amp;nbsp; leader标志主要区分不同任期的leader&lt;/span&gt;" style="text;html=1;align=center;verticalAlign=middle;resizable=0;points=[];autosize=1;" vertex="1" parent="SAMm_WZ2sFC5QimjHP4S-79">
          <mxGeometry x="80" y="60" width="620" height="20" as="geometry" />
        </mxCell>
        <mxCell id="SAMm_WZ2sFC5QimjHP4S-88" value="&lt;p style=&quot;margin: 8px 15px 8px 24pt ; padding: 0px ; letter-spacing: 1px ; text-align: justify ; line-height: 1.6 ; word-break: break-all ; overflow-wrap: break-word ; font-family: &amp;#34;microsoft yahei&amp;#34; ; color: rgb(51 , 51 , 51) ; background-color: rgb(255 , 255 , 255)&quot;&gt;&lt;span style=&quot;margin: 0px ; padding: 0px ; line-height: 1.8&quot;&gt;&lt;font style=&quot;font-size: 12px&quot;&gt;(a) Zab要保证同一个leader的发起的事务要按顺序被apply，同时还要保证只有先前的leader的所有事务都被apply之后，新选的leader才能在发起事务。&lt;/font&gt;&lt;/span&gt;&lt;/p&gt;&lt;p style=&quot;margin: 8px 15px 8px 24pt ; padding: 0px ; letter-spacing: 1px ; text-align: justify ; line-height: 1.6 ; word-break: break-all ; overflow-wrap: break-word ; font-family: &amp;#34;microsoft yahei&amp;#34; ; color: rgb(51 , 51 , 51) ; background-color: rgb(255 , 255 , 255)&quot;&gt;&lt;span style=&quot;margin: 0px ; padding: 0px ; line-height: 1.8&quot;&gt;&lt;font style=&quot;font-size: 12px&quot;&gt;(b) 一些已经Skip的消息，需要仍然被Skip。&lt;/font&gt;&lt;/span&gt;&lt;/p&gt;" style="text;html=1;align=center;verticalAlign=middle;resizable=0;points=[];autosize=1;" vertex="1" parent="SAMm_WZ2sFC5QimjHP4S-79">
          <mxGeometry y="110" width="960" height="70" as="geometry" />
        </mxCell>
        <mxCell id="SAMm_WZ2sFC5QimjHP4S-89" value="" style="shape=image;verticalLabelPosition=bottom;labelBackgroundColor=#ffffff;verticalAlign=top;aspect=fixed;imageAspect=0;image=data:image/png,iVBORw0KGgoAAAANSUhEUgAAAggAAAEKCAYAAAB33K31AAAgAElEQVR4XuxdB1hUV9p+hypdEERRsDcUVBRFsGKsSdSoaZted5NNz2b33yS72X+T/Cmbze4m2U3bNFPUGNNMYo0tFmxIEQUVVIoKCgjSy8z/vGe4OtQZkAEGvvPII8yce8657zn3nPd+VWcwGAyQIggIAoKAICAICAKCgAkCOiEIsh4EAUFAEBAEBAFBoC4CQhBkTQgCgoAgIAgIAoJAPQSEIMiiEAQEAUFAEBAEBAEhCLIGBAFBQBAQBAQBQcA8AiJBMI+R1BAEBAFBQBAQBLocAkIQutyUyw0LAoKAICAICALmERCCYB4jqSEICAKCgCAgCHQ5BIQgdLkplxsWBAQBQUAQEATMIyAEwTxGUkMQEAQEAUFAEOhyCAhB6HJTLjcsCAgCgoAgIAiYR0AIgnmMpIYgIAgIAoKAINDlEBCC0OWmXG5YEBAEBAFBQBAwj4AQBPMYSQ1BQBAQBAQBQaDLISAEoctNudywICAICAKCgCBgHgEhCOYxkhqCgCAgCAgCgkCXQ0AIQpebcrlhQUAQEAQEAUHAPAJCEMxjJDUEAUFAEBAEBIEuh4AQhC435XLDgoAgIAgIAoKAeQSEIJjHSGoIAoKAICAICAJdDgEhCF1uyuWGBQFBQBAQBAQB8wgIQTCPkdQQBAQBQUAQEAS6HAJCELrclMsNCwKCgCAgCAgC5hEQgmAeI6khCAgCgoAgIAh0OQSEIHS5KZcbFgQEAUFAEBAEzCMgBME8RlJDEBAEBAFBQBDocggIQehyUy43LAh0fAQyT6ajV/8gOABIidsBtwER6OvFv6QIAoJAWyEgBKGtkJZ+ugwCzz98Ncp7hKvD7Wj8YQSODobLpbuvwr5cZ/z45p8axIOH4dGMfLj1GoTo8OAmMTu87yAGhI81adtYvaogE0lnnTF6mF+j15eeS8GmmKPq+4irroXf5QG24TxVYe/mtcguBoKGRtQab8L6z/DlzlI89af7sPKluxF6/4eI6FV/aLyPxBw3TBjZt1XHHfPe89iIWfjT/RGt2q40JgjYEgJCEGxptmSsNoHA8395Ak/+5XVUZu7GHQ+/hdtuuQlOzsahR1w1Ey+98ne8/pf6BKEkZS3ufWMrhvq54Gj8Toy9+1946tr6JOHwvnV48bW/Iyc1EJ/t/xD+NaiQGHz41itYtTUZU69/vtHD7VzCOtzy5LuIjBpNOoFy9yC89Lv72xzbmPdex8r0Qng5VGHf5r34/RffYVrfy0zlTMJ+YNh4fPP8/Yh47D2E+dYfYvae9/DKrkC8/vi8Vh2/EIRWhVMas1EEhCDY6MTJsDsuAiQI9957L/775mvwGHsfHrtpEs6lbMfz/7sLz3/xCP73Lw0TBNM7St/+H/zzwIAGD74Ny7/BxJsj8fj4P+IlE4JQcSYBa1Pc4H/0iybfftf+4wmkhj6Eh2YObADEy2/1QyOuwrAa0QIlG+gTjHMxO9F/6iycPrARAyZpkgdesx3DpkTDyxG4JJ1w88e86AlKkgKUYseaAwiO8MPOxAKTz41D+OrVh5A37U+4f6I/ziRswLtf77o0tvidW9B/4gxoGoasw/uw+PlVmDfMFU0RBE0a4z9wbC0Jw+F9m5F6trielIYEa+32g4CbP7yPr8cWUwlC6Tms2RQDwA1T5xrv09w9ddwVKiMTBCxDQAiCZThJLUHAYgRIEMaNnYuohbNx6ts38P6uLGTn++P995+AF0rwRBMEQTu8ftm4HLf+8WOE9nZqpN9s3F2HIGgVzb39pq79L55cfQT/+9T/1FFDVOGDP9yBWAyBn0sV9sWfwJsff4KBXg547693Y9v57hjg44kbfv00DvznHhRGPodH5w1G6fGfsOCNJGx84ymUntuHe+/8G4aEB6P03FHkBSzF+88sBsDx/hrd5w2Dp98YPP3IzXBSpGET8svP4Kf1RXhZ4VOnVJ7D/Y/8HW+9/TI0JEhwMP+FJgnCvq9fxN/WnkdwHy8ljVn6xy+weIIfKKV59J2d6OPloD6f99jHuG1aH6WWeeDOW+A+cga8UID4vUkIW/pXoxSm9Bzuu+9O+A8Oh0PpOcTlBmD5f5+BS4P3ZPEykYqCQIdHQAhCh58iGaCtIUCCED1rBrKTspFwOhO3Pf409n7yf0it6I7IaVH44cd1DaoYeJ8blr+BXSl5OLwvHrc+/yYWhDWmW285QWA/CeuX4+V3PoTbwKvx3J8fUgaAPOgXPrcWD980W0GeuH4Fut/wEh6cGqQIQsGIJ/DU9aPUdwWHVuGOZafx7auP4qd//R4n+9+DBxcOw4oX7sc+j2mYPtATQCE+eHM3PtnwFrzUYXornvh5I0ZdYgEF+OAv/0AGSrEzPg9vvffGJYmFNucFSWvwp5/KENnzPMbOv1N9z7FoNgkNShBIKq6+D9MevgdqFGlbsbt8Et76/dKaZo1SkrjdG5DsOl9JaRK++hs+yR6Kv/92oarz85v/g13OixRB2L/iRby7zw0Lpg9S333/4Zt4+KMNCO3e0D3Z2mqV8QoCjSMgBEFWhyDQyghoNgiuqMDyN/4PGTpfjOgfXCOablqCcGko52Mx7Q8/YtsHDRszGt/Ia6sYLJUgmN5uwo/v4LnvcrHqvWeQu+c93PryVkSNHnqpSuTiX2N2aG91KGPOS0oFYCwFeGTWHXhk9Sd468GH8OQHnyLQGfjnk9chST9SvaEbSyAe/8s9NQSh4fGyVtrPb+GthEF1VCqUaDyGkMdexwSfXDz33Du4749/wvd/e/CSTUKDBKE4GdfNexIjo42GomoUY6fjnoXTkbjubTy/+qiSLBRkHYYu+C7VJ6USKcPvx2Pzhqv6plIYfvfRYYO6Riu3Pf4XDPJqfA5aeUlJc4JAuyAgBKFdYJdOOzMCRoLwEla89DTOu4VjQmgvwLMXpofx8GmcIOSdTIdj3yB4OAAnY1bg7s/Ssfmt3zcCVcsJwsnkI+gxeITq52L2Adx580f4YPNbcMnahXmPfoYP33sd/X26wXQ89QkCsO39Z7D1ojfOVfbFW3+4SY1z9RuPYZfjXLz6wFzYoxrppzIQ1K9/jYqhNkFITU/HoKAgANVY9/bv8YvDArx437RL95u9fzWe3VSB9//nZvVZeVYskjASm195HNe9+h8M6oZGbBAu4LE5d2Hu6+9g7kh/VF/MRkall7onEpih9y3D/OGOWPH0E9jrd61RgrDiVby21wP/fvUBeFTl4enH74PL2KeUBOHw6jfx8k4H43cOwOVxC0HozM+x3BsgBEFWgSDQyghcliBcbjjzwBp8lgD8z10zG7VBSFm/DA888wYKAfTqF4q/vvE2wvo4A3wjnvYq3jExSLwSCcL6la/hlb+tUP2QuDz42F9x94IwNVjT73r1i8Y7n7+Kvt3QgAQBKD+1DVcteRaPLVuDJcHdjTdbloln7n0I65MzAbhgyePP4o+3zGmQIHz7xuN4Ydkv6rIR427Fm+8+hppWkHdyD/785Dq8sPq5S58Z2z+D39zzCl7+/J/qc0oQrv7te5eADl1wPz788/0g3g89/Soyc0vh0qMvnn3zY8wZ2h2xX7+BR/9vGUo9e+H2haNxUj+5RmpxAS/deidWJ2eq+pP6d4fHuN/UeIKU4/1n7sW7648Yx7rkSXz6R5IWIQit/OhIcx0MASEIHWxCZDi2j8DzD81BrvMo2Dd4K9U4VN4D699qTHVg+/d/pXeQnbQOz/39EF7+8HeXyMH6lW9iw96TqunZv/6TOuylCAKCgHUREIJgXXyldUFAEBAEBAFBwCYREIJgk9MmgxYEBAFBQBAQBKyLgBAE6+IrrQsCgoAgIAgIAjaJgBAEm5w2GbQgIAgIAoKAIGBdBIQgWBdfaV0QEAQEAUFAELBJBIQg2OS0yaAFAUFAEBAEBAHrIiAEwbr4SuuCgCAgCAgCgoBNIiAEwSanTQYtCAgCgoAgIAhYFwEhCNbFV1oXBAQBQUAQEARsEgEhCDY5bTJoQUAQEAQEAUHAuggIQbAuvtK6ICAICAKCgCBgkwgIQbDJaZNBCwKCgCAgCAgC1kVACIJ18ZXWBQFBQBAQBAQBm0RACIJNTpsMWhAQBAQB20XAYDCowVdWVsLBwQF2dnb1bkaro9PpbPdGbXzkQhBsfAJl+IKAICAI2BICFRUVyM7ORrdu3bBs2TIsXrwY/fv3BwlBWVmZ+py/l5SUID8/H76+vnBxcYEQhbafZSEIbY+59CgICAKCQJdDoKqqCsePH8eOHTtgb2+PwYMH44UXXsCNN96IW2+9FXq9Hh999BFmz56N4uJiVZdEIScnB+Hh4Rg1apQiD1LaDgEhCG2HtfQkCAgCgkCXReDw4cN45ZVX8Otf/xoTJkwAJQkvvfQSHnroIfj7+ytcVq5cicLCQvX7yJEjMWnSJBw9elTVo6RhwYIFXRa/9rhxIQjtgbr0KQgIAoJAF0OgtLQUsbGx2L17N3r16oVZs2bhtddewwMPPIC+ffsqwnDx4kU8//zz6NGjB373u99h586diI+Px5gxYxRZ6N69exdDrX1vVwhC++IvvQsCHRIBinvPnz8Pd3d3pRcuLy9XOmAalXHzdnV1bdG4xfCsRbB1qotIFBISEjBkyBAlMaCRIqUFSUlJuOuuu/Dvf/9bSRQWLlyIgwcPYtiwYfDx8REbhHZYBUIQ2gF06VIQ6OgI8G3uww8/VG9tu3btUoZinp6e2LRpk9q4qROmKJgbN/XJlpY9e/bAz88PAwYMkA3fUtA6aT2SRa4zks+NGzdi+PDhiijwbxZnZ+dOeue2c1tCEGxnrmSkgkCbIUCDsuXLl2PcuHHYsmWL0v96eXnh/fffx9ixY5VkgW96L7/8sjrwWZ+SBr4NOjk5KUkDfxwdHWv9/cwzzyjSsWTJEnUQ0L2NBwHrUmpBssHrpXRuBDjXtC2gyqBnz56gVIGeClwP/J3fBQcHq/Ujpf0QEILQfthLz4JAh0VAIwjjx4/H+vXrlc6YEoS1a9fi+uuvV9bkNBx75513FEFYvXo1NmzYgICAANx999347rvvlHiY7muPP/44Pv74Y1B6cObMGTz44IPw9vbGl19+qUgHddBff/01Tp06hcjISNx0000dFhcZWOsgcPbsWcTFxWHmzJkNkoD9+/erz0NCQhqMkdA6o5BWzCEgBMEcQvK9INAFEagrQZg/f746zOmGRvUCCQKlB2+//bZ6+6eb2pw5c5SomAc+VRIxMTH45ptv8Prrr+Ovf/0rnn76abz33nvKOI2654kTJ2Lfvn1KZUFyERgYiD/84Q/o3bt3F0S869wy1wuND2mDQELZUHwDujnSHTIsLEwRUCntg4AQhPbBXXoVBDo0AtXV1ZdUDLQ7oG86JQgMbEMVAQkCrc1phU498j333IOlS5cqYkCpwd///nelU+ZB8OKLL6p67777rvJ7J8GgfQMJRZ8+fTB69Gi8+uqr6u/77ruvQ+Mig7syBKhaoLsj1VFUXzUW/Ij2CVlZWTh27BiioqJE7XRlsLf4aiEILYZOLhQEOi8CfMv75JNPMHnyZKUu4Fuch4eHMlK87bbb1O+/+c1v1P8MdMONPCUlRUkBqCKgvzvVCKdPn8Z//vMfRQyoXqDYmCSA9bdv366s1X/7298q8jBlyhT86le/6rygyp0hNzcXe/fuxdSpU+Hm5tYkIiQJBw4cUPYu9GSQSIptv4CEILQ95tKjINDhEaCK4cSJE0rcz4OdUgEaEPJ3kgJKEBgul5IGGprx4Gd9fk6SwIOgoKBAkQSSC/5+7tw59TcPBrbF+tz0+/XrpyLn8VoeBlI6JwKUNFHtxPkOCgqy6MBnXAR60TCwEteZkIS2XRtCENoWb+lNEBAEBIEuhwClAZQwkSjS9qQ55eTJk0hLS1MSJvFqaA5yV15XCMKVYygtCALthgDfyhirngaEDWXEa7eBdaCOeShR6sEfKe2DwIULF5T0gPYEzZ0H2i1QLcEAXTRslNJ2CAhBaDuspSdBoNURSE1NxbPPPqsCD1F0K+UyAhRHazpvGlFec801Ak87IKB5LXB9cp22pDAoFwlGRESEMpaV0jYICEFoG5ylF0HAKggUFRUp90ESBRoLamlzrdKZDTVKcsB0wYy1QFsJGlRee+21NnQHnWeoXJucA6oWmhN10xQBqihos5KZmaliZTAglxTrIyAEwfoYSw+CgNUQoLvYBx98gMTERKVqYBAjiSMAZTzJmAz0luBbJ5P9MP6ClLZDgG6KLEeOHFFGhlf65k9JBKUIDNrFaJs0hhW1mnXnUwiCdfGV1gUBqyJAgvDZZ59dikzIcLU33HCDClvbVQulB0wGtGbNGjDAEw8U6q8Zy0FK2yHwxRdf4JdffsH999+P0NDQFksPtBHTFoEkmMG6GI6ZYbslX4N151MIgnXxldYFAasiQILw6aefKtUC9e1fffWVkiBQnN4Si2+6NzJ2Aa9ljIIreUNjroX8/HzVTlu5p7EfiqFXrVqlAjVRasCwvoz3LwTBqkuxVuM8zN98800VQ4NxMxgbg6SVn1NdwHXV1JpgHf6wPgvXNtUTycnJ+Oc//6myiTKKJ9ukhwPnl5+xPtduW623tkO0fXoSgtA+uEuvgkCrIKARBBqA8W2KG+i3334L5lCYNm1as9/atm7dquIVDBo0SL318U2NfTBrI0W81Otzo9aC3JBQsGgxDzTdPzd3hlGOjY3FE0880SKy0hKAOF7aHbBQksJDg4RBCEJL0DR/Dec/Pj5erRPOObMxcq2QHDLMNo0LSVY1tRfVDfRooD1CU+STbTHmRnp6umqXa4kxNLguGYKZtjePPfaY+o75QKhGIjng51dffbVEXjQ/dRbVEIJgEUxSSRDomAiYEgRNYsBDmQmW+MbMsMbaW5gld0CR8PHjx1V+BB721OPThZIiegYzIgHhJs3PeBDQcIyfUydM4sDY+tzAZ8yYoUT7PKzvuOOONtmwaXfAZFJ8o+QbK0kBC3XhQhAsmf3m19E8FHjoM7/Go48+qkJncy2STJKccZ1w/fDw5vqiwSITepkzWCT5SEpKUga4nEO2QbdeSoZoU8I+GGkxLy9PBVFiPRKFgQMHigSh+VPZ4BVCEFoJSGlGEGgPBBoiCHyrYopmZsvj21tzfMd5yDLVLo3BmCeBmy7VF/RdJ2HgQcsN/+eff1afkRBs3rwZQ4cOVUSEbmzcuEeMGKGkCitWrMCdd97ZJhIEHhYMBU13xlGjRqm3SyEI1l+V2npjjgXm01i3bp2SPlF6wDXRt29fZSxKcnn+/HmVLpxrwhxB4MiZAZTXUk1EgkDJBKVjzONAqQWJCduhmo3qBs49VVokrFeiHrM+arbRgxAE25gnGaUg0CACJAhMoEQVg6nNAQ966n8Zhe6WW25Rb/PagdkYlFq0O/7PdLuaXQOTMzEEMt/mSBDYF3X8VEXQtZKZGBnljnVov8D/GUqXkfM4BtbhNdbSC7NdiqIpreDhQ+mFaV98++ShITYI1nmIiC/zbVB6wEOceTUoefrb3/6m/ufao5fNU089pdYKJQiMS9EUQeAapLTg0KFDimiQfJCYUipBdQXVZ1zjTBFOKQXbZOZHpg0nKbn33nvVGpRyZQgIQbgy/ORqQaBdEWiMIHBQjGPPDZMb6ZIlS5RawFyhuJabLjd1/nDz5VsayQLfyOh/TlsHfsa+WYdvhSQG/F3Ls8A3uIyMDLW5U/zLt0hrEAS2SUNIkgPqqBctWlRPWiEEwdyst/x7qhhoLEiXw5kzZyoS+t///ldJC+i9QHUXyRkjITIpFwkDpQA8wJsiCDzkqSqi5EDzSiFB4Prkd1SBcb6p4iI5JHklSWXehrlz5yqJlsRKaPm8alcKQbhyDKUFQaDdEGiKIGiRBKkb5pvdggULVEIkc4VEQLNbYBv8aciOgZ9rUgnTa7T2NRGvZpFurt+WfM/D5vvvv1ckhXYHPETqSkqEILQEWcuu4Rv9c889d8kGhTYA/Ix2AnQ11aRJJJ1UeVHKxTd9SnMsUQGQZJLoUuVF2xdeQ7JJVRbnmfYvzApKuwP2RdUXSaIlZNiyO+zatYQgdO35l7u3cQSoh2VaZr7BNfTGxA2VmzMlCbQwj46Otmhj7uiwaMSFRm98O6WEhFKOukSG9SjdoFia+nEprYsAD2mSVA13rkFNMsC3edqikLSxsJ7mgmipCy7bpQ0CVVq33367sovRXCQpxaLqgXNLKRVdfKlWIPmwhrSqdZGzjdaEINjGPMkoBYEGEeCb85///Gf1JtWUyJZ+5HwToxqAxlzm7BFsAW6KtymCplSEthGN3ROxobEmbTHk4GibmeXc0GCUERQpvbqSwnlleyQfplIHfkb1mSYVI1nWvGmupD+59jICQhBkNQgCNowADz8aiFGk2pTOlRsrvRPoT85Ne/DgwTZLEngvNEqjPptvqBRZN0YOSAgYfY9eDfSPl9I2CPDwprifa02TILRNz9JLayIgBKE10ZS2BIE2RkBzc6RolW9PTRVu2jxUaUC2dOlS5Vlgi5IEkiLN+HLx4sVmY/xLHIQ2XpSAeuMXgtD2uLd2j0IQWhtRaU8QaEMENCNF2iCYIwgcFg3IGOGO/1Nvb2tvdxQp08+e7pt0n/Tz8zNLckgQqFoRN8e2W5hCENoOa2v2JATBmuhK24KAlRFoLkHgcGiLwABG1N0y+6Mt2SQwcM62bduUR0ZwcLBFUSKFIFh5ETbQvBCEtsfcGj0KQbAGqtKmINBGCLSEIFAvT/cxiunpLsY3646eFY92Bwy8RJdGutJFRkZabHAoBKGNFqNJN0IQ2h5za/QoBMEaqEqbgkAbIdASgsChkSTwwCVJiIqKwtSpU82K6tvolup1o8VzYPpgurkxSI4lPvRaQ0IQ2n7mhCC0PebW6FEIgjVQlTYFgTZCgASBcRBopGipb7np0BhDYOfOnSotMi39O1ohOaD72urVq1XoXRpXenp6NovMkCDQV15sENpudoUgtB3W1uxJCII10ZW2BQErI6ARBEuNFOsOh14MjI/PmPc8fBlsqCN5NjBQDq3hGZWPRom8z+aOTwiClRdhA82TIDCJF7OJMiSyxJ9o+zlojR6FILQGitKGINBOCNQlCCrCYDPGwvpl5eUqqZKWfMnX17fZh3AzurS4KsfGDI08aObPn68iQTaXHLC+EASLIW+VivQ0YZyK3bt3K6kUSWdHt3FplRvvhI0IQeiEkyq31HUQMFUxODk6IOlEOlIvlAF29haBYF9RBh9DFcorqnHwwB54uDtjZEgYHBxdgJp0yRY11FAlMhVjxuXaRWMwDX1XU5PkoKDgvBpTD78+GDUqlIYTDbfXQBcGGODu6oBhQwfjzJkzomJo8SQ2/0ISBKqEPv/8c4wZMwZPPPGE5EZoPowd4gohCB1iGmQQgkDLEKhFEOzt8N/9x7Gy7xwYnFyNB6oqBuPBqv6sObVr/u6RnoBbis6gX78QXMw/jd0/f4Duvv0wNvJ6ODo4qcs0nqA1p/5uSkxhAOzUWW7sq1Z9/qEOev5vHA//44++hjCQHBQVnsOezR/Cy6c3wqJuhJ29U+12zMGlNyDvdAymTByKnJxzQhCawItSFia9MjX8rKqqUm6wWqItUxUBv+PftHmhXQh/167VonkyC+izzz6rwltPnz5dte/q6lqrDy2lM9sx7ZtqJdOcGuyDY2mOYaq55SHfW4aAEATLcJJagkCHRKCWkaK9HT4+eBLLA+dB7+AIHNoJFOUDA0KBgEFAVQVwdD/QeyDg3Usd1L6n4nC7IgihMBj0yM5MRuyOzxE0eAJ8egfD1dUDXt491b0XXcyHk7MrHB2dGxENGCHSG/TIOpWC6uoq9PDtDc/uzJOgv4Rf/P6fEdh/BHx79lUHUEV5KbIyjqHfwFEqn0RlRRn2b1uGgoIcBA6Kgou7N/r0HQKnbq61VAzGbJI1BKjO7PDj/IxdmDR+oBJ3BwQEiJFiIyuYB/BPP/2kwm9T2sJsiVTt0FuECZGYTpu5PJjKu6ioSKkLGNqbcShoH6IlCmNSLLqgcg4LCgqwfPlyZX/AiJ1My8x8GMy4yP6YgIlrNz4+XoXLptQhJCRE1WdKZ86ZWkt6vXLJpacNjVOltC0CQhDaFm/pTRBoVQRq2SBoBKHPHOjLy4DVrwMjJgBH9gDXPghkHQO2fAHMugMYGaXG4ZsRj9uKcxRB4GZcVlqE9OMxOBq/AXDyRmlZNabPuU2Rgy3rlmHarF9h8PDxTdoCVFVWIDZmLSoqyjBkRDj8SU5qdA0lxYXYtuEzzJh7O+zs7KGzs0NxUQG2rF2GhTc+pkhFStxanE5PwOiIG5B8OFa9oY6dOBcenkz6YxQzkHCUlhTDxdW9QQM4vd6AC6d3I1IIgtn1xrf79evXY+LEiTh48KAyLNyxYwfmzZunPEgY2pqpmplSOTU1VakNmICJ361ZswaTJk1SRKKwsFAF4eJBz++3bNmijF+HDRumxqAZwI4fP15FwmRd9keiwTGMGzdOzSX707J1kkByXZJAMCGXJkUQo0ez09oqFYQgtAqM0ogg0D4I1CMIsSexPOAq6MtLgC3LgWseAL7+JzBpARA0HNi4DOg1oIYgGOCbkYhbS84hoM8IpBzahbSjBzFy9FQk7FkNV2c7wMkX3n4DMDp8Frau/xRBA0ZiaPCkWhKBunfOw7sgPwcVFaXw7hEAR6duSqVgZ++A1JT9yDuXhf6DR2Pn5hUgYZgcfTMSYjchJGwmDh34AajMR+jE6xE4KByZ6Ufg6uYJLy8/db0yUtQB+uoq7N/9k5I2hI6bCc/ufjDoL0spSCQKTscgKnwQzooEocnFyTVEI1Ue9LGxsSrBEtNoX3fddepvYs6smQyqRdUB1Qg8zCltYL2bbrpJHfBUPcTExGDRokWKPNCFlgSB0htKJ3gtyQUPfKYgpySBBGH06NFKSsEYF8OHD1f1NCnDkI0tUcEAACAASURBVCFDlHqB7VMSwfYYs8OSsOLt80R2rl6FIHSu+ZS76WII1CcIJ7C8VzT0FWXAileAnkGAly8QtRDo5lZDEAYCwZPU27hv5iEszj2FY4n74N97AEaFReNC3lns2/EtgoL6IPXwTgQNm4EJU6/HpjXvo0+/4RgaHHFJgtCgnaEm9teMCmvsFex0OuzasgoDho1TfWWcSMSx5H0ImzAPa7/9D5zsDejmWI6hITMxOGQ2dLBTY1SqhAbmlZ9nnjyMvTu/R8i4aAwZPuHyuAwGXDwTg8kThCCYeyTovfLtt98qYpCUlITQ0FB1cNOtlASBhQc6XRepXuDhzcyYTDV+/PhxdcCTGFBCwBwfjHJJQpGYmKj+p/cJpQKUGlDNQFUF1QhMHMY5ZAwPXkcJRvfu3XH48GHlecJC6QLJA6UQ7J+fU5LRVOZSc/cr31uOgBAEy7GSmoJAh0OgHkE4kIblPadDX1ECbF8NLH4UqKoy2h/wwN74iVGCEDIZgB18sw7hpuI8oMoOSfFb4R8wEH2ChiNu33pEz7sLeze/A4O+EuEzHsCurasQEGgkCFQFGMW8ljlVsmpJcQH271yDqOgb1Vvkzp+XIyzyGqVq+OHLV+HpWg3/viMQNvlOIylowsuBxCH7TBri966Ht28AQsNmopurx6Vr6MVQlB2DKRMGiwTBzKrlWzkP30GDBmH//v1KOrB9+3bMmTNH/U17An7Gw57SgK1bt2LmzJlK3E9iMGXKFHXYM3EWJQVMAEZpAj/jtXzzp/qBtgR33323ki5s2rRJSQqYMIx2DCQctDEg+aBbK9UQJCmUavBvSgzmzp2riAbtH8RgsW22IiEIbYOz9CIIWAWBugTho/2pWNFzKvTV1UDyXmD0dMDOjtZeQNIO4NhBgCL/iGsAv0D4ZiXippIL6Bs4WtkfnM06CndPX6Qd3a/UBPY6Pez0uWBzufklcHbxRGT0zTiWtBvDR0+Bt09vUN9vrpAgJCf+osY1Kmwm0tMSsGvrSvj5D8DQEeE4EvsVHByc4ODaB1HRtynbhMYIAilJdXUF0tMS0cMvEJ7e/jVeECbjMBhQfE4Igrl5ITGgQSJF+ZQOUIJAkT4P5QcffFBJEHhw83seyjk5OergZ5ptqh4Y64CqB7ZDKQONDJn8i6QgLS3tkm0C26BKggaNY8eOVdIHGjFSokCpwdq1a5WxIn8oHUhPT1dZRx955BE1Lko5aOBIMkODxZZEDTWHhXxfHwEhCLIqBAEbRkAjCLQ8d7K3AwnCSt8p0Du7Avb2RumBVhycjJ+xVJYr0tDj9GHcWFaAgL4hSodP90RKBQzQ4+KF83B1646LFzKRsGsZfHoNx8CRc6HXV+Nw3GaETboWDg7ODYr/60Jq0Fdj7y+rMSJkKrr36IWqqkplxKivrsTJwxuRd+44RkfeiW6uPnBwdILOTBwHJbsgidDrG+yfh1epIgiDkJ2TI14MjaxxGv9pboSswr+JHY0OaWjIN3Z6JdBFkYV1KRWgtIB1+T0Pa0qEWI//m7o/8joaI1KtQBJB6QEJAduhmkEzPOR1mmGi1g9JAdN0s10p7YOAEIT2wV16FQRaBYG6BGFZzBF85RoCg3JFNFN0OnTPPo6ry4vg32tYPcNDo5ifNgB2yM6Iw8kjP2NA8Ez4BYQokkCjQcuLAdWVlbCn+2VNQAXaJJzNiMOp5C0YOHIO/AKCob/S4Ew1AzLoDaguSkJ0VLAQBMsnSWoKArUQEIIgC0IQsGEENIJAC3DqaTNOn8H5iyXq7dqiUl0JZ5oDqsO+cVUBwxmdPHEMsbEHMWbMOAwcPKjZYY9Nx2MHHVJPpCHu4AGMCxuL/v0Ho2FZgEV3Ub+SwQB3N1cEBvZRum6Jg9A0jlpAJKoR6r7NN3VlQ4GUxAWxhWu2A14mBKEDTooMSRCwFIG6BMHUf9ySNjQpgbm6rEcR8Q8//KAsyWnhTjFzc3MjsB8tffPKlSvVwU0DNYqlW9KWuXGzTQbwEYLQOFJavgoaEdLjgHYI/v7+6of2BE0ZBNL9cM+ePcqTgTjT0LE1XBBJUjguUS+YW+HW/V4IgnXxldYFAasiUJcgWLUzQOmQaTzGg6ElqZdVGOWiInz99dfq4KGvvabfttbYhSA0jSzndNu2bYr40eCQNgP8jJ4E/LupQ5oREY8cOaLcEGnsqAVFImG4EldERlKkkSMjM4pEwlpPhvl2hSCYx0hqCAIdFgFTgtAWlt2aJftXX32lDMgYbU+L2W8OJG70NE6jxTrF/jfccIMyUjONu2+ujeZ+zz558FEFM3v27OZe3iXqkwxwPuhlQPJGbwH+HhYWpiQCNEQ0nSMaJ2qBjeiJwPgHdD0kkWAMA7o5Mv8C3SJ79+6tvBvYBtuiuyM9GFiXnhE0RGQ9Siu4Fhipke1zTdHVkh4PJCk0bBSi0PbLUQhC22MuPQoCrYZAXYJgagneap000BBj6zNjH/3jo6OjLVYPMPIeRdKUHPDAsFbR1BWaikEIQtMqhoSEBKSkpCgPBUqHeGBPnjwZTP2tRTbUWmCMAx74VNswJDOJBN0fGdSIkgheR9UEpUSMjMiIijz82S6JBb0jSARYb+fOnWoN8f9p06YpqQGlD5QqLVu2TIV9pmrr5ptvviKJhLXWWWdvVwhCZ59hub9OjUAtFYODA45nnkbGhRKTTI5N3b4O9voKuOmr4UDvAoscFtmeMUDS0aPJOHXyOMaMHoOe/n20LAkNdGisn5+bjdgD+9EncABGBAfXkArzMRRaMoF0hnBzdcbAAf3UG6oQhMZRpHSA8Qzo2kh1AV1mSd6I26xZs9TbfENFS7bEt3sSBBIASrGoFqAdAttljgcGViJ5IOlg0icSA5JESisoUeLh/95776kYCoyDwOBItIdgzAP+zSiPDz/8cKvYNrRkLXXla4QgdOXZl3u3eQRqEQR7O3x4IA1fBs41pns2BjUwplbWUjRrqZZVTgM7+KTH4dbiM+gfZHRdvFx0xqzM2vWXUkdr+Z910NnpcOTgWhw7tA0RM+9Bz4ChYLwDRSBMckPTTTL/fDp2bXoH/QZPQMiERUaRdYOZGLVra8ZsMWmpPZW8vbys3YgMN4qxhSA0TRAo+idJYKHqiOSAa4uBjJqyJdi3b5+KccDwx5QqUQVFFQODG33//fdKRcCETgzfzCROlCpQ+sC2mcNh1apVihgw1DIlCOvWrVPRGCl54BhILHjNo48+KgShHXYrIQjtALp0KQi0FgJ1CcIn8elYETQferotHtwMFOYCQ8KAoBHA8YNAWhwwbCLQL1gd5L7pl9M9kyBoel5GPMzPOwsXVw+4unuhorwEFy/kwtO7JxwdnWriI+hUsqTYHV/gYkE2Js64Gx7de6FaX4XT6SmqjneP3nC0t0fMlg/g5OSKcVNvxYnjCSoXAxM5kSVo6gDlKVFRjuwzJ9RnvfsMMsZNqFdqyEsTMRN4fX7mbkwM66/eboUgNL7ieDjTkJMHO6UIPOSpRqB6gdKBpgrtO2jUqCVr0uaSBzzbZZs0OKS0gF4vtD8hmWCkRRIRqjQ4P5Qu0PaB7bENfscxUBJBQiE2CK21YzSvHSEIzcNLagsCHQqBegQh7hRWBM6FvrwU+OZfQOh04OAmYP59QNZxoKwY2PUd8MDrgLs3fNOZ7jkbQf1ClaShorxUkQRmSmSK55KiQkyeeb3K8piVnqIO/6uXPAxnRmqsSaRUVlKImJ//qyIghk+/C3b2jjigMi2Wo//gEJw5sQeFBTmInHkfdPZO2PTDB5h5zT3o5uIGQ7UWcMmoaiguuoCE/ZuVNGNsxBy4unrVU32QvDCltLOLMbpfQ+6RGkGIGDdACEIzVqwxMJZl+TWa0ayqSqkRkzvRcNHDw6O5l0v9dkBACEI7gC5dCgKthUCDBCFglpEgbF0BXP0bYNXfgMmLgcBhQN5ZYMVLwO3/C7h5Xkr3HBgUiuNH9iD50G4MHxWJU6kJmLPoAcTGGFMqj4+8FqUlF/Hd8tdw1YJ74dODNgfGQ50REQtyM7F3y3/Ro9dghExYivy8bCV1yMmMw7nMQxg//W749R6K1KMHcDYrFWER8xGzbTUKC86rVNJB/UeqKIokKPm5Z1FZXopefQfB0bF2KGceXaUlhdiz/Vt09+mJkWOmw7mbK6prpXo2koaC07sxSQhCay01aacLIiAEoQtOutxy50GgHkE4eBIres+EvpLpnl9WCZlAUX7EtYC9I7D9S8DVEwifq0DQ0j0fTdgLP/8ghI6/SiVpit+3EVcvfQQHdv+Ioot5mDLrFqQc2oWME4cxZdavYGdXO/Ii3zqzMw4hfvdyDBgxFUND5uLUsV04ErsGweMXInDQRBWyedeWLzFgyBj49eqP82dPISsjGTlnTmHOot80IzOkDtXVlTh+ZJ8aU8S0JejZe0AtSQLJS+HpGESNH6BCLYuKoek1T1dHivLpYcAcCfQi0IwT60oUTFVCdEmkjQdVCTQ4pD2CtSQQneeptZ07EYJgO3MlIxUE6iFQjyDEnsAK/xnQV5QCv3wFLH7cmOq5qhL45WugqhyIvgUwMIlTTbrnolxUVVTj0MHNGDQ0HL7+QYjftx7zFj+MuL1rUV1Vhb79gnEg5kdcdc19SkfNw55qAFMfBDudHU4d/QUp8T+hT/9wnDkVi6ChURgSOlepL8rKSrBn+2qV7jn3XBYSD2xUmSNzz2Vg3pJHwHDOlhTmWTiTmYIDu39AYP9glR3SoU7uCR5iRWd3IyrcmKxJCELjyFL0v2XLFiQnJyuvAbo70k6AZIHGhVoSJq0F2gaQBNAQkTYLNEK85pprVArnGTNmqOyPtB24EqJgGsL5StqxZD1JncYREIIgq0MQsGEE6hOENKzwm2b0Ejh+ABg12fhmTu+CjcuMqZ8pSRg9A/DrC9/MRNxYegGBgaNRWlKAjJNJ8PYJQGrKXpQUXVAEYOyE+di89r8qc6OHVw+MDp+DlEM7MTx0qjJCZEZFrRgMehw58DVOpWxHQP9xCJl0i5I2cJM/dmSPSik9evxs1Q/Jh4dnD1RVVWDG3LstdM00qhgy0hLRp38w3D18agwda08iD5jinD2YHD5QCIKZ9U3pQXx8vHItpOSAxoKMfUB3xKCgIOVNwGBH2kFNSQGDI9EdcsOGDSpOAY0KKXmgRIGF7pFGIklpjzFDJL0h+DvXZkOeEazD73gd1/WuXbtUHAQSDpISEhUtV4QWhlnIg3U3LyEI1sVXWhcErIpAXYLw8YE0rPSbAr2TC+DgYJQcqKIDnLop10blX2ia7rm0AH1Uuudq2NnZK9sCHvoX8s7CzcMbjo7dUFJ8AVWVlTUejDok7F+P8MmL4cR+TOQIFWUXcWjPcuSdS4W7V2+ERtwKVw8/JW2I2boSI0ZPh7dvgLqkuChfjczJ2UV5RhjjK5gvPBQ4zupqk1TWdS5TBOHcHkwRgmAWUGJFEkAPAv7QI4GFbomUKDRW6IHw+eefY8qUKUrFwGBIlCLQg4FeCRs3bsTEiRPBnBvsgzk3Nm/erPqYOnWq8mwIDAxUzZMA0E2SRowkKYyl8OKLL+K2225TJIUumPSqYFCuTz/9VHlBMBJnW0QPNQtgJ64gBKETT67cWudHoC5B+GjvUazymgADyYC5GEQ6wOdsChaVFaJ3wKiaGAaXMVNvZyocQW3LdnoRcMO3s7evBbCdzoCUg98gL+cEho5ZhLSkdXDu5o5REb8C7Byhr6qqlSLa9O2vtRM1sb2KvFhMjxyKs9nZ6m1XQi03/DzwrZ0HN6Mf8tAmdpQQ8NBmboW6h7A2V4ydwAiMJAY83OnGSMnDVVddpdri94ycSSLByJmxsbHKo4TxDt59910lqWCcBK5hFoZ3Zv4HSjPYL69lHIa3335b9ZGeno7bb79dBVBicCXaSIgEwbp7nBAE6+IrrQsCVkWAm+vHH3+sdOzcyE+kZ+BcYbHFG6dOr4eTjp4INZKFFo62ulqPuLiDuJB/HhMmRMDTi8FvirBvbwwcHLspUbFRSmCOtbRwAPUkCICnBwP49FeicyEIjeOqhaNmsiXaH4wZM0YZG/LQX7hwoYpnYEoSSBwYMpk5EuLi4pTLIg/rkydPKrsFSh1IOnigM3Qy26TEgFEU+TvtGhhame6OVFdwDTNyI9tkFEWGZiZBYQRG5nSgGoPhnCltoN0DCcT111/fOgtFWmkSASEIskAEARtGoC5B4K205K3K0rTPDUFFfTIPih9//FHpnhlbX0kY7OxU6N7vvvtOHRCRkZFWTczU2DRSpC0EofFFThsCLSIiD2AGPkpMTFSHMt/kSRQoEdDWlpa4iaJ/ShC0MMu0QdDCLc+ZM0cZPVJVwOyf/O6WW25Rhz/XCg94qiGooqB0gGuG9gn8nUGbSDSYdppjYW4G5v2ghILri21RjSHF+ggIQbA+xtKDIGA1BBoiCFbrrJGGacBGS/aRI0cq8TGJgWlh3P2YmBi1uTN0blsXHjhCEJomCJQKkBxQxUDCRy8EGgWaI5s0cGQxzfbI32lHoKWJNnWLNP29OeuAbbZVIrLmjKuz1xWC0NlnWO6vUyPQngSBGzbFxl9++aV6G6SrW0NGY9zcKSbmG+XSpUuV0Zk1UzzXnXAhCJ36EZCbsyICQhCsCK40LQhYG4H2JAjsm4l0KFbmwU93tMaMDVmXqgaKjGl97uXlZXGK6CvFUAjClSIo13dVBIQgdNWZl/vuFAjUJQgMIgR9lYVBh5R/AvSWeRfWwotGibR8T0tNxYKFCxAQENDkgc8u8vLzlT6a+uV58+bDyamhREytNy0M5kR1BwkCjTipF5ciCAgCliMgBMFyrKSmINDhENAIAg9oRwcH7I5PwqHcEujquCA2PHAD7MqK0aO6Ai4u7hY6GNDl0Q45Z9ORkZ6KgYND4N3DF4qYmCn0mrxYWIhjKfHo6d8bfQMH1+RzaAFDMdMXJRme7k4IHz9GGdHRBkEIgrkZku8FgdoICEGQFSEI2DACpgTByd4OTPe8qu9c6J1dALoV2tsBlVVAdSXgUBOMyKAHGGRIB/RIT8CtxWfRL2gUGAVRFZ71Oh0cHBxVgCPGPdDZ6WBvz7/1OHV8LxJiVmNE2DwMGBalAhwxYROlEcbACYbLMY8o0DBUo6K8DM4ubqr5rBMHEbf7KwwfPRsDg6eisrzMmNlRi8hYiy8wKJKdGoNBZ2koJaPRXH7WHkSEGXMxCEGw4UUuQ283BIQgtBv00rEgcOUI1CUIyxIy8WXQPFTzsN71LcBohUEjgJApQMIvwMlEoN9IYPR0wM4BvulxuK34LPr3CzUSBHXG61BwIUclQ/Lx7YP+g0KQk52OzJNH4NPDFykHf0CvwJEInXS9UmWQPJzJOIb83DOoqChD6LiZtTwZ0tOScPZ0GiKmLoKefRiAIwd/wonkHXDrPgA+/oNQWVmBkWOmols3t8tEBcD57HTknM1AWelFjA6/Cvb2WpKopuM26PUG5GXuxMSx/ZFdEyhJJAhXvt6kha6FgBCErjXfcredDIF6BCE+A18GzkV1eQmw8RNg9p3AD+8CU5YA7t2N4Yy/+jtwy7OAizt8MxJwW3E2goJC1UF/Ov0odHZ2iNu7AcNDonA4fgcGDx8HD08fFBWeR8LuLxAQNBLjpt5+KUES62eePIzzOZnKRS549LRL7nE80Les/xSDhoYhoO9glaSpu08v2DN2wu6VOHV0L8ZPvxOJB3chbOJseHj5wt3Du8bLQYfTmSkoLszHxcI8jJ04R6k3ystLce7MSfTtP0KFXKaUo26hiiE/azciwoQgdLIlL7fThggIQWhDsKUrQaC1EahPENLxZZ9ZqC4vBdZ9AExaCOz+DpjBcMf2QMwPwMXzwNInAQdH+GYk4lfFOXBx6o7Uo/uhr65Cn37BSE3eh3nX/Rb7dq5BaelFhIZNR8LulSgpykN49H1w8/Q1qhJqSkV5KSoryox5FZycFRGhG2TRxXz8smk5Zsy9A+lpCcjPPaskDdFX34XC/GzsWPsWvHv0Qubpc+gZMARFhbkIn7IQfYOGKaPH0pIi1U5VZYUiDlR9MAdDasp+nM06joDAYQgaMEr1a1p4bcFpEoR+OHs2W0XhEwlCa68+aa+zIyAEobPPsNxfp0ZAIwgMW0sbhE/j0/FlwFWoriwDPnvBKDWYdgMQNBwoLQbyzgI/vgNc+yDQe4DK5nhNZjL2bP0W0fPvxvBRkThxLA5x+zdgwfWP40DMTygqzIeLcwWy0g6gSueDmdc+aDyszYRN5tt+cuIOlJUWY8zEObiQl420oweQcmgXFtz0OxyJ3wGgEgXZiSgtLcPc6/+Mk8cTkJd7GuFRCxqfNwPNK5xRXFyI75a/guEhUxA6/qpauSQUQThzWYIgBKFTPwZyc1ZCQAiClYCVZgWBtkCgHkGIO4Uve89AdVkJsHUlsOBBYwbHilLgRCLQzQ3YvgqYdTvQa6AiCDcX58Pbuy+OJ+9F3rlMDB0VhcNxWxEVfTPi929AUf4J6CvzMCRkPhJid2J81AJFEFzdvODIpFCNFEbn2/nzFxg9YQ5cXTyw7rt/I3j0dMTvXYfoq+9VbUdMXYqigiwc3LkM/YZEIr+gDC6unggdN6tRAkJ7hfh961FSXIihwRHw69X/UtQ+bSh6gwFF2SQIA5QNghCEtliN0kdnQ0AIQmebUbmfLoVAfYJwEl/6T0c1pf/pR4DBY4wEoboaiN8CnD0BjIgABoQonHxPH8aNJfno2zdE2R6UXMxXcoEzmUfV27+doRSOuAgnt94oLjOgV5/BGDkmGlvWfYjwqIXw8e1by6jQFPy881lIjN2EqVfdrowTY2PW4EIuU0h3R+++w5Cbk44JUxYr9UHC3q+RfWov7Jz9Mf3qh2uIR8Ouk1VVlSgtLoSXd88ao0d6X9R2laSRYlHObkSOE4LQpR4IudlWRUAIQqvCKY0JAm2LQD2CcPAkVvacYXRzVMX0kKWfIFM48zPly4gep5NwU+kF9Ok7GgYDjf2MrorU++dnpyJ+9zL4B47G8DEL1bUkERcLcnE6IxlDR0Y2erM6nT0yTyYqO4LAAXShpBOkTh3oNFyktMLDswd69h5oJBgG4Fj8Dzh9ch9CI2+Dd88hZlQYNS6VjYyAcRlIEKLG9VPpnkWC0LbrUnrrHAgIQegc8yh30UURqEUQHOzxzd4kbDb4w6BiHpgpOh3c8k8jvLIU3j6UBGhkQoeK8mKkJm0B4y0NDI6Gg+NlI0B12JNomC1GEtJwqf9ddWU50o5sQWVVFQYFR8PZxdWcmUOjI+AYHfXZmBoZijNnzghBMDtXUkEQqI+AEARZFYKADSNAgvDRRx+BRopMlFRdWQHHGgmAJbdF4Xy1nR0Y5kgjCEz/+/U336K4uESl5fX0YGwC85ESLemvyTrK66EEX65aBXd3F1y36Do4OjLuQfMLR+vs1A06O3ukp6cLQWg+hHKFIAAhCLIIBAEbRqAuQbjSlLha5sUTJ05g4cKFKodBm5ADkznIysrC999/j8GDB2PmzNpBl5ozVdq4mYtBVAzNQU7qCgJGBIQgyEoQBGwYgboE4UpuhQdqTEwM9uzZg3nz5mHEiBFtmpZZGztDKx86dAjr16/HtGnTMHbsWAtVGg3fvagYrmRVyLVdGQEhCF159uXebR6B1iII9vb2SExMxNq1a9WhPH78+HbFhmRl9+7diqwsWLAAQ4cORTU9MVpQhCC0ADS5RBAQCYKsAUHAthFoDYJAtURGRgbWrFmjDuLo6OgremNvLURJCH766SecPXsW1113Hfz8/Fqk7hCC0FozIu10NQREgtDVZlzut1MhcKUEgeQgLy8PX3zxBXr16oVFixbVCzrUnoDx/latWqVUHTfeeCO6dWs8MFNj4xSC0J4zKH3bMgJCEGx59mTsXR4BjSDwcKcXQ3NLaWkpfvjhB5SUlCijRG9v7xa9pTe3X0vrk8DQyPCbb77BwIEDMWvWrGYTGBKEoKAgycVgKehSTxCoQUAIgiwFQcCGEbgSgkAR/oYNG5QbIEX4/v7+HYocmE7LsWPHlNHixIkTER4e3qwZE4LQLLiksiBwCQEhCLIYBAEbRqClBIFGgLt27cKBAwdw9dVXY8iQIe3isWAp9JQk0GCRhov0sBg2zJjt0ZIiBMESlKSOIFAfASEIsioEARtGoCUEgYdtQkICtmzZgqioKISFhXUIo0Rz08AATj///DNOnTqFa6+91uIYDUIQzCEr3wsCDSMgBEFWhiBgwwg0lyCQHGRmZuLrr79GaGgopk+fbvGbeHvDxLGXl5cro0VmirTUaFEIQnvPnPRvqwgIQbDVmZNxCwIATAmCg0PTYYl5wObk5ODbb79FQECAMvhzcrIgZ0MHQpr3kJubqyIt+vj4KHUD76ExdQPrC0HoQBMoQ7EpBIQg2NR0yWAFgdoIaASBBobmvBiKi4vVwUqXQbozuru724z0wPSueegzFDTvZdy4cYiMjGxSRUKC0K9fP/FikIdHEGgmAkIQmgmYVBcEOhIClhIEiuQZdOjcuXPKY4Fv37Ze4uPj8csvv6jATqNGjWrUyFIIgq3PtIy/vRAQgtBeyEu/gkArIGAJQaA74/bt23HkyBHMnz9fxROgFMHWC9UK27ZtU/dFo0UmZGpI1SAEwdZnWsbfXggIQWgv5KVfQaAVEDBHEJj4iK6M9FiYO3cuRo4caZNqhcagomfDd999h4KCAmNqak/PelWFILTCQpMmuiQCQhC65LTLTXcWBJoiCNTVp6SkYNOmTcqVkUGG+FlnKryfCxcuKMNLDw8PXHPNNfUML4UgdKYZl3tpSwSEILQl2tKXINDKCJAgfPjhhyoKoqmRIg/OrKwsdXAyCNLMmTNBaUJnLNq9asmmpk6dWiscM5M9iZFiZ5x5uSdrIyAEwdoIS/uCgBURaIwgUOROckBPBUZKbEmSYmzbNQAAIABJREFUIysOu9WbJkmgLcK6detUumpKTDR7BCEIrQ63NNhFEBCC0EUmWm6zcyLQEEFgAqYff/xRxUhYsGBBg3r5zogGDS8ZivnQoUPKpXHAgAGKJAhB6IyzLffUFggIQWgLlKUPQcBKCNQlCPRY4Fs0wxHTaK9nz56dyijREhhJjpiA6uabb1bZKcUGwRLUpI4gUB8BIQiyKgQBG0agLkFgXIDExET1Bj1o0CAbvrOWD/3ixYsqhTVtLuj+WFhYKDYILYdTruzCCAhB6MKTL7du+whoBIGSguTkZBU4aPLkySrPQlctWkjpb775RqkZ6NrJ2A8kTVIEAUHAcgSEIFiOldQUBDocApqbI8Mob9iwAaNHj1YEobO5MzYXeN7/sWPHlItnUFCQih4pBKG5KEr9ro6AEISuvgLk/m0aARKE119/HTt37oSbmxsmTZoEZ2dnm76n1ho8DRSZ1poql0cffVRlf5QiCAgCliMgBMFyrKSmINDhEOAhmJqaqkIOh4SEKHLQWGbDDjf4NhgQjTYPHjyIMWPGqMROXV2y0gaQSxedCAEhCJ1oMuVWuiYCJAR08ePhJwdg/TVgio3g0zWfEbnrliEgBKFluMlVgoAgIAgIAoJAp0ZACEKnnl65OUFAEBAEBAFBoGUICEFoGW5ylSAgCAgCgkALEKBKjFk4mTtEVD4tALANLxGC0IZgS1eCgCAgCHQmBJKSklBeXq5yX1haSkpK8Mwzz+Dxxx9XLqhSOi4CQhA67tzIyAQBQUAQ6NAIvP3228jNzcWzzz6rxkmPGibNYmpxT09PxMfHq+/5d/fu3ZXLaV5eHnjdSy+9pLxu6IrK+B2+vr4qRDi/ZxRQPz+/Dn3vXWFwQhC6wizLPQoCgoAgYAUE3n33XUUAnn76aXW4P/XUU+jRowcYuOv+++/H999/r0hDQEAAbrvtNjz55JMqqiWDWL333nt48cUXFXFgQq3f//73+NOf/gQHBwe88MILGD9+vBVGLE02BwEhCM1BqxPWpXiQ+kB7e3vlKufq6ip6wU44z3JLgoA1ENAIwh//+EesXLkS//jHP1TEyr179yqpwv79+1V2zQsXLqholjt27MDLL7+Mhx56SKUhJxFgxlFm4fzd736nviNxGDp0qNqTpLQvAkIQ2hd/q/eelZWF1157DVVVVZgwYQJuuOGGWpH2vv32W6xdu1Y9kMx69/zzz8PFxcXq45IOBAFBwPYReOeddxAbG4s77rgDOTk5+Oijj/DEE0/Ax8dHkQRm1oyMjERMTAxuv/129f1dd90FXkeJAQkC6/fq1UvtO/fccw9WrFihkmtJaX8EhCC0/xxYdQRxcXEguycz50NHy+Hly5fj9OnT6mHcvn07vv76a4waNQoZGRmKTDCmP42P+CDn5+eD0eh47YEDBzB9+nRs3boVY8eORUpKCjZv3qzS6np4eKi3BbZLEsINQoogIAh0bgR27dql9hNmzrzllltw+PBhRQrmzp2L6OhovPrqqyrleP/+/bFo0SL861//UkaNVDkwHTlDhH/11VcIDw9XfzPB1q233ir7RwdZNkIQOshEWGsYNBK69957MXPmTCX6Y7Y/6gyp90tPT1cP8Zo1axRByMzMVCFpKQaktIGHPw/79evXK3EgyQOJxr///W8sXboUn3/+OaZOnYotW7aoWPfPPfecerhJLGigJEUQEAQ6NwJUS/KHhSRBi+rJ3/nDlwsWujM29Dfrs45Wn23xd3F/7BjrRghCx5gHq42CBOHhhx9WhzYthWkURMkBLYT/+te/4pprrlFEgClxSRBYSA5mz56tjIxICCiB6N27t5IODB8+XD3QjPv//vvvY9asWWDCIGYQ/Oyzz9TbhJOTkzzgVptRaVgQEAQEgbZBQAhC2+Dcbr1QxUBjIRr+8JCnlXBycrIS4bm7uyv/ZdohkCCQAISGhuKHH35QZILWxx988IGyTKbr0gMPPKCu//Of/4zBgwfjD3/4g5Iw9O3bV0kM3nrrLaxatUoRBCmCgCAgCAgCto2AEATbnj+zo6c6gSSBaYDpoUB3IqoUKNqj2qC0tFQRA9oQVFRUKAnBunXrlBpi3rx5SnfI62mARPJAFcW0adPg7e2tLI9pl0B7BBIGEgqqHCgilCIICAKCgCBg2wgIQbDt+ZPRCwKCgCAgCAgCVkFACIJVYJVGBQFBQBAQBAQB20ZACIJtz5+MXhAQBAQBQUAQsAoCQhCsAmvzGqU9AOMNZGdnN+/CLlbb399f/KO72JzL7bYuArLXWIan7DVGnIQgWLZerFqLxoHfffedMgRk8hIp9RGgKyU9Lxh/QbwkZIUIAi1DgC7KDEbElxHZaxrGkHsN80nceOONXd7gWghCy56zVr2KkcXoaki3Q/6Q5Uu5jACDphQVFeHcuXPqoZVQ0LI6BIGWIcCQ6yQI9Ghyc3NrWSOd+Cptrzl//jx+9atfqcizXbkIQegAs0+CQAkCH1ohCPUnxPShFYLQARasDMFmEdAIAkm2EISGp5GZKOnmLQRBVAwd4kHXJAgaQWiNQfFQ7UySCD60ZPVCEFpjdUgbXRUBaxCEzrjXkCAwtwRTT3flIhKEDjD7rU0QSkpKVBImPrgREREq7wJTp1L/SNLA3/md9jcDGzEGOh8GLbY667AugyQxABIDJjFPQ3vFSBeC0AEWqgzB5hFobYLAvYt7DVPGc6+h7r7uXsN9RPvRyIS2v2i5F7gHca85fvy4SgzH4GvtVTQJghAEkSC01xqs1W9rEgQ+gEePHsXBgwdVciZKJWiQxB9a5lKFwQOfZIDEISgoCCdOnFCRFE+dOqUMAZl6lW3wWtah0Q6jLzLpU3sZNglB6BBLVQZh4wi0JkHgXsOw7Xv27MG1116r9ou8vDyV04XZGqnG4IHPMOzcR0ge+B3/5+deXl5qr+F+RMLg6+urorlu2rQJN910U7vZGglBMLH/MnQmObSNPrytSRAIAcMnM4UqDWwYTnnlypWKCPDQnzhxIrKysjBu3DiVo50hmBkumUaAfKhZh8mamMqZCZuY1ImbANn9kiVL2s2qVwiCjS5uGXaHQqA1CQJvjC8Pq1evVvfIxG9MHT9w4EC1ZzChG8O4U/IYGxur9hV+fuHCBRWq/eTJk2r/4XcLFiwAJZ8rVqzAgAEDcN1117XrXiMqBuOyFRVDB3h8W5sgcBNg2bp1q8q9zrTOfEjJ8LU8CUzGRKkAczMwYdPevXtVwiYaLlHKQJfLKVOmqGuZ/pn53fkW0F5FCEJ7IS/9diYEWpsgULVASQJTvvPgp6cR9xPuIVRh8od7Db20+AxTDUEJAXO+sA5fQPjCwvwuJAgFBQXq5ebmm29WJKI9ikgQRILQHuuu0T5NCcKVWhbzYU1LS8O+ffuUuI7Jk5KSktSDSgkBxXrU+/EBpZSAD+utt96KxMRExfYp8qO9AR90PthM38xrqRck228vtx/toRUjxQ61dGUwNoaARhC6det2xV4M3GsoBaCKgZKEqKgopa6kNJISS6oWSCD44sH9hbYKTDVPiQH3Gqozhw0bptSfJBUbN25Uv1P9uXDhwnZVZ1JVIjYIIkHoEI93axIE3hAJAB9SPmgkHNwULl68qHR6POA1Q0XW43da4CG+AfB3bh78jnpBPvisQ8kDJRDtaaRIsZ8QhA6xZGUQNopAaxIEQsC9hHsN9wdKBEz3Gu4//F4zfiZZoA0TP+N+xM+1vYa/84WGUgTaQ3Hvaa/ClxEhCKJiaK/1V6/fuiqG1jAL0Q5ytmV6qNdt29RFqe415q5tKwA5LlExtBXa0k9nRsBUxUDC3xrFdN9gew3tI9rn2v7T0fcasUEQgtAaz0artEGCQOMc/t9aD22rDKwDNcI3C0o1br/9dsGoA82LDMW2ECBBoNqQkkGJSNrw3HGvYbnrrrvaTaXaUVaVGCl2gJmg18G//vUvJCQkdPnAHI1NBzc2Wkc/9dRTyo5CiiAgCDQfAYr5X3vtNWUT0NWDADWGHlUdwcHBaq/p6iRKCELzn7FWv0JTMVA/J6GW68OrhVpmxsv29I9u9YmXBgWBNkaARJuuiLQ1ulKD6DYeept0p+01tMeikWJ7GWW3yc1a0IkQBAtAsnYVjSBIfPTGkda8GIQgWHs1SvudGQHNBoEvI0IQGp5pzUiR3l1dXcoiBKED7AZCEMxPghAE8xhJDUHAHAJCEMwhBGUQTS8GIQji5mh+tbRBDSEI5kEWgmAeI6khCJhDQAiCOYSEIJgiJBIE8+vF6jWEIJiHWAiCeYykhiBgDgEhCOYQEoIgBMH8GmnTGkIQzMMtBME8RlJDEDCHgEYQaKRIg2gp9REQFcNlTESC0AGeEI0gtEb40w5wO1YZgvbQipGiVeCVRrsIApoXgxgpNj7h3Gs0LwYxUmyNsH1d5OGy1m0KQTCPrBAE8xhJDUHAHAJCEMwhZFQxCEEw4iQSBPPrxeo1GiII+soKwKC3sG8d9HY6GPQGC+vbTjU7e3vY2zuiuLhIWRaLBMF25k5G2vEQaIggNHuv0elUPoXOVuzs7OHg6KhySwhBEILQYda3KUGgXvDQsTR8laNDpZMFsdJ1gF1lGYbnnkKAT+82vCcddDpjshZrFTZdWZaHSeEjVDIYIQjWQlra7SoImBIE7jXxx9LwTTZQ6exmHgId4FBWjGH56ejt2wew3qNfZyzW32u4mVWV5WPCuKFwsHcAg7JJNkeRIJh/KNqghilB8PTwwK5DyXjJfRqKvfwBfTXTMwJ29oC9nXE0/JsPpx3/1sG+OB/XJ29C5LBJ0Js8tTzA+b36SGfgaQ7o7NT/ljzbBhMJho7X1RQ2W1FeioqKMri7e8PAD1Tz1VD1jB1fKqodds3P63xnDt6zp2IxIaQ77O0dwAQqIkEwh5h8Lwg0joApQfBwd8fWw6n4u+sklHj3Bqr1gL4KsHMAVDZFg3GvUduIca9xKTiDJce2YcKIydCbvByox1ptKpd+MT7raq9RG1CT03J5j9D6qumWe01FGcpKi+Hh6XNp/2B9Y8Ink3bZl9rj+K95ew33rZyMWIwd7qGiJwpBqMHfYM1XQHlSLULANNQyCULMoRS85D4FRT6BwPqPgLMnAFcPYMZNxgeEnw0KA8JnA3oDHIrzseToFkQOnQg+zlzsOjs7FOTnICluu3r7HjV2Grq5uOPo4b1w9/BG337Dmxwb2zh6eA+KLubD1c0TwaOnoLqqUl1DUdyhg1vVWEaOmao2hmp9FX7ZuBwh46LRw7cPNHLBBEsH96xXY2Cffr36mRAHA+wdHKDnxtQAZeGznp1xEBNCvOFgby8EwaLVJJUEAfMEgV4Mnh7u2JqUhtddJqLYOwDYthLISAGcnIHpNwH2DsC6D4Gh44Dweeqwdy08i8XHdmD8iCh1GHOfUNK982dwOGGHijwYEhYNR6duOJ68D926uaHfoBAz5MCAhAM/o6qyEt49emHQsHGX9g+2fyhuq9oeQsJmqM8rKsqxe+tqjI+8Gm7uXpekmPwubu9GVFZWIGjASPTqM6jWvkJ1ZWN7jSIImQcRNswDDo4OomLQXgaFILT/dlKfICTjJZcoFPUIBNZ9AIROBU4kAlVVQHAksH8d4OoJTFmsGL4iCMe2YdKwSFRWVeLs6eNwdOyGlEO70cOvj2LflZVl6DcoFAdj1qK7Ty9Mmr60SfUA2Xly4k7YOzjB3t4OQ0ZMULneWaqrKrB903KERcxFaclFVFVWwMevDzb98AEmTVsCZ2cXuHl4K9sBvb4aSXHb4NzNFT6+AfDtGVRLspCedghuHt0VqeADXFdjkZ0Ri4kkCA4iQWj/lSojsHUETHMxUIKw7XAqXncOR3H3AODnT4HRM4CjB4CqcmB4BJC4zUgUSBgMMBKEtJ0YP3wKKirLcTbzOOzsHZCackC9AOTlnoG9vT36BA3Hvp1r4Onlh6joG5qGzaDHseR9KC8rhZ9/EHr1GVizDxhQVVWBbRs+x5jw2aiqLEdlVQW6d++JzWuXYfrcW9X+4uXlC52dA3Qw4FDcNtVX775D4EM1yOXdBpmnjsDJyQW+/kFqjMZ3Y6MEgvvd+ay4GgmCUcUgkRRFxdAhnvcGCUK3CCNB+P5to/TgTBowYR4wbAKwfz1QXABMvs5IEErysfjoLxjaoz8SYn+Gs4sbgkdPw94d32HilOtQWlKg3uLnLnoARw/H4HxOBiKmLK4R/TUOQUlxARwcnFQFJ2cXjVMi53SqeqAjp1+PtGMHEb9vA8ZPulo9nD38+qKquhKTpi5WGwcfwrKSi+rwp5rAwdHZ9JnFhfyzSD60C/qqKvXm4eHV47IawgDF6iNChSB0iIUqg7B5BBokCE5hKO7eG1j7IeDe3ShFGDcLGBllfBkpOAdMu+ESQViYuhv9ffopKaKruxcGDBmLvdu/weyFv8GZzOM4HL8V85c8rKSV2afTMGnaUjMaBoNSWVLa6OjoDHsHR+OhDSDn7CkcSdyBiGlLkJF2SO1pEdMW40jCDuNeU1mByOjrjapNQO01Ont7ODo4qf3HtBRcOIejSbtQVlKMUWEz4NOj9yW5Ja8/f/ogxg33hKOjEAQNN/Fi6ACPfD2CkJiMl5zCjQThh3cA6t4ChwN9hgKOTsDBn4GSi0DkIqC6Eg4lF7AgZRsqTp1Elb4SYybMgbd3b/z80weImL5UPTQJ+zdi9oLfICVpN3LPZWLClOuMNgkUwjXqLXFZv0c9otGkwQ4Hdq+Bd48AJVXISk9Wbw8kImtW/QMXck9j4c1/qKVm0HaHS22YYM4HM/dcBvbvWgOP7j0xcfJCpcIwjguK1U8a4yMShA6wTmUIto9APYKQlIrXHcYYCQKllZ49gL7DgD5DAL4UxG4ECs4DU5eqlxHXwhxcc3wnCk+mKsI/duI8Rfq3/PQh5lz3WyVRSIrfiqsXP6JeRrLPnFBSRWOh90NjnlnGvcZ0j2D7B/eshZunD4aMmIiMtERknDqi9refVv0LFZVlmL/4YXh296dh1qU+jL/Ut7LiXpOXexr7dnynJJxRMy5LNtR3Z+IwLthLCILp/iwqhvZ/6BskCI7jUOTTB9j4KTAmGvD2N7o95p0Btq8GyoqBmbcAPQOVimFR6m6M6T9OidFOHDuAoSMn4VjSHgQNCkVpcQHKSoswZuJ8HDqwCfl5ZzBp+o1KfEd1gYenrzkboksgVVVVYvuGZZg4dYmyadi27iP0GzwWgf1HYuOad5VIsZuLG8ZHLbjE6htDmNKFY0m7cTojGQOHhSMgaDgc7B0vjUURhNNxiBKC0P6LVEbQKRCoTxCO43X7UBR79QK2rADCrgK69zQaJ57PAHZ8A5ReBGbdDvgFwbXgLBac3IeR/ccjPS0BJ4/HY9Cw8TievAcjRk9D/vnT6q0+JGwmkuK34Xz2KURG36RUAbRhcufLjoVFX12Nbes/Rvjk6+Do5Ixt65dheMhk9OgZiG3rPkF3H3+lMhgftdCi/Ss1eR8yThxC/yFj0bdfsFE6WvMOpBGE8JFCEEynRyQIFi5Wa1ZrkCDYj0WRZ08gPwdw9wLUwakzsvncM0bG7BMAePdUBGFhWgzGDYqAQWeHyvJSpa+jfUBK0i5lCDhy9AwUXsjB0cO7wUN+RMhU5J5PV7YKw0OmWOSuSGOkjJOHkHkyCRHTrkdFWSn27vhaWTMPDZ6EvPOZCBwwSn3PB9DDy89MuwY1Jjd3b2XURBFj3ZJ7Og6Tw3qIBMGaC1Da7jIINEgQMArFXj2BC7nGvaZGxI+8s0BBjvFlnC7U3XvCtTAb1546gNDBUWo7Ki8rUrZJpSWFSE78BS4uHhgVNhOFBedxOG6L8kAYPmqyIgpO3VwxcsyMBp/zuhPAAzsr/bA60COm34DC/GzE71uv9kASkoILOQgaEIJTx+MwYOg4uLh6mt3DLhaeR7du7soeipIMU3sn9nchOx4TRglBEILQwbYDjSAYLYvpxXAEL+nGotjDt2H3IM3lsEZcZ19agIVpezBu0KR6gjXlYmSo60esg95QhZPHYhE4IESxcMucmnU4lRoHNw8f+Pr3M7owKUmeUZxH1yK6PCpHJ2XhbAnQWqX6IkGDQQcShCnjfJRRkcRBsARPqSMINI6ARhDoyqfcHJOO458YiWJPiunrHdMm9kBG8u5SmINr02MROnhyvT1DM/qrHR9FB72+CifUXjMKzs6M7WKJk7VOSSi6uXrAv/cg6A3Vah+7dK1Opzy3jbvPle81QA1BCPGEo4PRi0GMFMVIsUPsJXUJQuyhw/gkrQTl6uA2V3QqUNKwC1no7R1orrLJ96a+yeb9lLVHkQ/S5d+b0V0LqpJ86CvycPXsCYps0LJY4iC0AEi5RBCoQaAuQdhzKBlfpF5ERTcmbjJ3cOvgWF6MoQVn4O9z2RvJInBrYiJYVFerpK4xUgDrFx1QlY850WHKbVMIghFxUTFYf+WZ7cGUILi5uaGyshJVFRWws+gN3Pj4ULWguHQzIhua8HGzY2yvCjRYdHV1xcWLF9VDKwShvWZC+u0MCJgSBO41FZWVqK4oh51l4r6aWEh26q29OXuNLWBnb2ePbi4uKtRyQUGBSBCEIHSMZVuXILRkVMaoYtYNfdyScbXWNVoCFSEIrYWotNMVEahLELoiBubumXuNEASRIJhbJ232fWsQhDYbbDt1JAShnYCXbjsVAkIQzE+nEITLGImKwfx6sXoNjSDQcIhiPyn1EdAeWpEgyOoQBFqOgEYQGJlU9pqGceReU1hYKCoGUTG0/EFrzSvrEgSqCxxUciULe9HR6ZFBSCysb0vVeG96g8rRTrGfEARbmjwZa0dDoC5BoGbSoTnGSF1krxGCICqGDvPsmhIEpmBNOn4CP56tRJVjN/Nj5BNeWY6BBafh7+lnMacw37D5Gi0xTDbfau0a1RWFiAgfaQwBIQShufBJfUGgFgKmBEHtNWmn8GNWKarMppY3sgj7ilL0LziDnt7+VnkhaYirXEpK28QL0JXuRbxeX1mECeOGKy8GsUEQgtBhtg5TgqDiICSl4GXP6Sj26KlCKV9Kv0oRQWW58W8HB6C8RKWBtq8owdIjmxA5PEI9tFoyZ8Yl0IwXGczoUvpnFamAgUIaf+J4rV4Li2pgBkej5TKL+q66GpVV5cqv2TR5tIqFwK2EQY90Btjp7M3mfGh8InTITo9V4U8ZB0G8GDrMkpWB2CgCpgRBJWs6cgL/cJ+EEs9exr2GaZ65v2h7Df9mxEGGdnd0hktRrkoMFz4iqibdc82eoMU/qQmRzs3G6FnFbUBPd7lGX17UnqEFLmJ8g8u5o9Vew9wu9OpihNZ6e42W4lllmb28RzV3ehgo6VxGHEYPc1NB2YQgCEFo7hqyWv0GCYLHNBQfiwdS9gIuHkDkQqC8GNj5vTEfw9y7gaQdKsKZQ+BQLCFBqEn3rI5wnQ7VVVU4mZag6MCAIWNUZMWk+F/U30yMZEzA1DBJ4PWpKbEoKSpQyZ+Gj5qE6mpjNkc7OweVoZEP9cgxjMJoCo0O+bmnkZV+FCUlBQibMBcOHG+9Yhxj47HZjXsU0z0z/CkJgsRBsNoSlIa7CAJ1CcL25BP4h9skFB9LAI7uB9y8jHtNUT6wdy1QVQFc9wiQtAsIGARXd08sPrbdJN0zdxPuNQYcPeIOL69K9A4qg3NRIYbtXa+2l+RJ81Hu4qZFNa6PtMGgUkXTvdvbp6dKD629vOh09mqvYZjm0PEza+0X3D9yz51G+olD6oUldHz0peRytToh6fj/9s41NqoyjeP/aael09KbLUUupUqpCAXactkCsig1CggoSgirBozrJq4fduPyzRjX7H7RRHfZTfywCWs27sZddQGz7EUCVIV6oRQol5a2QilXgSK3ttMZWma6ed7T0w502mcwnel0/E+iIfpwzpnfe5nfeW/PgHkg5DwoK91zyX0p5uRZCgIFIWq6hKCCkLwA7qrtQO5koNML1H4NrHjJOnJZcrTLf5ekRhmj4Bw9AasaPsW8++bhpv8mLjefM8cZyo/v3i+2IjExCQ8v+ykqdn6A7NG5aLt+Bc7ERMyau2wAQYhD3eEKkxFNGsx9U+bCJ28Yku7ZdxMVO/6BktIlxurlCFOXKw3JIzPMKMW1Kxdw6kSt+fPUooVw2ke3BhAXWbl08TTuHjsRI5JSgoqCLQil0zMoCFFTW3sfRM6mOH9ejv0Gxo4dC5fLhTNnzqC9vR3jxo0zR/AeOHAAixYtMm9l/Aw9gT6CUHcCG1ylcB+sACYVA2e+AVqvAJLfQPqX/260+hp5mRidh2RXMp5s/AJzpvzYpJZvPt+EuDgHOjqmobIiC+PzPJj70HeYt/lPGOFuwQhPKy7lTkbVknXWSEIQBCIDkkSus+MGsnNyMTa3oEcQ5Fj4z7f91WSLlVMVW1suIzUt0/xZfvSvfHfe5J/x+25ixqwyOLoTvfXexmGOfW69/h1yxtxr+sKgLyWSNO5cNUompyLeGU9B6AbIXQxD32YRVBBc8+Deux1ISoY5Ez31LqDsWWuKYfPvrfSrctwxHHB6ruGpYxWYklOAmoOfGZueNrMM6Zk5OHa0EiePH8QDDz+N8v/8GYuf+LlJ1lRZ8S8sW/VLk4a5v09b61UkmLd/hzm/vNspcelCE745WokHytZgx783Ij0jB67kkSgsftAIhQiE1+M2YiCjFPY0R+B9Ojs7cLxuL86fPYaJBSWYMHFan/Ss8vYhVh9MEORtw+PxIDU1Nej1o6BYY/oRpFPfunUr3nrrLeTk5GDSpElm1ffrr7+OU6dOYf78+VizZg3ee+89vPPOO0hKCmE9TUwTG7ovJ2/DIm9ylHtQQRgxG+7qz63Rg5M1QH4xMGeJJFoANv3OyuQ4ZqL5AsmtzVh5Yg/yR03CkerPzGhiYfFCk6Tt6OF0uFudKF14CY//YT32LV6L5LZrKNhXjk9e+C38/UliV5fhwSO8AAANhElEQVTJ2SAJnSSBUuCI4+Xms+Y+knlx9873kZ4xymSSzZ88q+dlRcRCfvRdyalBId/wtuNYXSWaL5w0LzrjJkyGI84+Eba7V7PTPVMQbh18YTbHoWu49p37CEJNA95MKrVGEDq8VoO9d7oVXrEJkMQq0oD9MuTvgLP9Kh6v342O001m3UBJ6WNIzxxlhs2OHd2DJhGERWuwfeufsPSpX+Dq5fPYW/Exlq/+lRGELn8/axECdb87RH7sD1VtR2p6ljHyLz/9EA8v+5kZZTAf+1L9p1iwPcNkfTteV4na6l0oW/4CMrPG3DLjIZf67uxBzC2yRhBkDcLy5cvR0NCAHTt2YOnSpSgpKaEgDEEVFkH44IMPUFVVheeffx4vv/wy3n77bYwePRrbtm3Dxo0b8e677+L48eOmzGR+mJ+hIVBdXY0tW7bgsccew4wZM0zbkfYkaxB2ywhC4ky4939qzendUwjkFfb2NSMzgNLl1vqELoeVrKnxS7SdPAln4gjMmP0IUtOy4HD4UXswA+42J0oXXMLKP65H5ZJ1SGpvxf1V2/HJC7+BPz5B72sCuiLpm47s24GklFST0O14fRUeenSdWZPQp58J7Htuwyx9VmenFw01X+Gb2j0oW/aCeXkKnF0VYZC8L7OncAQhEB9HEIamzd5y16CCkDgb7v3lQN40oGAm4PcBuzcBDZXA7KXAmHuBHOs8dGf7daw88TWKc4tx5nQdTh6rNvnTx+ZNQd2hXTjbVIuFi9fhq88+xIzZj5qsi9evNqOwZJHJ+pgm6V1D/Mi6ht07/obSBStNIhdJwfrg4nUmnbT8wPcd4gtyYYcDXneLkZTklHTcVzgfqRnZfX/oJd3zuYOYV5xpOrTa2lqTsOnw4cPw+XwoKiqCrMTmJ/IEpNNtbm7GkSNHkJ+fb6YQNmzYYMpl/fr1KC4uxksvvWTKdM+ePeZHiZ+hISBTQdJmpA1Jm5ERn4KCAoxMScHuo43Y4CyGu+ZrYPIcYFSuJQq7/wnUfAHMf9z6b2MnmYdPbmm20j1PmIlTJw7jVOMhk1p+3IQZOLQ/A+1uJ+Y/1IwVf/k1Lt+dB5f7Grwpmdj+4Gr4TV8jO61C24/d5fOhovzvmDlvGTpueHBw7zYsfGQt2lqvmFHL20cBgtGVaQiZXjhQ+T+Talr6RRGaPpnkHHG4ev4g5kxN4xRDAEgKwtC0WUUQ6vGmcxbcvi4gKQUYkWJ2BODiKWu6QT7SaLPGmVd2p8nmaKV7hiMON7xuM8zf7r6Ob2q/RMcNL/Lvn4OUlAwcq9uD+PgEk5K1ofZLJCYkYUrRwpDOVZcRCUm/Kimf5z242jRQybF+8UITsrLHm8YXSqOVx+/svGGeLz1zdL8JWaSfEqt/oMTK5nj69GlkZmaivLwcZ8+exerVq81cNz+RJyA//Pv27TOCICIwffp0M43w6quvmqmfN954A1lZ8mbpQGNjI+rr6yP/kLyj4X/u3Dkz2pOXl2dG3WTKITs7u1cQ4qbD3RUPuEaanQrmc6EJuNZs/VlSPXe/jMgUg6R7LpJsjg7A296Cm74OtF4fh8b6NBOeP6UF01GDwr3bcDMhEYcWPIldDVVISnShsKRswIXJdpFZ6Z6tl50Hyn5idkxIOmlJDz8md7JJ9Rzq58YNDzo7PEhNy+733nK/qxcOYU5hGpxcg9CDloIQai0LY1zfEYR6vBkn6Z5H3frjKduG7C1AZj+jlYVR1iA83lSJmfnzILMFvXkZ/N0x1sPLj7ff1wlZGSx/V6YfJuQXIcmVGpLVS0KX002HTe71UaPv6ZEKWbwYH29NMXT1v1b5FoLW3mbZxTDw28SVb6uxYGZWzxTDqlWrzClnu3btwtSpU80PU7A1DmEsLl66O+eHrEGoqanBa6+9ZpjIgsQXX3zRSJv888orr2D8+PGmjLVyJtTwERCJkxGEsrIyIwZSbj1TDLWN2CDpntPv7u4reuYSzcuG1cf09jUuIwgHMKPA2uZob0m0d0T3fIs4IN53E12ymwoOHD+6x6SWl3UCoYwfSP9wuvEQEpOSjRCYbdPoMi8+0teE2s+YbiaEvka+x/ULh/Cj6ekUhICqSEEIX7sM+cq2IMgwrZyDsL+2Hu99C3TIyIH6kXTPHky7fAq52feqP/T2OQXS8KXTlmyJXbByvYf06ZLtifb0Xe+5CKEOG4Z0DzuoC+hov4jFZUXmhoEHJfn9frPgSo6npiDcEdVBCZa6I6dbdnR04K677jLXlN0LFy9e7K5XcRgzZgxGjOh+Ix2Uu/Iid0pAykkW9Nrt5PaDkiTd8/vfdqHTpHvWPg4keFsx7epZjB2VH0K/0b0QqfsMhMDzDbQ7mf/f09f0KoXVf4WiGCHdoSdIruvzXsKiBYVmVwZPUrTQUBDurB6FJTpQEGRO3eP1ot3jNdt4QvtYhyCZBjj4bSe0RwhDlHyV+Pg4pKelmXTP0mh51HIYQPOSPxgCtiDICILkYpC+x+3xwIEQF5E6rHf3WOtrpALEBfQ10t/Irpwf+vZcCkIUdA2BgmAnUOk99fBOHtCacoi1j/22SkGItZLl94k0gdsFwbwlmn/FXr9xp2ztaTAZGaMgcAThTutP2OKDCULYbjZML2xnWOMIwjAtQD52VBAIJghR8WBR9BAUhN7C4AhCFFRMCoJeCBQEnREjSEAjQEHQCMGsreEIAkcQ9JoSoQgKgg6agqAzYgQJaAQoCBohCkIgIY4g6PUl7BEiCB9//LFZEGOvQQj7TYfZDWyr5xTDMCs4Pm5UEQgUhORk+/j0qHrEIX8Yu69Zu3YtFynyqOUhr49mJTEFYeByoCAMfT3lEwx/AhQEvQwpCL2MOIKg15ewR1AQdMQUBJ0RI0hAI0BB0Aj1TjFwBIHnIOi1JQIRFAQdMgVBZ8QIEtAIUBA0QhSEQEIcQdDrS9gjKAg6YgqCzogRJKARoCBohCgIFAS9jkQ0whYEOd1MTlLkufW34pdT2ygIEa2SvFmMErAFQdJvc5Fi8EKWI8NlmyOnGDjFEBXdQKAgcBdD8CIRQWhra+NRy1FRY/kQw5WACMLmzZtNsiYKwsB9DQWBghAV7ZyCoBcDBUFnxAgS0AhQEDRC1hSDvIxQECgIem2JQAQFQYdMQdAZMYIENAIUBI0QBYFrEPQ6EtEICoKOm4KgM2IECWgEKAgaIQoCBUGvIxGNuF0QuEjxVvz2IkWuQYhoteTNYpCALQhcpNh/4coiRU4xWHy4zTEKOgFbEKTRcpFi8AKREQT5h0ctR0GF5SMMWwIUBL3o7L6GaxAoCHptiUAEBUGHTEHQGTGCBDQCFASNkDXFIP9QECgIem2JQAQFQYdMQdAZMYIENAIUBI0QBSGQEKcY9PoS9ggKgo6YgqAzYgQJaAQoCBohCgIFQa8jEY2gIOi4KQg6I0aQgEaAgqARoiBQEPQ6EtEIWxBktT4XKQZHb68sfvrpp+FyuSJaPrwZCcQKAVsQpK/hSYr99zVcg2Cx4RRDFLR8CoJeCBQEnREjSEAjQEHQCAHS11AQKAh6TYlQBAVBB01B0BkxggQ0AhQEjRAFgVMMeh2JaAQFQcdNQdAZMYIENAIUBI0QBYGCoNeRiEZQEHTcFASdESNIQCNAQdAIURAoCHodiWgEBUHHbe9i4CJFnRUjSKA/ArYgyP/ngujglLgGoZcLFylGQV8SKAhcWTxwo6UgREGF5SMMWwK2IEi+FwpC/32NSAJPUuQuhqho6BQEvRhsq6cg6KwYQQLaCAIFof86In0NBcHiwxGEKOhLKAh6IVAQdEaMIAGNAEcQNELWGgQKAgVBrykRiqAg6KApCDojRpCARoCCoBGiIAQS4giCXl/CHkFB0BFTEHRGjCABjQAFQSNEQaAg6HUkohG2IMhNZeGQzA/y00tAjoWVXQwiCVyDwJpBAt+fQKAgcEF0X452X+PxeLhIkWsQvn9DG8y/GSgIbLTBydojCM888wxzMQxm5eO1flAEbEHw+/3cxdBPyUtfQ0Gw4HCKIQq6BwqCXggUBJ0RI0hAI0BB0AhZUwwUBAqCXlMiFEFB0EFTEHRGjCABjQAFQSNEQQgkxBEEvb6EPYKCoCOmIOiMGEECGgEKgkaIgkBB0OtIRCMoCDpuCoLOiBEkoBGgIGiEKAgUBL2ORDRCBGHLli3mntzFEBy97GKQeUEuUoxo1eTNYoxAoCBwQXTwwpWXEa/Xy10MXKQYHa1fBGHTpk1meyPPR+9fEKTRPvvss9zFEB3Vlk8xDAmIIHz00UfgLob+C88WhOeeew5Op3MYlvLgPTLXIAwey+99JWm05eXlqK+vR3x8/Pe+Tiz/xc7OTowfPx4rVqxAUlJSLH9VfjcSCBsBn8+HnTt3oq6u7gf/49cfZOlrcnNz8cQTTyAhISFsZTEcLkxBiIJSkpEDGUVoaWnhIUkDlIeIwciRIylRUVBn+QjDl4CMxLGvGbj8XC6X6Wvi4uKGb0EPwpNTEAYBIi9BAiRAAiRAArFGgIIQayXK70MCJEACJEACg0CAgjAIEHkJEiABEiABEog1AhSEWCtRfh8SIAESIAESGAQCFIRBgMhLkAAJkAAJkECsEaAgxFqJ8vuQAAmQAAmQwCAQ+D+8bucN3BUKnAAAAABJRU5ErkJggg==;" vertex="1" parent="SAMm_WZ2sFC5QimjHP4S-79">
          <mxGeometry x="50" y="217.31" width="580" height="296.69" as="geometry" />
        </mxCell>
        <mxCell id="SAMm_WZ2sFC5QimjHP4S-90" value="" style="shape=image;verticalLabelPosition=bottom;labelBackgroundColor=#ffffff;verticalAlign=top;aspect=fixed;imageAspect=0;image=data:image/png,iVBORw0KGgoAAAANSUhEUgAAAggAAADgCAYAAABmdJ6lAAAgAElEQVR4Xuy9B3hcx3ku/C4WwKL33gvRCIK9V1EkRTVSzbJsWbLluMZxdO3rlHvt/8l/fV3jxL9jJ7ETxZYVyxKtYklUo0hJFEWKvRPs6L33uv1/3lkccAkSxAJYgMDuN3zwANydM2fOO3Nm3vmqzm632yFFEBAEBAFBQBAQBAQBJwR0QhBkPggCgoAgIAgIAoLASASEIMicEAQEAUFAEBAEBIEbEBCCIJNCEBAEBAFBQBAQBIQgyBwQBAQBQUAQEAQEgbEREAnC2BhJDUFAEBAEBAFBwOsQEILgdUM+Ox54sL0Ch89WjtrZxJwizEmKhq+PbnY80Ezppc2MtvZ2DNr9kRwbectemfp60N3Th17oEBkcgPDQcEd9UxNee+0y7vv0GnTVXsXxahPuW7twap/Q3IMTJU0oysmAwc93au8lrQsCgoBCQAiCTIQZiUDLmT/hjbps3JUXitKL59ETNgfLcmJVX1tLjqA8sBB3LcpBsL9+uP99nc14/62XsPvQRSQXrsBnHt6OOUlR1z2fzWpG3dVTOHa+FqkFa7B8XoL6vr7iLP703Esoa+7AnBWP4C+f2oyAEcgMdjXhvXfewIFjF9AfEINvPv0tFCaFTRN+Zlw9fRYfHivGA48+iKSoSNjtNhQf24ea1gHVh47mJvSZLIhLSoa/j6Nbi9ZsQpK+Dr/fXY/Pf2odzB0NOHf2HPxSlmDRnJhb9r2zugRXyqphSExHS0sL5hUUIDEmArD24/SBA6izRKIwvhdvFBvx7cfvuaGt1//rF1j8+F8jPdgNG3pXOb7z7Mf47pc+jeiw4GnCXG4jCHg3AkIQvHv8Z+zTNx59Bm/1rMOG6Do8+8qHyMsvAnpb0G4Nx+JUO5pil+O+pfkINVwjCN3dXSivLEN4gD/27PoACfNX4q4NKxE4tFnCbkPD+b341z8dRWxoIPLXPoR71mYqDE4f2Ad9ZDRCgvV46af/hEVP/zPuLox2wseGj177b5R2+mHZiuUItnWiJyIfi1OnhyAc/ugNXC0vxeGTXfjOd7+JOSnxoOyko6UBn+x9Cw1dQFNNNboGTEibMwcBPsCitZvViTvAx4QDb7+E84Z52F4QjN1vvw3fiBQE+uth7KxBi08mnnp0KyLDfPBPP/g+MvIXq+ce6GxCdWMLguMyEeZnR1xGHjauXICLhz9EWWMHevrMsHTX4UpHANYuzFLXGMLjsGLJQsRHh+Nf//5r2PTdf8PccL/Jz7OOK3jyF+/h59/+C8RFhk6+PWlBEBAExkRACMKYEEmF24EACcKO8hToa+qQVxCB+h4f2NrakVKwFDkRNThmzL6BIDDmF3+s/U146aWdiMtdijvWLB0+TfM5bBYzWuuqcei992Eo3DpMEKwWC3R6Paix2PHjv8LgHf8bX1ydeh1BePsP/4neqGzcvWUTIvx1sNp10PsAve01+N1Pf4idZ+qwYuN2/OVffA5pgS34u2ffQ0rLeZz1yce/PJmNp/9Qif/64Tcw0FSOfQcOIDRnHVZl+OMPv/tP7PzgKMJTFuEn//QjJAdacOCP/4H3q22wmpvxwFN/g6UZYbAN1OOHP30Fn//Lz2NOqoMgdHV24M+vPY9HP/c1XDlyCLWdfVi9eQsq9jwPa/7dWJqXop7fZBxAZfkVdDfUoN4/GcF9jfALSoC+6QLaEhdi07JCBPsP4n/98F/w/b/9jnru/pYynLhUgtDM1YjsbURwYgIS42Jgt5hhtdlhNfXh3IHXUeK7HJ/ekAuY27HzncMomLcQRYVZNyUILdUX8Pv//BXeO1yNDQ99Fl974mEkRIbgoz9+Dz949jCCwyPxlf/9U2xfnoO+1nq8+odn8Oru/ShYtBRnesPxxx88rQhCU8kh/L8//Dmq2+3Y+vCT+OLnHkLnmb3YfawK5858gOx7voG/enAV/DhAUgQBQWBCCAhBmBBsctFUI6AkCH0b8EihAe+8+hYqO9sRGhqBBSs3ItFagTO2OTcQBFt/O9595Vn8+D9fw7Itj+KbX/sLzEkKVxupc+ltqsXene/Ab+5dwwRBkQerFXXF+/DDX36InzzzY0SNOPh21ZbgN7/8J7QHpOKJL38DhalR0NnMOPDqr1ActBZ/sSEVO9/eA4Rk4rE7UvE//u5XWPnYU3h0wwL4+fThh1/9Nh740b8joOE0Dhw6ia1PfhXn33wBHaEp2LxhFa7s+TV2NS7C97+yFu/95h+xvy8J//D3X0GIJqE31uMf/u+LePLrTw4ThM72ZvzHz7+LqKxVaKmuUhKE9JwctF05ieWf/Q7uXJgNamGsVgvKyssR6u+L4PBA7HzvQwTF5yAnKgBJaWmIjoyEDv34m7/6SxQsWoO+/h4EBkchPysZCI5H+dXTmL9kHRbkZysSpSQMPZ148/lfIfbOL6EgNhIJQd3401sHUTBvERbOvZEgmHqa8eGePWjSZ+KxTbn47S9/h7l3b8P6JYWoKDmNrMxC1Fw6iH955gR+9Ku/xrE3XkdxzQAe/eLj6DzzJr73+lX85z/8D8RFGvCP3/6fWPNX/4Acvzbsef9DxBXegzx7KX79yn48+KUvY0VhJvRinjLVr6m07+EICEHw8AGerY9HgvDsxSgUhAYjMckPXUYD5i9YiK7qC6i9ehx18Rvx8MqC61QM2rPaBruw86UX0Raei4e23oHowGtqCNa5GUEY7O/EkXd34OPacPz1Nz6LKP/RdhcjTny4Fy/++XXc+cW/x9b5yfjZ33wW+0rNCPTjaTUKj3z+C3hsSxr+9je78fTnHkFOajxgt+PQq7/CKWsRFsf34mpXOJ66bx6e+dkv8NbHJ6AL8Ffdz7vzMfzkLx/Bx//9a9Qn3Y0n7597bQhHEgS7FfV1dXjjzZfx6Se/hpKjR1DX1YeVd25Cxe4/YDB7E1YUZiMsyA8tFSfw3BsX8Nff/gL6Ks7jrVdehz53Le6/ez0iA4bwsbfh//zfF/B//p+voeLSCRy+3Iv0GB8c2X8cuSvXYNmKZYgPC4RO58CmqfIMXtxxBJvumY+zJc3YvLIQHx4tRmHREizKS79BgtBWU4rnfvkTvHe+AYH+Dtbz1N/+EHcvy8H+XS/hwrHT+OhsOWLiV+IX//5VHPxgH/oCUvHYXSthb7+Ez//Lbvz8219CnKEeD935JZjjokDEw5Oy8Pjnv4gCNGLP+UHcvW0j0hKnR/UzW98v6bcg4AoCQhBcQUnqTDsCJAhv9qzHvamDKGkwITLSjprqRuQWrURg2zEcGswaIUGwwzjQh9bmDvga9DjzyR40BaTj7jvWIlw3CKPdH2EhBvUcNxAEmxHvvPBbtATNwcYVRQjw08MQFIKIUGdjOBvam1swaLRA7++LyiN/whs1mfjB17bipf/4Puy5n8Lmhcmw2e0ICQlFmLURf+1MEGhcWX0GP/jHHZg/LxWLtj6JxRl6vPzbHUBMOlasKIIBZujCEhDtb3OJINiNHXjrtV04cPIwVq3bjO4mGimaEZ+cgvqzB2CJL8SatVuwcm4MXnnuX5Gx+etYmOCDs8dPoW9gEFZfP0QnZKAwL115gxgbT+Lf32rBU/fno/zKBVRZUxHefgR7i1vwmS9+AaaWRuTl5yM0LATG7la8vuM5JK15CusLwnCltARt9WWoafdF4cKlmJcdh3/9+y9j0Ve+j5xQX+j1vvAx92PfrndhSijChsXZMFntiIuJgqVqL778X5fxq7/5DJoqz+GF/ziO//Wbb+DQrvdQ2e2PbVtWw1hzFN999RL+/bvfRFxIL/72K/+Ix773P5Ea6ge7jx4h4dFoPfmBEIRpf1Plhp6MgBAETx7dWfxsJAjPV+ThU8uS0NJYjTMXSmG0mJGcWYAoUxWqw5fioVWFThIEKxorr2LXq+/DHKRHx6AVazfdjeVFuag/dxDV1hSsW5KuEOlva8LRvfvgm70W6xYnA/0N+P/+Yweg0yMkOFDVSZu3AnevXuCEoBGHd+9B8ZVKIMCA5rpqLN/2dWxZkoTq8wfw+5f3ISE1Ef7B4Vi+fDnmJfjih3/6BE9uuwvpCQ5jx4Hebrz4m5+jP34RvvTEgwjyAaovHsbOPYcBXwMC9Bak3/kkNmUG4/jOP6E5bi22b8i+1gdTM/71N+9g+2PbkJYQo1QnnZ3t+POrf8QTX34aDvrjKCd3/haDOVuxLC8VA5VH8IdTA/jqvYtx4fwFdPb0Y+6KdUDzVZyvbUdaZgGykqNx4rVnMTB/O0IbTqGpsw/+0fGgWqXLHILCvERcvNyG+++9A8G+Azi2ey+qfdPxxCOrYeztRlNrB9pqL6K8VY8Vq9YiPSEEf/z5d9AUkINQPx+EhEdi833b0Vx8ALs+OorAqFiYAyPw8NY7kaBrwN/9y0sozEwDYEVHlQ++8aMvo+nsUby9ax+sAZEItLfgRGcY/vk7X0FUWDAOvvU77DnTiuS4MITGp2LZ2s0IrD2JQyVGrL1jBRJjxdNhFr/+0vUZgoAQhBkyENKN6xFoO/8GXjzji8WZN/rq9zRcxWDqKty1OBdBSqzvKJbBAdRVlqG2bQCpGRlISY5VIuj2unJ0WCOQneZwebQYB9He3AxdSCxiIwMBSz8uXSlFe2fPcFtRSRkoyEy+rlOWgQ6UlFWivasfMYk5yMmMhY9OB7pOttSVo7SmA7EJycjMTIWfrR8Xq1qQnpyA4ADH1m2zWtBaW4V+/zBkJDpcNlmaa8tQVcf+xGHJ3Cyljmivq8KgIRbJcSHX+mAz4mppPZLTkobb7O3pxt6PduGe7Y+BJhOWwV7UNzTiwomjSFm2GQXp8Wg6exC9yQvh23QOZW3A/KIFSIgKYo9QdvEsqhp7sGj5EhQfOooVd92piMZgbyeullyGb3QWon16UVlRClNwBhbnJ+PCyUOoqw/AfY+tg7/dio6WelwsqUZ3Xx8S0rIxd04WDL46VF4+ifr2QT4ODIFByC9ahGDdIOpqqlFV34KE9DlIS4yDn16HuvKLqGrqQlZ+IXpqWpAxPxt+djPqq6tRU9uGtKwUNPaYUJiZAn8/X9CotPzyGbT165CQmo6MxBgMdLSitdeKmLhoBBrc4FopL6Ug4OUICEHw8gkwUx/f1NOoXBoTIhwneudi7G1Hty0AUSGB0Ht5oCSLxYLW1mbEJSQpMmQe6EZtXT06B32Qk52OkMBr5KS5vhphiVkIGrF3NtVUIjg2CSFDdhC3nBO2QVytaEVudspMnTrSL0FAEHATAkIQ3ASkNCMICAKCgCAgCHgSAkIQPGk05VkEAUFAEBAEBAE3ISAEwU1ASjOCgCAgCAgCgoAnISAEwZNGU55FEBAEBAFBQBBwEwJCENwEpDQjCAgCgoAgIAh4EgJCEDxpNOVZBAFBQBAQBAQBNyEgBMFNQEozgoAgIAgIAoKAJyEgBMGTRlOeRRAQBAQBQUAQcBMCQhDcBKQ0IwgIAoKAICAIeBICQhA8aTTlWQQBQUAQEAQEATchIATBTUBKM4KAICAITAcCNpsNZrMZ/v7+w6m3p+O+cg/vQ0AIgveNuTyxICAIzEIESApqa2thMplw+vRprF+/HgkJCWA+Dp1OBx8fHwwODqKpqQnx8fEIDpaMlrNwmGdUl4UgzKjhkM4IAoKAIHA9AiQAJAYkBSyBgYF44YUX8MUvfhFr1qxBSUkJenp6EBYWhoaGBuj1ekUS8vPzkZubi6AgZu6UIgiMHwEhCOPHTK4QBAQBQWDaEGhra8O//du/Yd68edi0aRPq6+vxyiuv4Ktf/aqSIFRUVOD48eNKspCSkoLFixfj6tWr2LFjBz796U9j5cqV09ZXuZFnISAEwbPGU55GEBAEPAwB2hxUV1fjvffeU0+2ZMkS9fcTTzyB8PBwpVZ4//33cfnyZfVZWVkZrly5gg0bNmDBggUwGBwpv6UIAuNFQAjCeBGT+oKAmxGwWq1oaWlRIuL29na1oPOzgYEBJCYmDhujUc/sSqFImoWiZlevcaVdqXN7ETAajUp6QJXBiRMn1Bzx9fVFTEwMSCIaGxuVXQIlDnFxcYo8SBEEJoOAEITJoCfXCgJuQICi4Z07d6rT3p49e1BUVKR0ypcuXcKDDz6oNvnQ0FC16LNwY6BBGn/4t91uV2SAheTg7Nmz6v8FBQVqA2E9tsF6/NH+74auSxPTjADHj0SB49vd3a1sDlJTU4clCRxv/kgRBNyBgBAEd6AobQgCk0CA1umvv/660h2/++672L59O1pbW/HJJ59g3bp1OHToEPLy8rBx40Z1SqS4OSIiApmZmcMGamlpacp4rby8HG+//bbaNChi5mmSn8+ZM0eJnrnBZGRkIDIychI9lktvFwJUJ5SWliIpKUnNAY3wsT8cez8/PyQnJw8TxtvVT7mvZyAgBMEzxlGeYhYj4EwQ3nzzTUUKOjs7cebMGdxxxx346KOPMHfuXKxYsQLPPfecEjP39/fj6aefVt9R0kACQVJw7NgxRSAWLVqkTppshyThqaeewssvv6zqPP744+q3lNmFANUIJAckCZwPIyUFHGeSwJycHCGAs2toZ2xvhSDM2KGRjnkLAiMlCA8//LCSIOzbt0+5sX344Ydq0c/KysLPfvYzFBYWKknCY489hsOHDysSQHEzv6f6oKOjQ50gadlOC3baN1A3Tct3GrFt3bpVxNCzcHI1NzcrgkBvBtqrjCwkEJWVlejq6lJzhIGUpAgCk0FACMJk0JNrBQE3IEAbBKoYaJ3+5z//WakSuMnTlmDLli145513FAlYtWqVUjvw5EgJACUKv/71r5UhIw0bqTo4f/48+vr61AbBzYKFIme2SenDk08+iaVLl7qh19LEdCJAg1VKlKhKonphNONTziXOARKI7OxsMVKdzkHywHsJQfDAQZVHml0I0LCQagJu5MXFxcq4kCoESgloO0CVAU+P3ByoNmAQnKioKLUBMHgOT4q0KQgJCVEnTBaSBUomampq1OcUSfM7Shmio6NnF0Be3ltKBhjXgPOEc0MzSB0NFpJJkgSSRNopiCeLl0+gSTy+EIRJgCeXCgLuQICGZtzMKRngb0oDuClwQ+Bn/J7/p/qAhZ/zb60+P9NcGunVoP2fv9keNwgar2ltyIbhjlGbnjY49iSEVVVVSrXgSvhkXkNSSQ8HGr6KqmF6xsoT7yIEwRNHVZ5pShHgAkyRLzdfby8kKfSS0MiLt+Ph7ufnPDt37pxSKVGV5Cq549ykNIqxECg1cvU6d/df2pvdCAhBmN3jJ72/DQjQIJDuiFy8vXnhJVGiZILhfxny15uxmIppqHktUGJEddJ4IyIylsaFCxeUh4uoGqZihDy/TSEInj/G8oRuRoAeBrt27VInurH0wW6+9YxqjuoM2knQ6JGbkBAE9wyPFtCK84xJmkgOJhIVUQvRzOictEcgmRNJj3vGyFtaEYLgLSMtz+k2BLhw7969W52avZkgcAPS9NzMHCgEwT1TrLe3V9kQcJ5RtcCfiUZHpEcL8zJQ2kXvh8m05Z6nk1ZmEwJCEGbTaElfZwQCXLiZLGeyBIEnRbqlsdCQbKIbrJZ7YaKbyERBpQSBBnQ0hBOCMFEUb7yOBokvvviiOu1/6lOfUhEzXT35awatbJUeL5wbzNvA6JqMifHAAw+oG3LsNONFydnhvrHztJaEIHjaiMrzTDkC7iIIjHVQV1enjPyYppebgKbX13IsaDkXNLGzlqBH2wi4AdCVUYuDwM+nqwhBmBzSlMBQ/M+NnOSQSZe4aTNkMuNhBAQEYNu2bcq9lRIAur6yzq2IJOtxXrFtpoGmWoGRNz/++GMVR+O+++5TnzMaI+0SeG+SO9aTIgiMREAIgswJQWCcCLiLIDAuAf3bGbOA4l/qm7npkizwb5IDBrzhRsGFnIu6trCTGNBYknYQXPC5aXAD4MYwXUUIwuSQpvSI0S65gZPkPfroo2oecFypFuC4Mw4GJUP8PyUL999//y2lCSQRjKlB25CSkhIVA4OkgiSU3gycT/RuYD3OFd6DRqZCECY3lp56tRAETx1Zea4pQ8BdBIEnPZ4WeeojGeAGQEkAT3QXL15UxmnchKmT5ibBWPskBlRtkDAw7S8zP7I//Fm2bJkQhCkbdfc3zLElOTh58qRyZWSSLs4FbuIMdsTCv1mHBIGqgK9//eu3tHuhBOnUqVOKHJAkcD4xiNby5cuVJIJziG2zPQbfotqBnzO+gjfb07h/dD2jRSEInjGO8hTTiIAzQXBVN3yz7nGhpoqBCXYoWubJkYs1JQgMq7t69Wq1yDMqHqUMFEdzwecpk9fl5uYqCQK/Z5/Wrl07ble4ycDGEyj7xxDRYoMwMSQ5B3bs2KE2am7kDLlN4sfxJoHk94ywybHnqf+rX/3qLTdyGiVyPjD/BqVTnC8klySS8+fPV/OEhINhvBmNk4XEgKG4JcLmxMbQk68SguDJoyvPNiUIaAQhPj5+UqcuLv4ULZNkxMXFqc2Wp0pKDni6I1HgiZKGgBQT06+dmwZJASUIXNC5+F++fFkFbWJCJ+qVp6toKgYhCBNDnGP2xhtvKLXR3XffrQjAs88+q9QB3My5ydNLhDk3mICJG/vXvva1UeccpQecQ8zBwflBqQRVB7wP1QsknFRrUCVFw0WSOqojmD2UobjHG2dhYk8tV80mBIQgzKbRkr7OCATcRRC4oHOTpf0ASQJP5PyMJzr+1owW+TfrjAy5rH3vHF55op4QEwFWJAgTQe3aNSR8zzzzjCJ5JIAkifyMdgEkhox9QJUSXR75m4RxLBsEkgFKojhH9+/fj/T0dCWZ4LVsn8SB6iu2z/8z+ddDDz00LE2Y3BPJ1Z6GgBAETxtReZ4pR4CLLyMpcoH1Zr0tCQKlG7R9EBXD+KcdCR83fo3Uab85v6hSoLqJZMGZALoy3zRJAtOEb968Wc1Ttq3FrSBJ4GdM9EX7lrvuumvCcRbG/9RyxWxCQAjCbBot6euMQIAnun/+539WIuHpPLHPiId36gQ3IoqlH3/8cSW+9mYs3Dk2VCVQxUSVkSvJmW52b418UDrhPC7OEistl4h4MLhz9DyrLSEInjWe8jTTgAAX7507dyqx7GSMFKehq1N6C82Pn+6VDOUrBME9cLuDILinJ9KKtyMgBMHbZ4A8/7gR0GwQRMXgUDGIkeK4p9AtLxCC4F48pbWJIyAEYeLYyZVeioAQBMfAa14MTNYkNgjuexmEILgPS2lpcggIQZgcfnK1FyIgBEEIwlROeyEIU4mutD0eBIQgjActqSsIAMqFjMmavF3FIBKEqXkdhCBMDa7S6vgREIIwfszkCi9HgARh165dYKAkbzdSpA2CqBjc+0IIQXAvntLaxBEQgjBx7ORKL0VAIwgiQbAqdzwhCO57EeieyOiJjKLIRE0TdXN0X4+kJW9GQAiCN4++PPuEEBhJEPQ+Pq63o3O96kyuyazS9KMXguDeUWKEQy2RUl5ensrDwFgGUgSB24GAEITbgbrcc1Yj4EwQrDYbDl4oRYuFJGGs3d+GIGMfIvV66PWzd9G32W2ICA1AXm4WmptbRILgxtnMbIsvvfSSyvDIAFTr16+XVMxuxFeaGh8CQhDGh5fUFgSUkSJtEByx7U34wflunMhcD+j0AOxDCA2RBR61dTrFHfQWI+aXHsGDYREICYsB+N3QFTrY1ZW6IZLh+HvsYtfZoVOVdcO35n9tVqvjnj7sk6Mxiq+v3cHxseOuvPza9WPd1WIxo7fpMNauKkJTk6gYtJwazrgxiJQWFlnLsaF9T7sVfsfESfxhJk8WRqWkVIb5EY4dO4Zt27apzJ38ngmctHDJNA6lpIGfsS3NDoafO8bYMdaUPHizjcxY81i+HxsBIQhjYyQ1BIHrELieIBjxw0v9OJ6xHmipA6rOA8ERQEouYLMBlcVA7jIgJAJ6swkLyg/h4fAohIRGw263qU29u6sNrS218PczICk1FwMDPWhrqUNi8hz4GwJGRX+grwc1VZeUNCIlPR+GgCBV12qx4OrFo4iJS0VUbDJ8fHTo7WpHU2MlsvOWDBMCs8mI1uYa9Ha3q+sDg0KHiQaJg5YkamSERIvZhK6Gg1i7Yi4aGyUXA7MxUi3AzZ65DUgci4uLsWnTJpV8iUaHtCkIDQ1VGzazcDJjJ5MmMcwxN3rOqXnz5imSwPTfx48fV0mWWJ9RKtkm6zH7J/M0MCMjczWQPKSmpqrftbW1ijhwvHhfxqaIjY2VCJeyfk0YASEIE4ZOLvRWBDSCwMWXEoQfXerF8ZTVQNkZoKXGIRkIjwVCwoGj7wIbPwskZUNvNmJB+RFsD42En1+A2ph53quuOI/gkHA01JWhoGgterpacPn8Eazf8jjCI2JHhbm/vxtVZcXQ+/ohPYubS5CSOnR1tqDs6imkZxXBZrPCYjHBR6dHyeUTWLB0E3z1fggICoHJOICm+nL0dLcjI3s+gthfx/ET/f096O5qRUhopCIOzioRi9mMnsaDWLuyUJI1AWpTZtpknthJBLj5HzhwAFu3blWbMwkCU3LTnoCEICEhASEhIdi7d6/a/EnE+vr6FLkoKipSvw8dOqSkCSQJzPTINN6ZmZkoKSlRdh8kCszQSNJBY0YSCfaDZMVZckAyQskC60kobG9dsSb+3EIQJo6dXOmlCFxHEEwm/OhCD44nrwBKzwAN5QBP4rGpQOY84MMXgKL1QEKmUjEUlR3BeosZXZ3t8PHRq1N/R1s9ChduwKVzBxAUHI7s3KU48MEOLF59LyIi47U9+wa0bTaL2uS5oRsCQ6DT+SiCUFV+DmbTIKLjUlF66Rg62hsxf8kmnDn+PpJTc5Gclq8kC9w4TMZ+WK0WBAaGwEfvN3QPO/p7u1BXfQkDA71KEhGXmAVfX4co3Goxob/pkCIIjZLNUSXtunDhgtr8ebrnRs4NfsuWLejo6FCkobGxUW3yxFzb8I8ePYo1a9aAdgf8jFII5rWoqqrC2TPhh4YAACAASURBVLNn1aZPMsH0zQsXLkRYWBjKy8vV92yPqZwpOSAhYbskDSQPdL/l5/SAYLu8ngaPom7w0gVrEo8tBGES4Mml3onADQShuAvHk5YDpaeA6stA3lJFCEBDxPf/AMxbB6TmQ281YV7ZESzpakd3V4faeP0MgWisK0XB/HW4dHY/IqITkZWzGPt2/zcWr7wPYRGxShVBMqHZJ9wKdZNpEKWXjiIqJgmRMcm4XHwAEZGJCAoNx/7df0T6nPkoWrxJSRtGK1QvkGA0N1Sgsa5MSREychYhICBYXUKJxEDLYawTgqDw4AZMgsBNmWSABIE2BJQgcPOn2yKlBPyhPQKlAllZWUoNsWDBAhw8eFBt9tzQaXNAKcGpU6eUlIEJwerq6hTZ0AjCiRMn1PVUaVD1wL85J3kf9oUSBRIV9oftUqpAaZcQBO9crybz1EIQJoOeXOuVCNxAEM514HjCMqCpAjAbgcz5tBIEaq4AZ/YCyXOAhZughx3zq07iroAwmM1W9Pa0ITA4DG3NNWrDpiQhO385Bvq7cf70XuQWrERYZByo84+NT4dOGRxqRpA3Qk8C0dpcjab6MqRlFcFoHMD5U3uV+iAkLAqXz32C8OhExCdlIS4+Y9hA8YaW7EBfbwea68sREBSqSEuAklA4zCatFjMG245gvRAEtelzPnBD5gZeWlqqbAy46T/yyCOKMHCDpjrAaDSisrJSqQBob3DmzBkkJiYq2wG2o0kWKA04ffq0qh8UFKTaXrRokbI5oLpi37592LBhAzo7O9WYsG2qIywWiyIWlEqwPUoamDKaEg4SBSEIXrlcTeqhhSBMCj652BsRuN4GwYgfnWvH8cSVgHnQYX8QGOIwUOxsBvo6AT8DEJcKvc2KoqrTuC88DoHB0bCQTOiAgb5u9PZ0wNfPgOiYZLS31aO/txMBgcGKHLBSUlremH4NlDTUVV1SdgdJaflK/dDRWgc//wCER8Shv79L2T7Q4yE0LEpzorjpENJTwWY1wc/fYSk/ZBw/TBBM7UewbpXYIHAjpkEgf9OIkISAf1dXVyv3T35H/EgeuIlzg6cqgsSAJ356M1CqQGkA/+apPyAgQNkkcGMnmSBh4G9KF/g3pRUkBaxLFQbtC8LDw5UNAg0facdAaQSv571JNCi1EBsEb1ytJvfMQhAmh59c7YUIkCC8++67SmxrMprws+M1OBM9D7ghYJLzaV8HvcWE3IZLWB8Sg4DgSCdhgEP0zAWcP8OuajYrTKYB+Pj4wd8QeEvpAYeB1xkHe5UtgkOFMOQ8abdDx75pvpMu+VBqTpY3SiysVjN8Bi7hjrULlJvjsmXLvDqbI8eOhZux5tLI0zw9Epy/09whOcYkA9zsRyuaS6M2J9gOSQLbIJkgyXCuo91bc5t0lhZo3ihe+KrKI08SASEIkwRQLvc+BJwJAhffs1UN6LD7OVwEb1F0NhsCTP2I8PWHj4/vrbQFEwd19H194m1edyUJgx0hwXqkJicoYzlvJwgaORu5EY91YtdsErR6ogJw0xSVZtyGgBAEt0EpDXkLAs4EgSdBLQDR6NYB15Dhmd61EEgzG01yIZ5qaTUvBAFK1E/jQhoN0maAagL+TSPD0TZ+iv5pa8B4BVQ90NiQUoexiMVoM0MjHLzfRNuY2bNOejfdCAhBmG7E5X6zHoGRBGHWP9AEH4AicurcvZ0gUJ1A40R6F1ANwI2f3gSLFy9WdghapERnmLmBMxMm3SFZj3ESaFdAzwX+vkY8bxwcZzWU87f0mDh//jyWL18+HHlxgkMrlwkCCgEhCDIRBIFxIqARBFqde3MiHSEIjolDSQrnBH+6urqURIm/tWRL/FyzReB3DIRETwcaFNKQkAGUSAjo4UBDRLop8nPWI4lgLASSEEomaOhII0Sqdtiudi0NHklE6F6Zm5urvBbYjhRBYDIICEGYDHpyrVci4EwQKM7tMxphcdip3bIo8wDG6GdqhjHsFcZq67Z+b7dDr/dRhnLEwtslCNz0uZHz9E7XQhaqFuhiqMUocCYI3PwZNImEgPOAUgMWSh24ubM9SiTorUCSQBJA6QA9EajSoUqC12qeC/RYoAcFPSMYnZHukCQM3/rWt2b3PLutk1xuLhIEmQOCwAQQcCYIPEW/e6Ue1YaYoaRMWtKjIVsDlQTJYdins1kR3dmAOf4GFSDJHYWk46a2D+pDJopSr/kNtxr1Ohc6xURQ/roezC2Yo1QMFGlz05rVpMeF5x6tCjd0bsjc0PlD7xae+rmpP/DAA8quYGTR4hSQWJAscOPnRs8gS8SRbpJHjhxRlzFmAqMsMkIiSQSlD7wf78Hr2D7JAUkJ7z937ly8//77ePrppyX2wSTGVS4VFYPMAUFg3Ag4EwTmYvjJpV6cylgLmIxAbwfgawCCwwBjP9DfC4RGAoHBys2xqPwotodGIDgsenhnZ6hj42CfyqlAd0azcUDFPzAEhVzLxniTXpKcDPb3qA2FoZa17IGs2tXRrNpioCNnekDewCRNjJTo5+evYiTcfGMfnUIwUFJP01GsWcE4CM1eTxA4DgxaRELAH0oEKFliDARKV5zHxXkYqSbgRk9CQUkBJQuUClBVwL9JBtgu1QUkC7wPScCSJUuUhEGTLpBssC0mbaIKgmSBuSE2btzotaRt3C+1XHBTBETFIBNDEBgnAjcQhCsDOJ6+DqgrASrPA4xBkJQNmAaBxgqAOQxWblO5GBaUHcZDYVEq3TODETG4EUMad3e2gmGSM3MXoa2pBl2dzSpccmpm4ahpn/v7mKzpnMqRwHoMrMRCAsBsjompOQhj0ii7Db5+Q3kUrFa0tdSq6I3MxxATmwq9r+91CFitNthtVvj6MTfDjUSByZq6Gz7B6uUFQhAYWXIo/TJJAf/WYhaQGNCbYbTCCIsMbqQZJGrxL7Q0zryOdUgYGJaZNi9aVkcSAcY8YPsq/oXRqOqR7Gn9uJlx5DinulT3cgSEIHj5BJDHHz8C1xEEEyUIfTievBqoOAu0NzAWMRAaDaQVAE2VQPF+4NN/D715UGVz3BYSDovFivbWevgHBKO1qQrxSdkou3ICqekFCI+KR0NNKTrbG7HqjkccQY5uUih1aKwtUxs8r/fzN6h8DSQA9TVXkZIxF53tDejpakNa5jxERCWACZ4625sVAeH/w8Jj4KNnCOehYgf6+7pQX3MFYRFxiIpJHiIK16pYzWb0Nh0UgjD+qTPhK0gkaPPhzUaxEwZPLpwwAkIQJgydXOitCNxAEC724njSCqDkpCPlc0QckFEEJGQA5z52JG1avEmle55XeghLOlvR29ODhORsZbfQWFuCwoV34OLZ/QgKiUDB/DUoPvmhCr1cMH/tqDDbbXaYzUYVn8mP4ZyVvQNQevm4Su4Un5yNlsYK1JRfUNKCeYvuVBILRkKkHQFVGqw3UgfBZEytTdVorC9TORiychcPRXJ0dIUEoa/5ENasEAmCNjg80VPkz1M7PQ54iuff2qn+ZoNISQNVCFRJUAJAGwQJluStq8rMfG4hCDNzXKRXMxQBinOpZ2aoZYp8jZQgXOjC8cTlQMU5oLMFyF8J0AjxwifAQK8jm2NEDPRmE4oqjmO1cRBtLY3KBoCn9KaGcpXN8cKZfYiJT4fdalXJkvKL1sLfEDyUzfHmUoTrYNLpMDjQi5KLR5CQlA2L1Yym+nIM9veqey1d84Bqa6xCyUTZ1ZPo7W5HYkouElNy4OurpYJ2JGsaaD0sBEETugzlXmAcBBockkBSbcA0zAUFBcPhkSn+p1qAhbYGVB8cOHBApXhmeme6LzJnA6UEEzH41FQUE7l2rDkh33snAkIQvHPc5anHgQBPekyeQ4v9mpoaFdSG/+fiP2g04ifFnY50z611gMUMpOQ6iMGxdwHjABARCyzYqDaN+ZUncU9YDPz9g5UKwUfvi6a6MvR0tcJmt2JO/koc3PsiwiPj1SYfGZ2obBNSMwqVKsA5adLIR+DGwNTRzAqZnr1AtXnl/EHlzRAdl6YkCJq73WiPTyEEE0exb7RP8DcEjVBx6BRBMLYdwtqVc8UGYcgGgRkZ+UNJAjFmzAIaKNJFkVICGixyfPg9pQr0SGDkRRoT0giRpIL2CzRYZOAkzY6AxorM6Mg22QZdHZ2LluhJC/PMbI50lWQ7NHKkjQLvRxUFiQftG4RAjOPl9/KqQhC8fALI44+NAE99x48fx44dOxQ5oLX4woULlZ87JQg/PtuOE8mrnJI1DRn2Ke/GoRO7j4/Di6H6NO4Ni0cwbRRUgiUauZlVRkdDQJAS+w/09wxt5HZ0dTRBr/dVJ/mxCjeY2srzSjXBUz+TNtGQkWoEGilSiuBq4bUkFtqp1Pk6Glea2g5j3SohCBouDIzEwEdlZWXDqZeZdpkk8mZEjnNq9+7datOmpIHqhatXryqyQFsDujkyfDOJw/z581XbVGHQi4FeCpotAr9nmGZKI+je+Mknn6jojZRkUCpBiQSDLzGk89atW1FYWDiqV4Wrc0PqeQ8CQhC8Z6zlSSeIABdznvRefvlltVDfc8896oTHhddkMuPXJypxMWwO1J56i6KzWpHeXIplwZEICAwbio+gXXCjtwDJA1M3O2LrOzbsWxV+S9sChyU7DQ9dyQ4xflCsNiv8LdVYs3KeSBCGsmgycNG5c+fUxs5TO8Ml87S+evVqteE7FxI52inwGp7yudlTOsC0zYx+yLgG5eXlynNh0aJFavPnvOMG//zzz6u2SSg0SQXjIrAdqrxIKu644w4899xzw0aNlGLwHlu2bLmhL+MffbnCmxAQguBNoy3POi4EeHqmKoFi25MnTypxMTdfBrNhQBouyNzWm9raYaKgYKzoiEy7bLPCb1zJdMabnnEyIZBcg4e4BAcFqNMpA/1IoCS72qBJDjgveMInNiQA3NRJCDSSQGLAEz83daoP6urqVMAjbuysxyiILIxrUFFRoQwYqS4gQaXkiiou1ud3JCAkCpQq8P6UGvB7hnjm9yQQGRkZqj0aQXKcxAjStTkutRwICEGQmSAI3AQBLZ4+Y9vzJEcxL43JaEfAxfi9995TBIH/98bsecSH+nSKuL2dIHBjp80BN2ESAGLD35QEcDOn/l+Lpqjhxv+TfJIIaPYGrMdNn/OKn1FyReJASRUlDDSO1VQQlDCQhGhGjbwfbQ2ohqDEgW2QJNB+gQSDhYaRYn8gy914EBCCMB60pK5XIMBFnCFsDx48qE5kK1asUDYHWtAbzc2Rp8DRouR5A1DcGIUgUFPksNXg5stTO//WSOOtNmQtPfNIO4+Rc8o5e6PWnna/m80z7TvxavCGt3Bqn1EIwtTiK63PMgS4wFPsSwMynuDWr1+vrMKdo9IJQXAMqhCEWTa5pbuCwDgREIIwTsCkuuciwA2Put49e/Yoceydd96pRLoj9bbOBEGJhy0W2HiCHAMaR/4kJlAaq+bMx1g7IdP1kxIWb07WNPNHS3ooCEwMASEIE8NNrvIwBKjDpSvjRx99pFzT6KKm6YJHPioJwjvvvKMMzShxOFBWj0Z96Ngbv82G8N42JDFkLiMfztLCYEv+ehNysh3++0IQZulASrcFgTEQEIIgU8TrEaCxGP3HGQmPmx2NEWncNZr+2Jkg0M3xF1e6cSZ5pSOg0LCEgGGPbfQ7BPR+yuPQx2pCQdUJ3BMajqCQqOEYA5pAgb9tdt1QyOQhF0WnyEjMs2DnP5vNIa1wcmVUhnFmoyPmga/fsIOjit43OKCuYzhmnvxHOj+yPZbRcj5cP0F0sFlM6Gs7jZVLCtAsEgSvf38EAM9FQAiC546tPNlYIn+7XVmHf/DBByoA0ubNm5W3wq0y8LHJ6wmCCT+9asTx9PWOzI1XjwOBoUDWfEdkRSZrSsoBClaoXAwLyg7h4XBHNkeHMZkdLY0BKL0cgqhYM/KzW5F14SCCulpRPXcFOuPSrsuV0NxQid6edhUXITNn4fATMixyfU0JYuPTVN4Fh4GagwqcPfY+gkMjYTL2Y+7CdYr4aLyDiZ3aW+rVZ1l5S1xyg2Mq6q76g1i1LA/NzaJikBdNEPBUBIQgeOrIynONiQBd03bu3KlC5D7yyCPKf9wVr4QbCMKVQRxPWQVUFgM9HYBpwJHymQmbuluBo28Dn/nfQ9kcj+Kh8GgEBEWgvbUOZpMBJw/PhyFAh4qyEDy68SzW9+xBVE0pGBpp/6NPw+JnoD+yep666isqhLJ/QBCychapz2j/wJwLTfVlijQw9wKjMjLPg9E4gP17/oiiJZtw5th7WLh8K8IjYhEcEqGubWmqQltLnYrgmJ27FD4+OhXJkcQhLjETBkPQDfkbVGKiRiEIY04wqSAIzHIEhCDM8gGU7o8fARoj0lPh/fffV8FqGMyG4W5dIQcjJQgMtfzTy32OUMvM5FhXAvgbgIRMICwGOPORI3HTxs+oUMvzy45gvdWC1pYGlVshMHAZLpwpwNJV7Th5JAqZ2X24N/Zj5B18D10xiTi55XOw6a6lYzabB5WKgeGX9b6O0MlWiwlV5cUqR0JkTKIiCx1tjVi47C5FQtpb6pCWPR8f7fo9UtPnwsfXV2WPDAwKg9Vqgc1ihk6vg69vgGqP96guL0ZnexPiEjKQmMpkTddsJpjtsa+R6Z7zRYIw/uknVwgCswYBIQizZqiko+5AgKdfBpkhOWD42fvvv384QqKr7WsSBEawoyvkTy/34kTSSqDklEOKULASSMxmXmSgqQo4sxfY/k3odTYUlhxBUUs9enu6kJ23GDbrHBz/JBlFSztw7mQUcnI6cXf4R8g6tR++Vgv2PfgNGP2D4KPTjWoT0dfXiYqrp1X6aG749TVX0VB9BUtW34+aygvIzFmsbBZOH9+NJSvvQ131ZSSnFSAiKv6mj8ykUd2dragoOaVIR8GC9QgOdkgcWEgQ+psPDasYVq5cKV4Mrk4eqScIzCIEhCDMosGSrk4OAUa6YyhcptilhwJj0zPK3Hijy91AEC724ETSCqChDLCYgKyFgLEfqC8FetodtggbPg293Yr5ladwT1AEjCYz2lprERSUjrLLC5Vov601AFtWXMHyrv0Ib66Fr3EAe1bch14fH0THpNzUiJAeBa2NlWhuqsKc/OWoKj2jbBSYpCk5LU+pDxavug89nS04efhtpGbOg9lsVKSBEoSRhWaQA/29qCw9jaCQCMQnZcFgCL7OQ4MSC6Z7Xj1kgyAEYXLzUq4WBGYqAkIQZurISL/cigA9FRg2ma6MdGNkACTGOphIuYEgXOjCiaRVgHnQ4cUQGOLwXuhoAgb7gPBYICTCkc2x6hTuC49HUEiMOomrkM4dIWhuCERImAUZCW1IrzgNvdmExoQMlBgHYLFZkJw+F/RiGFkoMWiouQKdjx7Jafkq+2NXZ7PyZOjv7VLulJm5i5QnQ0tjBSxWC8LCY1Q6aUcCqBuLzWpRfVOpnumMMcLtgdknjW1CECYyd+QaQWA2ISAEYTaNlvR13AhwA2YMe7oxMp3ukiVLVIY9xryfaHEmCGZmczxbjwuR+UNuh2x1aEflBqx8F+lGaIfeakZmYwlWBUfBEERy4qjnHDfJbtfBPvSB3WrBQH83fPV+CAgMUa6KIwvtESgxMAQEOzb04Qbt6GxvVJ8H0KtC3WeIYDA08JiZHkdL+kQ3RzN8TCVYtcyR7lkkCBOdSXKdIDCzERCCMLPHR3o3SQToocDESjRG3LBhg5IeOIdNnkjzzgSBBORifSu69YFjqip0dhsCBvsQ4WtQBoqztfCZA/1tSIiPFoIwWwdR+i0IuICAEAQXQJIqsw8BeiqUlZXhww8/VKl2N27cqNI0uyPdrTNBYHs2q9UBkCsRlCkEUCf5G6UBswllBmRiFEliIRKE2TRy0ldBwHUEhCC4jpXUnCUI0FOBxoh79+5FYmKikhww7a47yAEhGEkQZgksbu+mEAS3QyoNCgIzCgEhCDNqOKQzk0WAbocnT55UORUYFZE5FWiM6C5yIATh2ggJQZjsbJXrBYGZjYAQhJk9PtK7cSBAOwMaIx45ckSJvUkOgoODx9GCa1VFguDASQiCa/NFagkCsxUBIQizdeSk38MI0GiOORX279+vpAd33XUXli5dqmwPpqJoBCEyMtLl6ItT0Y/b3SbtPOghIjYIt3sk5P6CwNQgIARhanCVVqcJAZKDlpYWlXCpsrIS9913HwoLC1WUxKkqJAhvv/02GEnRnaqLqervVLWrSRCY/TI/P39ML46p6oe0KwgIAlODgBCEqcFVWp0mBJqbm/H666+DURJJDtzlqXCr7gtBcKAjBGGaJrncRhC4TQgIQbhNwMttXUOAEgJGQaQKgfYEQUFB6O3tVXENIiIicOrUKRQXF+PBBx9UHgvTUYQgCEGYjnkm9xAEbjcCQhBu9wjI/W+JACUDp0+fRmlpKeLi4lTWxe7ubly5cgUpKSlIT09XxIH2AOPNqTBR6IUgCEGY6NyR6wSB2YSAEITZNFpe2FdKC5hciZvy4OAgcnNzER8fj4MHD8JgMOCzn/3stBsKsi9vvfWW2CDYbMpIUWwQvPDFlEf2CgSEIHjFMM/ehyRBYGpmpmimCmHRokXKMHDPnj0qvsHjjz8+pQaJN0NOCMI1CYIQhNn7bknPBYGxEBCCMBZC8v1tRUCTILATixcvVkmWaH/AxEsff/wxvv3tbyMkJGRa+ygEQQjCtE44uZkgcJsQEIJwm4CX27qGANUKJAO0M8jKylIi7aNHj6K6uhqpqanYunXrlMU7GK2HQhCEILg2e6WWIDC7ERCCMLvHz6N7r7nR8XdsbKyyNaBXw8DAACwWi/JomMp4B0IQbj29OC6iYvDoV1AezssREILg5RNgpj4+Ey6dO3cOu3btwv3334+FCxfOmK5qEgR6Tnh7oKT29nYxUpwxM1M6Igi4FwEhCO7FU1pzAwKMe3D48GGVcImZGNevX4+AgAA3tOyeJoQgXK9iWL16tURSdM/UklYEgRmFgBCEGTUc3t0Ziqx5IqVb44kTJ7B9+3YsW7Zsxp3ShSAIQfDuN1We3lsQEILgLSM9w5+TiX9oeEjPhI6ODmV8mJeXN+0xDlyBSQiCEARX5onUEQRmOwJCEGb7CHpA/00mE0pKSpTkgBkYmY2RURKnKzLieCEUgiAEYbxzRuoLArMRASEIs3HUPKjP9EigMSJVCgylvG7dOvV7Jhv/aQSBuSBmcj+neppoKiGxQZhqpKV9QeD2ICAE4fbgLncFVNIlxjQgQSgoKMDy5cunNafCRAeBBOHNN99UfaXrpbcWqoVoMyIEwVtngDy3pyMgBMHTR3gGPh9jGXR2duKTTz5BWVmZCp/Mn9DQ0BmrVnCGkZvin//8Z5Xu2JsJAp+f6qEtW7aoHBkzVSU0A18B6ZIgMCsQEIIwK4bJszpJI0QmO2poaMA999yjjBH9/f1nzQbDGA3MDcGskiQ73lxoM8KMmtOZTdOb8ZZnFwSmEwEhCNOJtpffi5spycGLL74Ixjr41Kc+hYyMjFl5CufpmT/eXig14I8322J4+xyQ5/dcBIQgeO7Yzqgn42ZaV1eHZ599FjTuY5pmhk8WsfSMGibpjCAgCAgCwwgIQZDJMOUIUE/NhEsvvfSSEkd/5jOfmfYMjFP+kHIDQWAaECDR1qQ203A7uYWXIyAEwcsnwFQ/fk9Pj3JhPHjwIBYsWKBiHBgMhqm+rbQvCMx4BOjFQ/LsqrssycHly5eRlpYmBHvGj65ndFAIgmeM44x7Ci5mtDc4cuQIzp8/r1zhVqxYoYwRpQgCggCUF09VVRUeffRRlZWUZJquo0xtzvenv79fBQ7j//k3v//xj3+Mb37zm4okMIZIYGCgsv9gWnTWZYZTUdvJ7HIXAkIQ3IWktDOMABe5+vp6JTXQsv3NnTtXJAcyRwQBJwRefvllFBcX43vf+556T3bv3q02+dTUVISFheHixYvKgJfxQZi8jCThT3/6E77//e+jpaUFXV1dKqgYr6msrFQZTymlExIu08xdCAhBcBeSE2yHlv38GalX5Gc8IfBkwQ2XiwD/nunFYrGgoqJCnY54ClqzZg2ys7NV/6UIAoLANQRIEC5cuIDvfve7ePfdd5UBb05ODmJiYjBv3jwVRIyuwJs3b1ZhyJmf5Ne//jW+8IUvYOfOnYiPj1exQ7g+cL14/PHH1XWzYZ2QeTA7EBCCcBvHiWLBkydPKp96bqLz589X4kQWo9GoTgtcMGpqalRWQ9bRyMTNuq19d6s6U/m41KdSR0rJAReutWvXqtOQNwcTmkq8pe3ZjQAJwt69e/HEE08oosDYIAw6FRUVpdQJDCJGyQLfI0oQqIr4+c9/js997nN47bXXsGrVKiQkJKh6JAv8nPEopAgC7kJACIK7kJxAOwzZ+7vf/U6dtLkw0O2PSYuoU8zPz1cnCy4OZ8+eVTEDuAiUlpaq2AGUOHATZtAebsy8ltkQefq4dOmSEj0mJSUp10JKIniyCA8Pn0AvXbuE/Th16pTKxsi+r1y5EtHR0UIOXINPankhAnxfqFbgO1tUVKRIANUD/JvqA64FtDGgFI7SBL7nfJcpSeDBgiSCESz57oWEhChVBG0QpAgC7kJACIK7kJxAO83NzfjFL36hggYxoiBPAtTdU7+4ceNGdaK44447cPr0aZXEiN9zgdAMkUgAKH3g9TQCvHLlilooSBT4Ozk5WekxKYWgayEXoqkoXLj279+vJAfsB8kB7y/GUlOBtrTpKQhQSshonDwgkLzzPea7ROLvrGLku0T7A9YngaCUkdJH1ieBoEqBh4qAgAAJWOUpk2OGPIcQhNs4ECQIv/zlL9UCQUkBTwnMSUAdPk8Q3PA1gsBkRpQGUB95/PhxtVDQMKmtrW3Y8pltcJPmQpGYmKg2aeY8eOSRR5T6wt3R7riIcdFi4iKSmIcffljdR9wYb+OkklvPagRul3pwVo+xpAAAIABJREFUVoMmnZ8yBIQgTBm0YzdMgvD73/8etPBfv349fvvb36K2tlZJEe69917s2bMHGzZswJkzZ7B06VJFIHhaoN804wk888wz6m+SBeoyGYhox44d6vTBkzxPJyQZ1F1S7O/uQhJDOwnqT7/1rW8hMzNTpAbuBlnaEwQEAUHgNiEgBOE2Ac/bUpxIQkCRIW0Impqa1EmcKgS6K1FVQD0+pQD83djYqAwWmdyIEQlpj8DTOo0AeS1JBK2eabNANynaKlA/SUMmShMmW0g8NF9txjh45513VPu0nqZ9hKgUJouwXC8ICAKCwMxBQAjCzBmLGd8T6j1phMjgLiQktHF48MEHldW1FEFAEBAEBAHPQkAIgmeN55Q9DaUHlGjQ64IW1LR3oFsV3RhFcjBlsEvDMxQBLc23t899wWGGTlA3dUsIwjiApEqA8dO9Mc0vAyAxp8Lrr7+uDBNpG7Ft2zZRLYxj/khVz0CAgYmoytPCInvGU03sKShVJEmgW7UYJ08Mw5l8lRAEF0eHiwHtBWiQ542RykgQ6EVBOwjNRkJzZ3QRQqkmCHgEAnQ5fOWVV5Q9EL2L6JbojYXkgK7XVDHed999U+ZG7Y3YzpRnFoLg4khwg2RMgXPnznmtzl1zwaJ3BL0n6ClBY0gpgoA3IUAp4nPPPacSkaWkpKgop4xH4E2F6yFTuDMRG4O8bd++3WuJkiePuxAEF0eXLwQjFGpRCl28zOOqUefK8K9cEIUgeNzwygO5gAADFDGIGeOQ0JOILsSMfugtInYeFKhiYcwVxlZhEDZGcZR8Ky5MnllWRQiCiwOmSRDcQRC4yVJlMTJBk4tdUdVul3GQRhCoZhCCMJ4Rk7qeggAJwq5du9T7y1M0xexLlixREUvHm3dES9Y2mSBm070WUIJIcsCorgz1zHWAbtneqHr1lDk92nMIQXBxhN1FELio0BuAJw/mdGcCJi4OI19yGkI6W0jzb03Ez77wetpEcFGiu+FkFhgXIVDVhCCMBy2p64kIaASBJJlEn6oGBj1jOHSqHFz1bKCxL1WW/L148WIVD0V7z7V3zZlA8G9treD6wL+1iKuMR8KAa1OZb4V94n2OHTs2HOWVfeYaJATBE2c6IATBxXF1F0Egy2YmNi4kZN80eGI+BS2vO6MocpEgceB3XBTI2MnWGT6ZoZX5PQMT0WiQhkIU700XexeC4OKEkWoei4AzQaCqjSq3jz76SL2rd955p0s2SnyPKKZnDhOGU6dND1UW3PCZY4XvPnOycMNnwDO+6/ybCZwYNI2GgQzJzvwqDK1OokGDSS2R21SBz4PJvn37sHDhQvXDZ58zZ44QhKkC/Da3KwTBxQFwF0HgwsAXm6cOLgRk5PQMIEHgPfiy82TCEwIjKJII8OXn91w0GFaZCwEjKTIbHBcKvqAiQXBxIKWaIDBJBEYSBDbHDZxBxLh5M0aIlrb9Vrei2/Qnn3wCZnWlBOHAgQPqfeYawesZ/ZQHAxoCkzjwcEBCwnWBUkMaS9KTiIHLeMhg+md+7qoEY7wwkAzs3LlT3YPJ5HgoIYkRgjBeJGdPfSEILo6VRhDoycDNeqKFLy9fdL7kTLrEkwPJAF8ySgp4SmD7zK1AfSZ1m1xEKMZjYV3+zZME22ByJIZpnq7C/jPMstggTBficp+ZhoBGELhZ8z3Q1IN8Jw8dOqTeZYY9v5XRIt8jLZsjiT6JP6OTUgJAQsD1hiHSuVbwexIInt55v8jISFWfbVAKyToMXsZDAw0mx2sHMRa+vA/XJuaGYb+Ybpp94FpEciMEYSwEZ+/3QhBcHDt3EgQaNnExoHiQJwWKGrnJ0wqYEgSeIhhvgX/zpefflBCQPLAO/a6ZhElTO2h2DC4+yqSqCUGYFHxysQcg4EwQnN0baY9QXFysNnTq5CmCv9VmTQkAjZ4pReRGzzWBUgVKIUgA+J5z3bl8+bKSGnKTpqSCBIIbNN9F3p9GkryOBwftc3fCTCLDQwpVIExLTwmCZhtBCYLYILgT7ZnVlhAEF8fDXQSBt+Nmz0VBsxvQIjPezFjR2TCR9bXTCtuZbutl3lMIgosTRqp5LAKjSRD4bnCjpmSQm/qaNWvU6Xo0ksD6zu8+AeM641xfUxdoBor8noV1tLVBM2h2NnB0F/hcp5j8jT98npFZYUXF4C6kZ2Y7QhBcHBe+KLQF4MtPlu6tRRM3UvqhGVd5Kxby3N6JAE/+DDnOjZlSvpGFkj2mZqfOnp4N06kCdPeI0Gia9lL0uFq0aNF15EUzoKa0hCoQiYPgbvRvf3tCEFwcAxKEw4cPKyMdiv+8tZAg0HOisLBQZXKkOFSKIOBNCFDUz6RlFPePtilSysDvuVaQTLsj3fp0YszNn89ACQH/pkH1zcgQv6NNAqUL3rwuTufYTOe9hCC4iDYJwpkzZ5QR0lT7GrvYpdtSjQShp6dHGVBt3rxZGVlKEQS8CQFKEF599VVlZHgrQ0SqA2g8SEkCwzGTKMyWwj7TloJ2EJQQjEYOiAUNMvkjEoTZMrqu91MIgotYaTYINBiczSJDFx931GqaDQKNK3lqkFwMk0VUrp9tCGg2CCQHY+VgoAEy3R95qKC6gRuusx3RTHt2vt90p2YwJLpf03WSMVtGc6OmhIEGlhIoaaaNpHv6IwTBRRydCcJk3BxdvN2MreZspCgEYcYOk3RsChHQCAJP1WMRBNopMEYB9fiZmZnKbflmp/Ep7O64mtbWOXpj0IWaRomjSQZIdOjmKF4M44J4VlUWguDicAlBcAAlBMHFCSPVPBaB8RAEgqAleqOBM10fedp2d6wCd4BNMsOgS8yzwHgMVBvciswIQXAH6jO7DSEILo6PEAQhCC5OFanm4QiMlyAQDhr2njhxQkVRZfTDrKysGUUSuNkz4BJDP1NisH79+jFtrYQgePhE54HQPpMVYjMIfyEIQhBm0HSUrtxGBCZCENhdej/Q/ZFhk0kS6BkwXSHSx4KLxoZUg9A4kaGimfdlrJDNQhDGQnX2fy8EwcUxFCPF6wmCGCm6OHGkmschMB4jxZEPT6M+ekJRxbBixQrl2TDWRjzVADK4EwMhMaoj+0SjQ1f6pBEEMVKc6hG6fe0LQXAR+5EEgfo6u80Ku921BrRqOteqz8xaOp2K/sgcEEIQZuYQSa+mHoGRBMFmtQ5HRLzV3fnu2+x2lab96LFjKqQ6N+TgYOZzAG7L2qDTgaHfKdkoKMjH/PkL4O/vB4yyrmkfU/LBHxopCkGY+jl3u+4gBMFF5J0JAll/bVsnynvMMPr4UVMz1IrzW8XPHP/3tZgQbTEi0NfPJWbuWpeute9cXwcd7KO93dc1fPPrR7s3n0SvsyE2Ogw2m0UIgmuDJLU8EAFnguCj90VZSxfqTTrYfHyG1oLRdlc7gkz9iLBZUV9bj6rKq0hPS0JKRi78fBmR0cXTxg2Y3uxdvtmadP2FXCd6ulpw7uwZ+AeEo2j+AgTeJDLkyNtRckAOkRAXhd7eHvFi8MA5rj2SEAQXB9eZIERHReHj8ib82RSHjpA4wGJmmkWAERZ1PkySANisgN5XLRihXQ3Y2NuMzLBo6NRnw/APLQqOF9wRS53f3XqhsNvssNtt0Pn43EA4jIP98PM3wMdHr25iZ790uuvqKbOTIdEH23ClsB2rsR1p8XqEBPurrHLi5ugKclLH0xBwtkEYNFvwWu0g9vmlwerr71gLuAb4DUVbtVrU+we+jzYrMptLsQ5WRAZHoqWpEhWX9yM2MQcZuSvg43vt5M5LxloLtIRJrOi8FnAdsVhMMJtMCAgMdqwDQ+/8tfddh57ORlw6vQvBYYmYM3cdDIFBLg2V1WKCztyK/OwIdQ9xc3QJtllZSQiCi8OmEYTz588jOjoK71e04Q/6fLQExgAn3nMsDDFJQPZioLIYGOwF5q0D/AIQ2VaFh7trMTcyAT6+TNPqA4olmxoq0NfbiajoRISGR6OttQ5+vv6IiEqAj96xwY8sKsVqUzU62hoRHZuMqFgaOjnqmowDKL96Cll5S2AwBKn/N9WXIyIqHiFhDIlM4qFDb087muorFZFISs2BLxemoTIaSeF9jb21SIocRHCgXiQILs4bqeZ5CFwjCAb0myx4ockHu8IXwdxUDVScYzY2IG8FEBAEFB8A0ucCyTmA1Yq5dcXY5mNBQkQirBYjqkqOorr0GOJTihAYmojElGzYbFZ0tjchLCIWwSGMVHrzA8NAfy+aGyphtZoRn5iJ4FDmiOFBwwfVFeeV2iMje74aALbH9z42IR0GQyAG+3tw8fQ7qKu6gIz8DUhMyUdMXIpTECedQzB6kwOLxWyEpa8COan+KumcEATPm+PD+4F4Mbg2uNcRhKghguCTgxZ9MLD/FaBgKXBkN7DxM0BjBdBWD6x9BAgIRmRbNR7qqUdBVJJi9s1N1fD3M6D0yklExSRhcKAXSSk5KLt6CiGhkcgrXA1/w41JYNhTvvTc9FuaqpCQlI2Y+DSlC+TGXld9FU31ZcjKW4zB/l5Q/FlXdRlxCekIi4xFcHAEdD56dHe1oLr8vFp8UjPnwpcnH9W2VZEPQ2AIwsJpPEXpgmNxogTB2FuH5KhBBAcJQXBt1kgtT0TAWcUwYLbghQYddoUvhPnqSaC/i4EPAPMgsGAjcPRtICUPKFytPi+oP49tPnbEhcehs6MJ/b2dKD2/F33dDQgMS0FK5iIEBYeh7MopZOUuQmrG3FEjL/b3daOh5iosVjOS0vIQFhY9nIb50L5XkZ27GL5+fkoSMdDXja7OFiSn5cIQEITa0qNobSyFISQR4dGp6hARl5AxdC8d+no71OElNDwGgYGh15EUEgRrfyVy04QgeOL8dn4mkSC4OMIjCcKeilY87zMHLbogYM9/A/FpQH0FcO+Xgd4O4PIxYOX9QGCIIgjbOmsR3teL5qYaRQq44VJikFOwHFVl59RC0NJUDbN5ELlzV6mX+KbFbofJNAiTcRCGgEAlBVAbuN2O00ffQ2xCBvz9A5QkISAwBGbTIPr7upCclo/M3EWKDFgsZnWC8PMzwD8gaFj9QLUFCUJ9zVXoff2RU7AUhoCQIYJghbG3HinRgwgRguDirJFqnojAjQQB2BU2H+ZLx4CmSmCgB0jLBxZvAY6+CwSFAoVrACsJwgVs7OuAsbMdgwN9SMuci5NH3kGQwY6utlokZizHnLlrcPXCEcQmpCE9e/6oBMFmtcBoHFC6CP+AQOj1furQ39nRjHMnP8DytQ+gsuwsGmpKEBWTjK6OJiUt9Pezo6+rFnMK70R4TIaSQPr6+av1QLOnMg70oaH2KjramxAXn4ak1DzohqSaJAi2/krkpQtB8MT5LQRhAqN6A0Eob8HzyEKLLhD48AUgdymQkgtQlN9SDVw6Cqy4zyFBaK/B5sYS9F85jbCIeOQVrUZjbakiBPlFa1BZehapmfPQ1lwN2hDMKViuNneSiNEMDkeaJRkHenH84E6sWPcw+vt7UFt1ETGxKbhUfBB9PR1Yu+kziIhKHG5vNLNKkgeeSs6d+hBLV29Xokv2gX0x99UhNcaIkGBfUTFMYA7JJZ6BwHUEgSqGejt2hRbCfOU40NYApBU4VAok+Sf2qEMC5q5Sasj8+osorCjGYFszUrOKkJpRiA/f+S0WLt+MutKDSoqXWbAJtVVX1KaeNkQQSN5HK85rAaWJF8/uVwQ/d+5KVJWfQ29PB8LConD84JsIDQmCwdeClKzFSMtZA19fkoKbrDJ2oL+3A5fPHwQlFSs2PDJEIACr2Qj7YBXyMwyiYvCMKT363BIVg2sjfCNBaMbztky0+AQBZz4Clt8L8DTf3wOc3A00VABL7wIyihDZVY9tva3IDIxAfV0Z2ptrEJecjYqSU0hMzlEvYMacBSi7fByDAz2Yu+hODPZ3Izo2FX6GwDE76KPzQfnVk+jraUfuvDUovXQU3Z0tyMhegPqaK+rv+OQ5inj4qlPCzYvVakHpxSOKpKRnL0B4ZJzjREGDKZsV5v56pMUYESoEYcwxkQqei8ANBKHOil3BBTBXXgBoz5NWCPC03VAOHHoTCAkDVm4DQqOQ33gZd0OHALuP2ryp5mttrlbv2mB/B9obziMkLA59g0BsYjZS0gqUCiEyKhE+vs4GzjfiS6JgMZtwdP+rWLjiXiUZ5KEhOTUfej9/VJYcg3WAa0Eucoq2whAUNuogdbY1oKr0LEIjYpCcXgCDIXjYWctiHoRusBr5mQZYxAbBcye6RFJ0fWxvIAhlzXjekoqWkATANAgYhlQCtFrubnPo7PhZcDgiO+pwf18rcsKT4OsfAJPJCDtsaKorRU9XqyIJtHyuq7qoVAIkD7Xl51G09C4EUjw5RuHp4tSht5BdsBwhoVGorbqkxIlRsclKEkGDxd7uNsRQ/eAXOKrDNdvhAuNPUmK//lTBk411oB7pcSYhCGMNiHzv0QgMEwR/fwyYrXihzoxdhlyYdUOGxbTp4W7NwwJ/SBaCIxR5yGu6grt1esSFJyjybTINKCPD8ivH4W8IRmCALyoufwSjyY7E9CXw0fspW6LMnMXDJ/hbgdvWVKXe/wXLtyrVYtmV40r1EBQYhMaak/DRQUkoouKzoPcZnXBQkkhPCqokRwbbtdK+wliNuVkBSl0pRoqeO93FBsHFsXXOckYvho9KG/BKbyTagmIdbkzOZcT/w7sasX6gCxmhceqFv2Yd7BDuMXaBJuYj66d1MlUG4VHxahEZK4AK4xLQdiAmPl15Pzi7Rzm6QhGAiw86SjUVFMrShuxkPUKCfBESEiJujpODVK6epQiQILz77rtgume6Ob5a2Yu9umSY/W5iWKytBcrN0IrM1kqs9dEjKiTW8fRDL7djE9bBajWiqeYcOprLEJ+6CL6GMGUkaAgMdmElAHq6W5U6MCwybjiIG20GmmuL0dFSgoS0RYiKz4GPRmZuNQajhEqhm6OfvRnzcsOH3RyZhIpB1KR4FgJCEFwcT2eCEBMTjfKGFlxqH4BRN7Thj9qODr5mI2JsZgT6GlwMlORMGVzrINUMtlvoKV1rZfRaKjiKL5CaHK0WOiEIk0VUrp+tCGgEwV/FPdHhYn0rqvrtsI8VU8QOFSgpWqdT7syjFYtpEPW1JWhp7URCchYSExLho3ctXonmeaSd+s0mM6prKtHVXo/U1DSltqREYjKFksaQQD3SU+OHAyUJQZgMojP3WiEILo6NM0GIjY0dDjxyg/TAxfZmYzVKN2gE1dHRIQRhNg6g9NktCDgThMDAwFG9DCZ8MzvQ0dkBpodmFsjly5chLi5+3Imd6BJdUVGOkydPIjk5BYsXLwb7646i5WrQQi0LQXAHqjOvDSEILo7JSILg4mUeV40LAwlCaGioqBg8bnTlgVxBYCRBcOWa8dahBKCpqQnHjh1T6ZeZ/TEykoGQXC/Nzc04cOCAeleZ8yE8PNz1i12oqaWIZi4GIQguADYLqwhBcHHQSBAuXLgARlKkBEErY9kHsN4k1f8u9nB6qglBmB6c5S4zF4GbEQRX1oHxrgWUAFRXV6s0zAkJCVi1ahUCDIYx1xO+o0wtvW/fPlitVkXkndcsdyErBMFdSM7cdoQguDg2GkEoLi5WL5vFagPdAnWupHNUhkrMszC6L7OL3bit1ajf5GmG+ezDwkSCcFsHQ25+2xAYJgh+fjAEBsJisYJBi1whCTRJHs+RgetOWVkZTpw4gXnz5mHhggVjEgSr1YaDnxxATW0t7rjjDiQlJblo++Q6pHq9D/R6X7S1tSEvL08kCK5DN6tqCkFwcbicCUJ0dDRO1rbiYLsV/fqb6fScFwEdAk19yDX1IsrPkYdhomVYEqFCEwxlbXRKE2sf9lhw1LwuGNLQd6pnTO4yzk7Q20KvMyMjNQr+fj4ICwsTFcM4MZTqnoGAM0Ew23XYV9uJ8wO+sN/gNnj9OgC7DVF9bZgDK0L8XbQF0DFCsxV1tRVobbyKtIw8xMRnDccn0XyclFMyc8TZbWisuYDGhjqkZC5ATGw89DSeHFo81C+n9UM3TvEmq/OgE2SwIScrXtlIiIrBM+b1zZ5CCIKLY3sdQYiKwgdV7XhBn4uW0CRH2jVllcw3lHHYTQBjCTAMqk6HyN5mPNRdj4LIeJWsSSsj9nPYhyQNXEhG28C5EPC0YrVYVPY3vV5/zf3Jbkdfb5dyidIztfTQjfhS2ywWFaWNxdffMG6CwGuNPfVIGErWJDYILk4cqeZxCDirGJiLYUeTD/aEFcGk93fEPGDyNK4JfP/p+keXQmO/ioNQ0HQF22BBvBaEbAgdhzcks7SS+HMTd2SFHfofrBYzrhZ/iNqKU1i05jHEJMxRCd8oxeR6od53xlKpPIuLp99FdsEGxKcUqkBMzl7XPBxo6wfDK4+WFO5Wg8Zw8Na+amSnOMK2Mw6C2CB43DR3HDIlkqJrA3szgvC8NR0tF08Dve1ASCSw+kHgxC6guQZIzXeQBL0fIuMS8XBPA+aqaGiO5Cncq2urg9BcH4C587uQPFCBrDP7VWeuLtuC3sj4mwY04qJQU3UJjXVlKj46szGSJLAyk6ucP/0xFi7b7AjVrE4VjuxuNRUX0Npco4KmFC3ZeMNDK7eooZPFzRBxEIQ6JEYMICjQR4wUXZs2UssDERhJEF5s9sV73QaYS884SAHDKjNKISOqcrdfeCfQVAGkF2KuqUsRhAS+3/9/e2fi01aWpfHPGDBgNpvVEAhLICQEsqcDSSqTrlanRpkZtaak7lFp/rtepJKmNT2qpWsyVUkmlaWyVyCBkBSEzYZgjMEsxmBM67vGxGGJr8Em9st5qlJ3ifue3/3Offf93rnnnrP2NR4IZKL7cTGs1iBaD3tQNdCN2t77mKhtxvDhs1hWdVmYI2EJP9/+Ev55L46d+w/AlKXquCwvB1TW1FBwAV33/guVNUcQMuWreeHgkc41X2J4eZP1H4YGnmHaO47mQ2dgKwknbIoc4eKN4dLz2x1hQBhEY3WWAIIBx3d0lwQQNA28CRAGp/DHQAXcvU+A5jPAnb8Bnf8G2ByA8xXQdz9coIW1GCzZ+N3cGA7kl8Dvn8Mb12tUVrXhyf1GuEZz8S+fDeD8wN+Q6/Mib9YLV2Mbfjn+a4Sy3pZhjtwmA5c8biemPC6UlbMKW6Xa/sQHmwWaWIRpf0ObggFrgR32Ukd4rXDSiZmpCWRl56jCUBvXQZmvnddlNUmWnmZK5oyoSUIBwpwLVTY/rAIImqNGmhlRgU2AMJ6B78YDWCYcMMfASB9w8Q/hD4RrfwYcjUBRKWB34NDsOK5gCcU5hfBMjNK3B5P5JG58Vwl7aQC/73iA1nvfIJRhhsU/h1enfoPx+ta1ZGz8CPDg+YP/VjUUWKZ5fn4OTFyUm5uDkf57yMrKxYG2T/Hgzt9x4sxlVSnWv+CDrbQaBYUlCiY8EyOY9U2huvYgrPnv7mzgcz416YJ/YRbFJQ6VyZXzRzQuhAFhCE01AghGHN8CCDuw6mZAmMQfFyvgfvwjkF8CLM4C5/897F7s+QlgYpO2T9SEYfOM4J+nBmEeG1F1F/btPwxHTRM8bivu3ijDb868wsX+v8Jbug/WmUmVWKn7wu+wZMnbtBSglgtCIbVcYM4ww7SWnIWuvge3/gf1TcdU7Xe/f1blcSdAsOIjs6uFEymZ1pYl3hWB54+7BuAcfgGrtUh9eWRlvV0O4e8tzbtQbScgmMWDsIMxJKcYQ4HNgGDCdy4/ll394aWBshqg7UI45fqjq+GqjnaHWn48NNaDX7lHsTA5hmxLHuqbjqOo2I57N0sxNZmF/zx6Hc1dNzDccga1L+7D1dCGodazWM0wrwcnet2v8fLp/6K4tBa1TZ0qVfPgi5tYCsyjuf0zzM35MNTfjfZTn6oKr46aZhTbKlVJ54jXQs0frP5o2pypdX5+BiOve+CdGlMfGxVVjeE4hrWDkBHyD6K5RpYYjDGit++FeBA0LbwJEFju2V8Gd9d9oPoAUHMwvMzACWFqHDj+a6C0GsjIVNUcL08OIfPNKEwEhpIqlJU3wDlSjIe3y3DxTD8+G/0Soexs5Mz7MFtchieHz8JcYEPGVvnSo3GeKwMmE6Ymneh7fgetx/5JeRJKSqtQUd2oJoH1a7wngHp5ya+8DO7xQZgyzGhp7UBmVOpYplpeWnChplQAQXPISDODKrAJEMZWw4DgGX9byZFw8ONfw/PC4U4g16rWFVtcvTj9ZgjBuVnkWQtR7qhDntWB29cqMDtjxhcnbuLEs7/DU1kHm3sUrw4cw3BdK7JyrOsBzkytPuHqgbP/PopKa1UhtdnpcdQ2daCk4gCePriKckcDrIU2vOj6Ee2nfqvmAZaBjxRfC5PCVgZiHNM0JsZfwzvpgmNfs5pHolMzs1jTamAIB2sFEAw6xNe7JYCgaeHNgOAOexDcHoAu+9xCYDkA/P+X4SJNjoa1OIQ82LwjqppjY34ZfL4pzExPoLyyFS+698E5nIeWZg8+NV/Dfle3qszQd/hXuOWdQN3B0+FiTTEijU0ZJjx/ch251gLU1LXDOdyjikCVVtTCXlKtvlRiHQsLM8r1mJNXAHsJlyW4vBG1Nslqjn4XasoWVZpVCVKMpaj83agKbAIEZygcg0DvAZ97gnX/U6DrBlDbEi4DX7ZfpShvGWexJhMKs62YnBhFtoVeulY8usvsrMCF9lc4776Koskx+EocuFviwERmtqqoGC7NHD6Wl/1wvn4AZ/89VdqZpZsra4+qGIOuh1dxouNf1W6Dvme3kV9oR5GtUj3Xphg1GHiO1zuuSsTb7JVrQY5rRajWfjsYXATWyj1LkKJRR3m4XwIImvbdCAj/NzCBPy3vg9tiB0jmKuo4BMxOAYwsZlllBioxSNE7iius5lhcBXOmRS0PhEImeD25WAlmwJIbREnODGzTYwiZMzGea8XgSB/qm05qVXDjQ/2i+xb2Hzjg1QvDAAAMtElEQVSKvLxiBAJzChAsOVZY8+mFePcB3/K7YS2fA+MOtuIRfqUE/WPYXx5Afp4AguawkWYGVOAdQFgK4i/OIL4z14WLNXFZjrE7iwvAvC/8/3MLAAYarq7g4JuXqppjWVGles5CqytYXLDAN80dBasoKAigdHUS+dOTmC+wo9/nUTUeyivr36mhwJ0IE6NdGOj5Xs0pjUd+i9LKFuVJZABiQ/Mp5SKYnfEgsDivIIGBy9uWco2yE+eT8NLD1nPBSjAAU2AIh+rfVnOUXQwGHOgCCPpGjQYEu92O2/1OfO21wJtTvCFOYIP/HyZY5z04tTgHh9WulhgiR2Sbo/L2Rb2Vg8ElhILLyF6LXo51l4wvYFBRrrUwvOUx/E8sx0Osy77zd/5GRsiH5jorrLlZ4kGISz1pbCQFovMgBIIr+GrAi9vBYqxsKsC0YS4IhVA97cKxDDMKWf45auaILvq4rtXqKpYCfpgzM2HmFsr1h3oVC3PTGBt6gtXQonrOM7PylQchHFfA75PYXsOd2oRzU27mLNpayrAUCEgehJ0KmQbniQdB00gbEyVN+eYx4V9C0MQ8BO8/TCtBWFdDyFLRwLFaa97QHjfjlslMM1BclI/Aol8AYY/1l59LHQUigMDyxplZWXgzM4/pZRUMFPMms4LLyDMxhnnnFRWnvF48efwQhfkWtLa2gXNTV3cXQqtmHDt+Uj2bse8k5q1u24Bboi2WDNiLC1RdFsmkuHMtU/1MAQRNC0UDQmlpaeIruGnex4duxi2V09PTkknxQxtCfv+DKRANCEmp5viengUCAdy8eVOlOL548SIcDofa1TQyMqJqNlRXV6vCTEyJnsyDSxAEhampKQGEZAr9ga8tgKBpgI2AoHma4ZpxYhBAMJxZpUNxKLAREOI4dddNCQE9PT24dOkS6urq1hMa8WXd29uLO3fu4PTp0zh69OiufyvWBQQQYimU/n8XQNC0oQBCWCgBBM0BI80Mq8CHAIQIALBC4/nz59He3r5JX85RLOr09OlTXL58GfX19Un1dAogGHaIr3dMAEHTxgIIAgiaQ0WaGVyBDwEIr1+/xtWrV3H48GF0dnaupVffLPTy8jKuXbsGp9OJK1euoLy8fB3sE20WAYREK5p61xNA0LRJBBC6urrAGISP9Yj2IPBLhlUd5RAFPiYFCAjffPMNGKTIGIRkHnwJj4+Pq7gDm82myjdbLJZtPQN8Pufm5vD9999jaWlJLUUka76KAEJLS4sUa0rmIPiA1xZA0BRfAGGzB0EAQXPwSDNDKbBXgMAXMIMRb9++reqtMCixqKgo5rIBIWFychI//PCDat/R0ZEUkBdAMNSw3rIzAgiaNhZAEEDQHCrSzOAK7BUg+Hw+FVPAoOCzZ8+iqqoqLmWHh4dx7949tdPh+PHjsFqtcZ0fq7EAQiyF0v/vAgiaNhRAEEDQHCrSzOAK7AUgLCws4Oeff1bLC8xSuH///m3jDraTe2VlBX19fXj+/LkKWGxra1PLE4k6BBASpWTqXkcAQdM20YBQUlKieZbxmtF9OTMzo1yWssRgPPtKj2IrEA0IOTksgJS4g88Xcx1wy+Ivv/yishRyjX+neQ14LQICgxyPHDmCAwcOqNgJvtwTcTAPgsQgJELJ1LyGAIKmXQQQ3noQBBA0B400M6QCEUAwm80JD1LkVz9f5tyqWFNTo17qeXm7S5vMoEV6IxiXwKUGXpcxDbs9Ih6EQ4cOSZDibsVM0fMFEDQNI4AggKA5VKSZwRVIFiDwhTs2Nob79++rHQsnTpxQaZN3e/C6TInMeAQCCIMWE+EFFUDYrWVS/3wBBE0bCSAIIGgOFWlmcAWSBQj0zN26dUulTj537hxYFC5RB1/mLpdLQQKve+bMmV17JgQQEmWd1L2OAIKmbQQQBBA0h4o0M7gCyQAEJjgiHLx580blLqioqEiKioxr4LZJLl0w+JHLJDs9BBB2qlz6nCeAoGmrCCBwbTAR7jnNn025ZpEgRe6vliDFlDOP3NAeKLAREHYT8MfniW7/x48fq8BEeg4aGxsTFkS4UQ5V+bGrS9VzYFGnpqamXSnGIEWJQdiVhCl9sgCCpnkEEN71IAggaA4caWY4BaIBYbe7GLicwK2IdP0z5oBf9okIIHyf6MywyKJO3ELJzIz0VhBU4j0isQ0CCPEqlz7tBRA0bSWAIICgOVSkmcEVSBQgEA4GBwfV0gK3M546dUptQdyLgzsbmL6Z+Ra4pLETr6gAwl5Y6sP+hgCCpv4CCAIImkNFmhlcgUQAAl+uo6OjKh6AX/DcWbBbb0S8srvdbly/fl3tlOByYbw7JgQQ4lU8/doLIGjaTABBAEFzqEgzgyuwW0Dgi3ViYkJtZ6THYCcv50RJPDIyoiClurpaeTDiKT4lgJAoK6TudQQQNG0TAQQmHNmJO07zZ1K+WSRIsbi4WIIUU95acoPJUCACCIwV4As13iBF1lYgHHBO4XbDZFVb1Ok77/3ly5d48uSJWuZob29XWRt1+8QgRZag5o6IvVoe0emXtEmMAgIImjoKILzrQRBA0Bw40sxwCkQDQrzLAjz30aNH4Iv15MmT2Ldv344CBBMpKrdYPnv2TIECMy0yHbNOoGTEgyCAkEhrpNa1BBA07SGAIICgOVSkmcEV2CkgsC4CX8QMTGThpIaGhpT56maf6EVgOmYuNXDJIdbOBgEEgw90AAIImjYWQBBA0Bwq0szgCuwEEDh/8Au9u7tb5Q3gvzstwJQsebn0cffuXZWXobOzM2YmRwGEZFkida4rgKBpCwEEAQTNoSLNDK5AvIDA7YxOp1O9fB0OR9zBgHslZ6QWxE8//aTiIuhJeF+hKAGEvbLMh/sdAQRN7QUQBBA0h4o0M7gC8QACX6Iej0clJmJAI7MXslR6qh6Emf7+fpXZkUGLra2tyM7O3vJ2BRBS1YqJuy8BBE0tI4DAdTrZxTADBileuHAhpSc7TdNKM1EgLgUigMA1+lhBij6fT2VJZEIiuu3Ly8u1dwjEdVMJbMxMi0zHzLLT3J1QX1+/ZaxEBBAIEbKLIYEGSKFLCSBoGkMAYbMHQQBBc/BIM0MpoAsIDErkdkYWYOJ2xpqampiBf6kiFPv48OFDVSaa986lkY1BiwIIqWKt5N2HAIKmtgIIAgiaQ0WaGVwBHUCIfIWzeiJrLOhuHUwl6QgHjEcgCJw9e3ZT0KIAQipZKzn3IoCgqasAggCC5lCRZgZXIBYgcBfA8+fPwcqvdL1zx0I6JhEiALCgE4MrWZyNSyTRmRYFEAw+0GWbo76BowHBbrfrn2iwlpFMijabTWIQDGZb6Y6eAhFAYOvoTIp8NiJBfnTP02tw9OhRFeSnm5lQ7w72rhXve2hoSHkS6urq1M6G6EyL9DJIDMLe2WOvf0k8CJqKCyC860EQQNAcONLMcApEA0J0kGKkABPjDiorK9XLlH9PVziIGI7Q09vbqzJAMtMiMyeazWbVL+ZOEEAw3BBf75AAgqZtBRAEEDSHijQzuAJbAQK9ByzAxMJHrIrI7Yz5+fmGUYLpmLlkQlA4d+4cGhsblbdEAMEwJt6yIwIImvYVQBBA0Bwq0szgCmwFCDMzM2rHAl+kDOijhy1WquJ0k4m7MhiPwLwOrEDJLZsCCOlmxfjuVwBBUy8BBAEEzaEizQyuwEZA8Pv9Cg744uzo6FDLC0aDg4hJZ2dncePGDfWfn3zyiVpmkGJNxh3wAgiatiUgsNAKEyV97EGKTP4iMQiaA0eaGU4BAsLXX3+tIIBVD7ljgdkHGZDIAkw6lRDTWZSxsTHlSaAHgUsNjLWQREnpbNHt710AQdOuEUBgClIBBJ/SQBIlaQ4eaWYoBQgIX331lSpq5HK5FCDwRRkpwJTuQYmxjMV+DwwMqMJThITPP/98fXdDrHPl7+mlgACCpr0ICD09PSptqtVqNawLUUcOTpBVVVVqHTKV88rr9EXaiALxKsDx/+2332JkZETNCQxKZPlmFjYyOhxEtGI8AvvOLJFffPEFLl26tG3Nhnj1lfapo4AAgqYtGLHLh4EPBbOkfcwHJ0GmjW1qaoqZi/5j1kn6bkwFGIjIaH4uOTIPANMQRycQMmavN/dqcXERbrcb7e3tKlvkdkWdPhY9jNhPAYQ4rMoXIz0JdLF9zAfXXrkPmv8aNRjrY7av9D22ApwD+ILk/37ML0bCEhMnWSwWmQtiD5u0ayGAkHYmkxsWBUQBUUAUEAWSr4AAQvI1ll8QBUQBUUAUEAXSTgEBhLQzmdywKCAKiAKigCiQfAUEEJKvsfyCKCAKiAKigCiQdgoIIKSdyeSGRQFRQBQQBUSB5CvwD7XTQ5oAakSrAAAAAElFTkSuQmCC;" vertex="1" parent="SAMm_WZ2sFC5QimjHP4S-79">
          <mxGeometry x="40" y="514" width="570" height="245.54" as="geometry" />
        </mxCell>
        <mxCell id="SAMm_WZ2sFC5QimjHP4S-93" value="&lt;span style=&quot;font-size: 15px&quot;&gt;leader自己接受到了p1,p2,p3&lt;br&gt;&lt;br&gt;但是leader发送了p1后就宕机了，所有两个follower有p1的信息&lt;br&gt;&lt;br&gt;重新选取leader，server02为leader，并且也发送了p2信息&lt;br&gt;这是leader（server02），而server01重新变为leader，继续执行之前的未执行的p2&lt;br&gt;&lt;br&gt;而因为server02本来就有了p2，就比较epoch位，比较大的执行，小的抛弃，所以leader发送的p2被抛弃了，而p2也是因为epoch不同也被抛弃了&lt;br&gt;&lt;br&gt;如果没有epoch位的话，就会如下：&lt;br&gt;p2执行了server01的命令，再执行p3的时候因为没有父节点而报错&lt;br&gt;&lt;/span&gt;" style="whiteSpace=wrap;html=1;fillColor=none;gradientColor=none;align=left;" vertex="1" parent="SAMm_WZ2sFC5QimjHP4S-79">
          <mxGeometry x="640" y="210" width="280" height="375" as="geometry" />
        </mxCell>
        <mxCell id="SAMm_WZ2sFC5QimjHP4S-94" value="数据同步的方式" style="swimlane;fillColor=none;gradientColor=none;" vertex="1" parent="SAMm_WZ2sFC5QimjHP4S-36">
          <mxGeometry x="110" y="1020" width="1219" height="1570" as="geometry" />
        </mxCell>
        <mxCell id="SAMm_WZ2sFC5QimjHP4S-95" value="" style="line;strokeWidth=1;fillColor=none;align=left;verticalAlign=middle;spacingTop=-1;spacingLeft=3;spacingRight=3;rotatable=0;labelPosition=right;points=[];portConstraint=eastwest;" vertex="1" parent="SAMm_WZ2sFC5QimjHP4S-94">
          <mxGeometry x="54" y="308" width="550" height="8" as="geometry" />
        </mxCell>
        <mxCell id="SAMm_WZ2sFC5QimjHP4S-96" value="&lt;span style=&quot;color: rgb(77 , 77 , 77) ; font-family: &amp;#34;courier std&amp;#34; ; font-size: 18px ; background-color: rgb(255 , 255 , 255)&quot;&gt;minCommittedLog&lt;/span&gt;" style="text;html=1;align=center;verticalAlign=middle;resizable=0;points=[];autosize=1;" vertex="1" parent="SAMm_WZ2sFC5QimjHP4S-94">
          <mxGeometry x="34" y="276" width="180" height="20" as="geometry" />
        </mxCell>
        <mxCell id="SAMm_WZ2sFC5QimjHP4S-97" value="&lt;span style=&quot;color: rgb(77 , 77 , 77) ; font-family: &amp;#34;courier std&amp;#34; ; font-size: 18px ; background-color: rgb(255 , 255 , 255)&quot;&gt;peerLastZxid&lt;/span&gt;" style="text;html=1;align=center;verticalAlign=middle;resizable=0;points=[];autosize=1;" vertex="1" parent="SAMm_WZ2sFC5QimjHP4S-94">
          <mxGeometry x="269" y="220" width="130" height="20" as="geometry" />
        </mxCell>
        <mxCell id="SAMm_WZ2sFC5QimjHP4S-98" value="&lt;span style=&quot;color: rgb(77 , 77 , 77) ; font-family: &amp;#34;courier std&amp;#34; ; font-size: 18px ; background-color: rgb(255 , 255 , 255)&quot;&gt;maxCommittedLog&lt;/span&gt;" style="text;html=1;align=center;verticalAlign=middle;resizable=0;points=[];autosize=1;" vertex="1" parent="SAMm_WZ2sFC5QimjHP4S-94">
          <mxGeometry x="447" y="276" width="180" height="20" as="geometry" />
        </mxCell>
        <mxCell id="SAMm_WZ2sFC5QimjHP4S-100" value="&lt;ul style=&quot;box-sizing: border-box ; outline: 0px ; margin: 0px 0px 24px ; padding: 0px ; list-style: none ; font-size: 15px ; overflow-wrap: break-word ; color: rgba(0 , 0 , 0 , 0.75) ; background-color: rgb(255 , 255 , 255)&quot;&gt;&lt;li style=&quot;box-sizing: border-box ; outline: 0px ; margin: 8px 0px 0px 32px ; padding: 0px ; list-style: disc ; overflow-wrap: break-word&quot;&gt;&lt;p style=&quot;box-sizing: border-box ; outline: 0px ; margin: 0px 0px 16px ; padding: 0px ; color: rgb(77 , 77 , 77) ; line-height: 26px ; overflow-wrap: break-word&quot;&gt;&lt;mark style=&quot;font-family: &amp;#34;courier std&amp;#34; ; box-sizing: border-box ; outline: 0px ; background-color: rgb(248 , 248 , 64) ; overflow-wrap: break-word&quot;&gt;peerLastZxid&lt;/mark&gt;&lt;span style=&quot;font-family: &amp;#34;courier std&amp;#34;&quot;&gt;：该Learner服务器最后处理的ZXID。&lt;/span&gt;&lt;br&gt;&lt;/p&gt;&lt;/li&gt;&lt;li style=&quot;box-sizing: border-box ; outline: 0px ; margin: 8px 0px 0px 32px ; padding: 0px ; list-style: disc ; overflow-wrap: break-word&quot;&gt;&lt;p style=&quot;box-sizing: border-box ; outline: 0px ; margin: 0px 0px 16px ; padding: 0px ; color: rgb(77 , 77 , 77) ; line-height: 26px ; overflow-wrap: break-word&quot;&gt;&lt;font face=&quot;Courier Std&quot; style=&quot;box-sizing: border-box ; outline: 0px ; overflow-wrap: break-word&quot;&gt;&lt;mark style=&quot;box-sizing: border-box ; outline: 0px ; background-color: rgb(248 , 248 , 64) ; overflow-wrap: break-word&quot;&gt;minCommittedLog&lt;/mark&gt;：Leader服务器提议缓存队列committedLog中的最下ZXID。&lt;/font&gt;&lt;/p&gt;&lt;/li&gt;&lt;li style=&quot;box-sizing: border-box ; outline: 0px ; margin: 8px 0px 0px 32px ; padding: 0px ; list-style: disc ; overflow-wrap: break-word&quot;&gt;&lt;p style=&quot;box-sizing: border-box ; outline: 0px ; margin: 0px 0px 16px ; padding: 0px ; color: rgb(77 , 77 , 77) ; line-height: 26px ; overflow-wrap: break-word&quot;&gt;&lt;font face=&quot;Courier Std&quot; style=&quot;box-sizing: border-box ; outline: 0px ; overflow-wrap: break-word&quot;&gt;&lt;mark style=&quot;box-sizing: border-box ; outline: 0px ; background-color: rgb(248 , 248 , 64) ; overflow-wrap: break-word&quot;&gt;maxCommittedLog&lt;/mark&gt;：Leader服务器提议缓存队列committedLog中的最大ZXID。&lt;/font&gt;&lt;/p&gt;&lt;/li&gt;&lt;/ul&gt;" style="text;html=1;align=left;verticalAlign=middle;resizable=0;points=[];autosize=1;" vertex="1" parent="SAMm_WZ2sFC5QimjHP4S-94">
          <mxGeometry x="34" y="50" width="600" height="150" as="geometry" />
        </mxCell>
        <mxCell id="SAMm_WZ2sFC5QimjHP4S-102" value="&lt;font style=&quot;font-size: 18px&quot;&gt;&lt;span&gt;同步过程（diff同步），其他策略大同小异&lt;br&gt;&lt;/span&gt;learner接受diff指令，并加载数据包到自己的内存中，之后返回ack给leader&lt;br&gt;&lt;span style=&quot;background-color: rgb(248 , 249 , 250)&quot;&gt;leader发送&lt;/span&gt;&lt;span style=&quot;color: rgb(77 , 77 , 77) ; background-color: rgb(255 , 255 , 255)&quot;&gt;PROPOSAL内容数据包和COMMIT指令数据包，如右&lt;br&gt;&lt;/span&gt;这两个包就是leader提议的队列里有，而learner队列中没有的那部分差集&lt;br&gt;&lt;br&gt;&lt;span&gt;leader在过半策略后会想learner发送&lt;/span&gt;&lt;span style=&quot;color: rgb(77 , 77 , 77) ; font-family: &amp;#34;courier std&amp;#34; ; background-color: rgb(255 , 255 , 255)&quot;&gt;UPTODAT指令，表示现在可以提供learner可以提供对外服务了&lt;/span&gt;&lt;br&gt;&lt;/font&gt;" style="whiteSpace=wrap;html=1;fillColor=none;gradientColor=none;align=left;" vertex="1" parent="SAMm_WZ2sFC5QimjHP4S-94">
          <mxGeometry x="110" y="712" width="560" height="210" as="geometry" />
        </mxCell>
        <mxCell id="SAMm_WZ2sFC5QimjHP4S-103" value="&lt;font style=&quot;font-size: 16px&quot;&gt;同步策略：&lt;br&gt;&lt;h3 style=&quot;box-sizing: border-box ; outline: 0px ; margin: 8px 0px 16px ; padding: 0px ; font-family: &amp;#34;pingfang sc&amp;#34; , &amp;#34;microsoft yahei&amp;#34; , &amp;#34;simhei&amp;#34; , &amp;#34;arial&amp;#34; , &amp;#34;simsun&amp;#34; ; font-size: 22px ; color: rgb(79 , 79 , 79) ; line-height: 30px ; overflow-wrap: break-word ; background-color: rgb(255 , 255 , 255)&quot;&gt;1.直接差异化同步（DIFF同步）&lt;/h3&gt;&lt;div&gt;peerLastZxid介于两者之间&lt;/div&gt;&lt;div&gt;&lt;h3 style=&quot;box-sizing: border-box ; outline: 0px ; margin: 8px 0px 16px ; padding: 0px ; font-family: &amp;#34;pingfang sc&amp;#34; , &amp;#34;microsoft yahei&amp;#34; , &amp;#34;simhei&amp;#34; , &amp;#34;arial&amp;#34; , &amp;#34;simsun&amp;#34; ; font-size: 22px ; color: rgb(79 , 79 , 79) ; line-height: 30px ; overflow-wrap: break-word ; background-color: rgb(255 , 255 , 255)&quot;&gt;2.先回滚再差异化同步化（TRUNC + DIFF同步）&lt;/h3&gt;&lt;/div&gt;&lt;div&gt;&lt;h3 style=&quot;box-sizing: border-box ; outline: 0px ; margin: 8px 0px 16px ; padding: 0px ; font-family: &amp;#34;pingfang sc&amp;#34; , &amp;#34;microsoft yahei&amp;#34; , &amp;#34;simhei&amp;#34; , &amp;#34;arial&amp;#34; , &amp;#34;simsun&amp;#34; ; font-size: 22px ; color: rgb(79 , 79 , 79) ; line-height: 30px ; overflow-wrap: break-word ; background-color: rgb(255 , 255 , 255)&quot;&gt;3.进回滚同步（TRUNC同步）&lt;/h3&gt;&lt;/div&gt;&lt;div&gt;&lt;h3 style=&quot;box-sizing: border-box ; outline: 0px ; margin: 8px 0px 16px ; padding: 0px ; font-family: &amp;#34;pingfang sc&amp;#34; , &amp;#34;microsoft yahei&amp;#34; , &amp;#34;simhei&amp;#34; , &amp;#34;arial&amp;#34; , &amp;#34;simsun&amp;#34; ; font-size: 22px ; color: rgb(79 , 79 , 79) ; line-height: 30px ; overflow-wrap: break-word ; background-color: rgb(255 , 255 , 255)&quot;&gt;4.全量同步（SNAP同步）&lt;/h3&gt;&lt;/div&gt;&lt;div&gt;&lt;br&gt;&lt;/div&gt;&lt;/font&gt;" style="whiteSpace=wrap;html=1;fillColor=none;gradientColor=none;align=left;" vertex="1" parent="SAMm_WZ2sFC5QimjHP4S-94">
          <mxGeometry x="95" y="360" width="590" height="260" as="geometry" />
        </mxCell>
        <mxCell id="SAMm_WZ2sFC5QimjHP4S-104" value="https://blog.csdn.net/en_joker/article/details/79422582" style="text;html=1;align=center;verticalAlign=middle;resizable=0;points=[];autosize=1;" vertex="1" parent="SAMm_WZ2sFC5QimjHP4S-94">
          <mxGeometry x="34" y="1510" width="300" height="20" as="geometry" />
        </mxCell>
        <mxCell id="SAMm_WZ2sFC5QimjHP4S-105" value="" style="shape=image;verticalLabelPosition=bottom;labelBackgroundColor=#ffffff;verticalAlign=top;aspect=fixed;imageAspect=0;image=data:image/png,iVBORw0KGgoAAAANSUhEUgAAA0cAAAEXCAYAAABmqz9dAAAgAElEQVR4Ae19/W8UR7r1/of9y4wQIxKbyPbe2ARiAQ7XGwfwZTfIi4WFM2INxJAshqwJ1/gqxnrNSGQQGRRnIjBaAutAgpeYTwu8xGiEhHReVXVVd3VPj91tzzAz3ceSNV/dXVWnTj31nHrq4w/Pl1fAf2JADpAD5AA5QA6QA+QAOUAOkANJ58Afkg4Ay08jQA6QA+QAOUAOkAPkADlADpADggMUR4ycMXJIDpAD5AA5QA6QA+QAOUAOkAMUR1TIHCUhB8gBcoAcIAfIAXKAHCAHyAGbA4wccZSAowTkADlADpAD5AA5QA6QA+QAOcDIEUcJOEpADpAD5AA5QA6QA+QAOUAOkAM2Bxg54igBRwnIAXKAHCAHyAFygBwgB8gBcoCRI44ScJSAHCAHyAFygBwgB8gBcoAcIAdsDjByxFECjhKQA+QAOUAOkAPkADlADpAD5AAjRxwl4CgBOUAOkAPkADlADpAD5AA5QA7YHGDkiKMEHCUgB8gBcoAcIAfIAXKAHCAHyAFGjjhKwFECcoAcIAfIAXKAHCAHyAFygBywOcDIEUcJOEpADpAD5AA5QA6QA+QAOUAOkAOMHHGUgKME5AA5QA6QA+QAOUAOkAPkADlgc2BdkaN79+6B/8SAHCAHyAFygBwgB8gBcoAcIAfeFgfehoBbtzh68fsr8J8YkAPV54AwMMS1+rgSU2JKDrySA5vEgW2BHCAHmpEDwj+iOKIAo5OcQA5QHLHTasZOi3luDt7SvjRHPbE9sZ7IgXIOUBwl0ClmQyhvCEnEhM4LeZBE3rPMb4f3tC9vB2fymTiTA9XnAMURxRGjRgnlAJ2X6htUdlLElBywOUD7wrbAtkAONCsHKI4S6hg3K2GZ7+oZWzov1cOSvCSW5ICXA7QvXjzID+JBDjQPByiOKI4YOUooB+i8NI+hZqfKumo2DtC+kLPNxlnml5zVHKA4SqhjrAnA1+QaAzovya17tnvWfa05QPtCjtWaY3w+OVYrDlAcURwxcpRQDtB5YcdSq46FzyW3aF/IAdoBcqBZOUBxlFDHuFkJy3xXz9jSeakeluQlsSQHvBygffHiQX4QD3KgeThAcURxxMhRQjlA56V5DDU7VdZVs3GA9oWcbTbOMr/krOYAxVFCHWNNAL4m1xjQeUlu3bPds+5rzQHaF3Ks1hzj88mxWnGA4ojiiJGjhHKAzgs7llp1LHwuuUX7Qg7QDpADzcoBiqOEOsbNSljmu3rGls5L9bAkL4klOeDlAO2LFw/yg3iQA83DAYojiiNGjhLKATovzWOo2amyrpqNA7Qv5GyzcZb5JWc1B2Ilju7f/A75/Cxu/KYr+BmmP7FgbWpB28EZ3NdO8PI8zv7lACb/pa8zXn/5Dkd79uLru8Z3v7/C4s1x9HUdRm7B+/38+V5sH5rCD06ar/Di4SzOZrM4Mj3vCo/bMziSzeLs9/cx/73I52r/t9y86jybr8/mMf35YfR92IJU1zhumb/xvYs5sVgVi6jOy+LtedxffoUX17KwLAuWlUVBYLwwj1sPVbtYnsWRlN3mBi8/C0h/EZN/aUNbRxtOFNU9z55h8WGY/2Xf8+Zxtkvkw4K15Rh+EHlbR53P5yaQ/8W495cJ7JTl24Wvze8ffocTJ7/DopnO8xD5fmY8W+ZvHtPCPmSzmL7t/42f11OHvKfxeBPVvkSrw/v4eqdq+8Oza7f75/eRG4vYZz77FoNtbdi+/zBO5O+XpfHD3zvlb19Oz2NxHXYnWnkbr36Zf9ZJnDkQI3F0A0e32May7e9alChHzbKw+dgNZdyeIXcwZTtUqTYM5hZdo/f8Bo5uVQZ3axaFJ4r8T77DoP5+U68rnJ58i0+FI2hZSPVMYF4bSO1cDc+iMCx+z6KgHMqd52ddoy4dMJWe571yOn+7VUFEjaN/s75vMz4dDxZahbt+Z5KNOc6NOWrZojgv96f2ImVZeDc7i6emOFq+j697UrBSLThybRkvrh/D5iBhodvG765Tc+SazUe7jWg+r/aq2oV+VlGnZeHdwYkKbcXbNvxtQpfLSrWhf0rZDd1+LVccicGRPZvsvL079J3jDM2f36WE4ir5Hp7F4vfjanBECMZZHFHtXWMQte54PW1Zo3MgvH1xBwvEgEHZvznIqNu+YUesMOLo90VM/km30c04qgdmnOcF8OlaVto8ywq4ftn1N1J//RZPV3sOf3N9LGJBLJqEA/ERR7fH0CYdjs04el0ZOuc7C5/mDKHw5AaObtcCaS8mjajP4rUs3lWOS+rgt44T9OLuBHYKISScqGl7FOmHYy1KZLlOlOywtHNVQRzpkXMxer5Zi6st9mi6+K6t4yR+EARynFBt1KO97jxfPtrV6B0q8xfQSdfImIR3Xl7hhRggEIMPqV34+rwbOZpUokkPDtz6e5vdJrYeQ8EXDXoqIy6VxdHmnsPljpFwlgZ3KcFliiP3OXYUK1zbKGsTy89QOLZDOUEpvP/5DTzV7VeJo8X8YbTpdrpdlMuto/tTB9DW0eLcv7nNbsdOu363DW2f34AWUXb6FEds5y6H4opFePvitofAthwofoz2b/5ePCmj0nY/avapbWjbovp8MZjp6W/d6/qnFvFCRYPz2c22Ldt8GLnfVIT4ie1HPL08UFk4SXu9RpmUjyHtgdnPm2URz3FskbBvtv3TtsQyBm/W8hXK7F6N+pS4cpnlir+98tdxbMSRazDa0Ddsjz4N/rcSL9Zm7Bz0jUgd3CEdrnf/pB2yceX0LKOQte9LtQ0gd1NNkctmMfinFjjXD/U6ImrzhwO2U/fVrC2mtEELFEemYHEjW4EjyI7RTOFdKZpcIx5o/H3XSENPI8iRmgocCO+8PEPhqyw+/bAF2/+SxZH9nSpa0om+bBb921uw/eAMbv0+jy87KomUXTgzI6Inh7FTRXjf35/Fka9mMS2jqxYqduC6PelpfGKaa047JxZSQoD4uO/53LZZOTLeNJ464m0Rhb/vwuath5G7+wyLN8ewXTovO/DlzWdY/O0GTnRZ2PzJBG5oJ+mhMdjiRIL0IInruOl2re0TxVHyOll/p5uUz+Htyw2cCGi/eoDBEv25EhOB4kn9Jtua02dWskOrfy/ap26rgWntFDNEzChUwPOkwIkgjn5/pWaY2M/SNuOFGR2zLOjv3fxpexNyIFXmne0vKe2P5dwY12MojgKMVQjD6hmFeTaLsye/s9dXOI5ZiOdq46PvqSCOfvhcO3PlI87CqXNEjWPozRHzjVU4Gwzx0xwI77y4zn6gwyDbVxZ5Y5pb+XW7cOqLgCloOyfwtRJHoSNHOool0u0awy1zDVCQENTt0TLFUTjnpbwc2g6YbVI/SzsrLl5+h4biiO1Pt7+4v4a3LzYnFm/O4oaeym4MtGwfH1+HOOrFl6uu6/VOt9VrgMW0W1d86LZuvIo+/l/jeH81nyK0OAqyISIt9b3T/1swpw66+dP2JqQ4Enn2R6aC7CW/44AqOYDYiCM9p9+Zr6wiQ8K5efe/dXTIFz3yzG/WkSNf5603V9DXOlN8LMiRb/29eA0ZOVprjYUzgu4YR2EsXYerssPmGnHnGSQ5DV0FDkRxXp4+EdNKVITFcQwGMP3LfdyXEZhFTP9VTVvZehI3VJqa6zsnFtW6m8qRo7V5LdrBIqY/WXt6jIwcfa7WGdZMHOkR7/JBDj3qbUe1TmJSrU2iOPLZ1wrcjLtwSEL5wtuXReQOtsnorlzTKDjx7Ft8Ku1MCke+X8SNMqEzhUEdpf7TmFxvKDdi8vSZr/BieRn2dN5XeHr3O3z9t714v8e7iZHwHU6c/w43frGjwY742D6GGyq6PP1X1bfuPIkvnTXLwv7pDVlu4cvt6ppKAsSwQ8LW6YEThwtO3oWIMaNlpoh6ZYi3IHFkfKfblidd77OctPW1fKW/QA5IDsRGHPkb+a2v9NSfXs+aIv915mftyGknrcx4CdIYhibwd/OaCpEjnc72sVu4/8s8bt2ex61fFnFjbIecruQIG8dYUhyZ9cT31XEwwzsvtmNx9ENblKRSWpy04N2tFlIfHkP+2rja4c0Y+TQEvdtWXJGvvzPbg961TrcF668zxk52y4bT5A4E6PZa9qqdFKPN9k0H7aAnnKj7KHx1wFlbZD4rtWUXBoXzZKxNtDmoI0Zr5SWLrymO6HQkzOmIYl/uT9sbvlhWC458vyzX24oNYCxrL6bFGr+Ht1C4abZd1454oiFOnzmAE+f34v1NFjb/TQ2SOJvFdOKss1PtMnIHVfvtGJM7vzriSM8EMae9be3E+2rt0vtf6Y2fhD2ukB+nzo3fPRFs05Z7r9E2SNtJ3e85+QtccxQgjkQeHFwCRJmTRzMvfK/x5msyuRBPcfRsFkfUugbLWnu9jt5SWDtprlGy11o40SgRHVotcqS35tXO2BriSIggbej872WDdAyaMdrzZBZH2lK2Q+psM/wMN867jl3qw5OeReNs3Mls3GvVe2jnxZhGkvrTOG7M6A0ZOrFdCSbdZuzXHTgrtsJf/g6D0sExO2zXARCd/tMny8iraXVisGB1cfQMi8+WkRMRqlTKWUf06YwevRWvASO4uj36R2uf3ceN76dwYn+nszGKsBd7BgeczV2293Q66YjfNvcM4MuZW/aU299fQaxbKuiNWXaOq5FmNw923pbxVG/5/dzEhY7KWhzl781ru0LbF+mcq10vhb3YmsWJYbUZws4J3BJrAMWGKFsOI+9Mu3PtSLA4ymJyqtdeG5kaQE5sp2/sMOcIG330gLGjre6TrSBxJL5bXsb85QmcvXzL3bDJEEfubrlu3Xl8C+O5Zfw2bJW0pXqAxxAwTv6iiCNnXaQ5tdjNX1k+jPT4G3FKIgdiKY5u/V1HjdYa0bV/1yMz9/8p5iGPYY906ITjYhhg9Z3XCSx/vnyWNnA1EEeLNyfQ36ZG7sXOeV9NQI/oi1G3/vO3vOew0MhxxLoCB8I7L2IBcgrbT87ifnECg3JDBjHoYO+qOJ8/hr6TEzjRlcK7W22nRkZo9G6RKSXunz3DrevGdBjRpow1R2u1Le0sPM2P4+urbqRKt1/bgBttVjsWuj36xJHfTqQ+PIxJMTrtXK9E3fP7yJ+0R6F1HlP/M2M7RsZ2/nvETlcSazcPbt6eITek1ho6u2YpEVmhfpLYIbHM8XHEwtsXVea7bpvW7UyKGDEgqI7SkLti+na9rCSOCg9n0Kf6bd02C8Oq79TnAzrRpJQzzc0RH6nNzkYv76pt/KVg+m0WR+RutyljExm3zTszP3S7dgY5hb9gDHTq3z2v3mh02bN+X8e0Ovl897lBz2S7i0+7Y11Wpy7jJ47KDOxmDF5edEak7ZHp+5j8ixqZsswQuwDVNSJHrpVHjj79UN+3GdsPlq9hkoc6aqewiuIor0eexRzo3+aRO6a3N1YCbfNenL3uK6cYpfYYXn4mHi4Hwjsvi7hx+Vs5r//sQcX/riymzXUA/1zEi7v3cSs3YI/WfjKDgt7W+6B9Dohn9FQPNuzM4kiPzWFzDd9gj0rn/b3e7b31mSeOgLGw5+/m4mpDfK0hjl6ICPPWzXh//0lMi/zrtqIObD6S9a1DXF7EjZlj2LmlzTkuwDknaat5CK3rKMk1R3+Zkoc6/3BM2w5R3hTasmp3S50uX906IBZNj0V4++LaJO+AhTsl/un37hEbO8fFjq9uG6sojn5XUWZha5QYeqrtk4q6OEcPWCq65BEfqm/Vtkq8ysiRcR6itcuOkhv58YgPw04JwecOlrhlduyOOX3PSdOMutv3OOKNkaOmbyNm3fN9cJuoFy7xEkfL8/iySxu0TmzXZxmZB7r+/gw3/r7LmSpjG1qzUkxxZH5vnPWiDdemTnz61Szm/btl6ZGiKoojvWZBj6iFefUYaTobNKQ+DoR3Xtw2UZF3Wog4C6k3Y7Oa2qrX+RSyeq2S3Ub7p+7j6fJ9nFULmU3HwXEA9HN9eXejO7q9B7zKhdozOPs/ekv/Nnx5W7VpRwCVD3D4tyr3TKsVU2vVUQFyIERsK/79FHJiGqEvj44Y1NNozAEOMc3Hdz0/E5M4cSC8fTHqXUxz0wecbzEHHNwjNiyrDV/+s4I4unpYHTOgIjT+g1yNaFLf9A33QHY1gCPwd2xPx2FMqgGgL/UBsrotm4OwcmDEzY/b73rtpvu9UV7TBviElGNrdZrqWid/UcSR9klCCLQ4cZBlqcA1k3d8H9gXx0gcPUNhWDtBFqTo0Qe3ikPf2rLI/3YfuUF7VxxheFJ/EvOH/eRxDZrprL34ZQafqtC+GPVN6TC7EEpCJJnT2bQhCiGOtAMlDKc2etqI6s9WxxhyakG3YzC1QFvlVT+HBsJfx/wsOBHeeRG7RX2LE/9tC5DNB8dlFCmfn8ERNRix+Zha9GyO1gpu6vn+wgA/fybF0Nc77efI9uWIqR0YHAzY6tvktymUDEfCjDhpIeNEnsz7RbRLR4h0GzV/j/he2wfdhqO0TXmtz+lhO2W7jBMHwtsXt97nx7024F3HrqjBye0H8LXcmMEVI2bkyOwzbwmbY6wzSv1VRLDv4+tPOtE3NIbJq2POtDs9gCPwd55htE+njRvf2VGuFLb/7TvMG+nofte5R9gV477gOjbKo0SPeb9+pid/ocWR69N4jiyhUxzoFAfXj8tR/p4MLGIijrzCyJ2X/AqLxWP2Yk6f4xMsjESlu4ZEOj9PbmFyaIcTaRLCSBqq5fvI/8383sLm7Cye/v4K9ydsAy+usw1cFgXljLnfiYWR3zqHZvbPPHOMsjaEzkh7z4ScllPWKB0Hzwi93x5TZzD4pwsmg9BlGLEDqNgBRHJenJHSzdhzchbzz20nQu4oJQSQs1D6FRan96rRWwubTUEj68J1AmT7cub8H8ZZn2NUJjbMZxniSIsUT91/f8xZLyC29d6+/yTyN6ekM5TaMoBcccY7XU9vyf8X+3BoM+22TwKiS3rzlcCpMAFRLJ/9oTiiPfLwNYZ2KpJ9EeV3+i6z/bQ4U1i9eLl2xBRHQX2mns6aetdeI6mf406xUzviqToIK47EDpc3nB30XL9B9N/OM4Lavfmdsmnm9br/N30RU9S41xr9vuMLmNgFvDdtaAw5p+uWr7SvG+VAPMSR4SiJnW4KhqN2/58zOOqsE1LGYvMOHJm+hfsBa3Lu5wbwrjJe7/71W9xfXkTuryoiJTZAmDK373yFF/+asjdIMNLVxliMRgWJoxfP7N215mcGsNkxlClsz36LW789w6LMlzvdKJWdDXZwHYOojeQz5NQZDPYoGRvIRhtInO+P5Lz88p3c1c3eXtfsdDdj8Kq7xW75YEQLPs0Z63mMuflC1Dhz/nsmUNDRUV8H7jgD5vdGmzdHfVetLz3FRm8Q4XMO5GYnOjq8cxz582r6bWoHjuTFOodo7ckZ+V1z1Djac6Pmg9cT33pwIJJ9uTuBPXo2hhhs+eVbfCp2qBP9o2c9n67LIHFUoc/85QbyOmLstGFjC+9P1OYq6jfH3ogt/NWgSd/7Ki+V2rKzM6cY9PzRna7n9O+mzTTeC5tm2LKyDRucPt6NPjn5C4wcGc8uS3utzSA0tnytR3thmo3Fu3iII32a9qZefH33FZ7+dgvTYwPY6ewKVclgpLC5rRefZscwmS/g8klvJEgY5lTbXpyY+hZnj40h9y/fhgfqgDixQcIP38+iIOYn//NHFQ2y1zcEiiMRup857Jyp8u777nbBqbbDmBZbdBsGs5LztzhzQI3Qa3H0CmLHva8/Pwa9HoINrrEaXCPVRyTnRWxf+89ZTGbLIytiWmn//93Aja963QhrqgXvGtvpb89+Z29/vXwLJ9ThjUeu3sBRdY1ntFUd6qhPrZ8carN5boojwxmxtg7g6+vzvk1XzO297V3y7B2mLFjG+gJxSOStaxMQ0/Ac4afsyIvffRHp9wdwNm8Mqiwvr5qmc3CkcZik3qrcfNWHVDYSN5gX2o2NciC0fRE7PmphJM45umYPtuizj8Q5aoXfljF/3dh4ZSqrZkiIA1PV4KHZZ/7lsCdyLA+F7lC7RapX56DmLe73/VOLq0d9tDh6OK+mFos8zeDrQdd3iLTL7fCMR0gFRcGdQRZ1PtJ6xJEbjSKvN8pr3p8MDsVEHL3CD18dxvTdV7ihd8gyR03kmqAb0jmbz59En94K27gm9ckMbupzETb14ujfDEfPuM6cbhP0fs/EBfSL68Vi0t9f4YfPheE9iR/UCND7fz2GT993F6brKYCL3xvT/zYN4Oyocggtd8ce0SidrUg9efJOC2DjTUbj3Wg9h3ZefptBnx7FVbwTDsvXXw3IQxYty3feUapNOjiLN8ewU90n25eabmq3m804en5MnSdkc9zt9CsMZmgnSI7wGjtRedpChXuda1L49PIynl4fw8533Xao23LZGWHLz1AIGjTZsgtfXvnaOPh2rXQr/e4ObGy0Pnk/230jcSC0ffldz3gwt8YW64XuIz/jniXkRJmdtmy3Ke34u31/Lyan9Flsldpd8PeeQZpKW3kL+2Ocj6Rth/3q7a8bqT6YF9oHciA8B2IjjpxKdw6ATWFz116cmJkPPPdHTLf78mAv7PMLOu1drH6bwp6tB6TIEs9bvD2DE/t3oK2jxR1V9hnmIMMonLztntOz3ROqd56cUGc22As575sbQtydQf9WC+//fR4vlufx9Z9S8E+PM9dz2GlzS2Cn7p0pE+EbQJLvDe+8vMIPf9sMK6W2vb7tTqMTDkzh+/t4oc8i2aoXTKs6+NcE9mxRAsBZX+ROlRFtpU0tunbEkW/7bmdzBY84Us7T33rRFiByvO1SbJrSgrYP9+KEMz3OjAql7O28zXL5ueSbVvju8CwWF6bQ7xuNDhqhXv27A5hcIF+T3A7jWvYo9uXFL1M4OrHG1FVnJzpX2IjBjB/0NHrdZ34yg/ur7Uap1xcGvJ793l37a26i4ERvdOTo92eY/sTNh7Q3mzox6JlCzHYdV26zXPHndvzEkRA1/7qFWxG2yn36ZFmtJ1jGoja0fucoyuflZ+XP0VNwnr/C07vzckF7YAN78swVc8vPcP+hj4T6OXpKX8C6qcDnRsk/r428vqQZMY/kvDzXbcTHR5MrC/cDdn8UIkbdY3DXM5VM/f707qw9VcW3PqDS9xvG/Mk8fvin2E58lTKZ5RPvny/ixvezmI9gXzacT38e+DkR7bPZeRPJvoThtGE/5LRUp9822m9Qnxnm2eY1esv9oOeb16m1wyIvkWyI+Qy+Z1smBxqSA7EUR83eqTD/RmdHw1Ezw1F154V1VbO6ok2gTWg2DtC+kLPNxlnml5zVHKA4okNHhy6hHKDzwo5AdwR8JReqzQHaF3Kq2pzi88ipt8UBiqOEOsZvi2BMp3GNGZ2Xxq0bthvWTbNzgPaFHG52DjP/yeUwxRHFESNHCeUAnZfkGn52+qz7WnOA9oUcqzXH+HxyrFYcoDhKqGNcK0Lxuc1jrOi8NE9dsV2xrpqNA7Qv5GyzcZb5JWc1ByiOKI4YOUooB+i8sCPQHQFfyYVqc4D2hZyqNqf4PHLqbXGA4iihjvHbIhjTaVxjRuelceuG7YZ10+wcoH0hh5udw8x/cjlMcURxxMhRQjlA5yW5hp+dPuu+1hygfSHHas0xPp8cqxUHKI4S6hjXilB8bvMYKzovzVNXbFesq2bjAO0LOdtsnGV+yVnNAYojiiNGjhLKATov7Ah0R8BXcqHaHKB9IaeqzSk+j5x6WxygOEqoY/y2CMZ0GteY0Xlp3Lphu2HdNDsHaF/I4WbnMPOfXA5THFEcMXKUUA7QeUmu4Wenz7qvNQdoX8ixWnOMzyfHasUBiqOEOsa1IhSf2zzGis5L89QV2xXrqtk4QPtCzjYbZ5lfclZzgOKI4oiRo4RygM4LOwLdEfCVXKg2B2hfyKlqc4rPI6feFgcojhLqGL8tgjGdxjVmdF4at27Yblg3zc4B2hdyuNk5zPwnl8MNL45EBvlPDMgBcoAcIAfIAXKAHCAHyAFy4G1w4PnyCmr9/4f1JCAKzz8iQARqgwDbV21w5VOJABGAHNQkDkSACBCBZkRA+Efr0S1R76E4akZ2MM+xRoDiKNbVy8IRgboiQPtSV/iZOBEgAhtAgOJoA+DxViLQzAjQeWnm2mPeiUBjI0D70tj1w9wRASJQGQGKo8rY8BciEGsE6LzEunpZOCJQVwRoX+oKPxMnAkRgAwhQHG0APN5KBJoZATovzVx7zDsRaGwEaF8au36YOyJABCojQHFUGRv+QgRijQCdl1hXLwtHBOqKAO1LXeFn4kSACGwAAYqjDYDHW4lAMyNA56WZa495JwKNjQDtS2PXD3NHBIhAZQQojipjw1+IQKwRoPMS6+pl4YhAXRGgfakr/EycCBCBDSBAcbQB8HgrEWhmBOi8NHPtMe9EoLERoH1p7Pph7ogAEaiMAMVRZWz4CxGINQJ0XmJdvSwcEagrArQvdYWfiRMBIrABBCiONgAebyUCzYwAnZdmrj3mnQg0NgK0L41dP8wdESAClRGgOKqMDX8hArFGgM5LrKuXhSMCdUWA9qWu8DNxIkAENoAAxdEGwOOtRKCZEaDz0sy1x7wTgcZGgPalseuHuSMCRKAyAhRHlbHhL0Qg1gjQeYl19bJwRKCuCNC+1BV+Jk4EiMAGEKA42gB4vJUINDMCdF6aufaYdyLQ2AjQvjR2/TB3RIAIVEaA4qgyNvyFCMQaATovsa5eFo4I1BUB2pe6ws/EiQAR2AAC8RVHD6fQk+7B1JMNoMNbiUCMEYjkvDyZQo9lwQr4T7/Tge4Dp1FcMsBa5XrLSqN1Zz9Ozz42bjDe/ucB8mP96G5Nq/Ts60dz97DyxrhOvF0lncB86dvfPMbcN8Poa88gLcuURqa9D4PninjsT0PfszSHqWwfOt7x5qtiOeR9z3Fpr41bX+65fpLnde6o+HbvNvoAACAASURBVH0Ec55v+YEINDcCkeyLLOoK7n0ziC7VvtKtfRi+8mAdIDzH1J5gW2Ud9baylZ+nMPiBsgGbWtGXzeNBWfsPma83z1H8vA+tm0TaaWQ+6Mf4zZXy/C8VMfpxq2130hl0HRjH3H/KL6tq3kKmaebi+eV+pC36UCYmfJ8cBOIpjh5cwsH3hIFiw04OlVnSqAhEcl60COnqx8ixEc//8IEuu6PfNIiC9gXU9R3ZSyjOFj3/+W9G0d8uBEYa/Ze9gmHlp1F0py1Y6Q70fz6FvLj3yhRGVRrp9hEUTUciar4ESA/zyj6k0X1oHJdk/i5h/FAPMiLtTX2Y8vtkcrBF5Es4M8N2+bP9ypFLo+PYHHTRPfXw/BL6rAxa30vD+uAC/I8V11IceRDjh5ggEMm+ALhzqlXahO6saPeXcHp/B9JWGj3TFQZRKuI0hxHLQmaPaqemvbpstMA7o2i1LKR3DmPqShGXxvrRkbaQ3jMFM8Vw+XqO/P60bbfGLkmbNbxT2LhWjNx87eb0eR79Io32fpzOFZH/ZhjdQky9N4K5knsZqpm3sGkayUPbO/pQJip8nyAE4iWO3jzHnW8OSgNnj3BTHCWIyyxqRAQiOS9ahPhGXnWSK1cHpUDq+l/lfKjre74x3Qx9NYCVIobfsWD917grGMQ90jkZxz1TAKnbVn4el79bH4y7o7tR81Waw4gYOHlvEPmgqPJSAYPi97Qh9PAahcPC8enB1EOjDOLtmxUUj2RgWV24YPhd+qoH/9sFyxrEpcsCnwxGf9K/uK8URy4WfBcfBCLZFzmIYKHrH2YjUm1LtEVTOKwF0cML6LYsDP+42oUqomvaEmGWfhxGxkpj8JoSNGHz9dOofd9VY4jkzWNc6LE8gyJ3Ps/4bIsYrLkgo/KO7UR18xYuTQMrle/W94RYpQ9lIMO3CUIgVuLo8Tc9chpOeudp3LkywoadICKzqNERiOS8rCFC8KaIYTE9TYuntcQRgOIRczqZFiD9yHuDSZ6C2VM9jIhTxHzZYqUVo3c8j/V+UKO2raf0RY8xJZycHu+IsnPTwjg6RBSsbNrcA4z/lwVrfx4rpQIGhfA7XIAxjiwfQXHkIMk3MUIgin1Zudwf3F/fsUXHyHUxEHEHo2Lg4p3gKEvrsTm7bf04HPwsE9v/5NFvWSgfvLmD0XcspJUdC5UvGfUSomcEc74ped77vc92s7OC/H7DvlQ1byHTdDKzgrmjrbB6LuDxj/ShHFj4JnEIxEsc/b9BDH6j1iVcZ8NOHJtZ4EgIRHFenLU9Wvz4U1IjrOljak7/muJICYd3RiEliBAPQlwdKhcPnqTezGFETH0TgkP8sJY48uRLpWlGqzwP1x+UGNJ5E86PHPHtwfjPxsiwvrzSqxxNttB/2b5n7qiYZtOHSz7xR3FUCUB+38wIRLEvc8dE2whYd6fsQvekHYF+fXNEToVzBi60YHpvFHeUMHk82S2FyqUfR9Ej1y+J9T+DmDLb7s0RGemWossD8msUDlmwPrwgp9aFy5da4xQ0eCIHTlQUa8let1kuyIAH/+iAZQ2jKMpQzbyFTVNhsHJ9BK06Qk4fysMMfkgWArESR56qY8P2wMEPRMCPQBTnZTUR8vr5HYzvEc5NBiPXVVxkNXFUeoDisW57Gp6eRqOmwgQ5Dt58K+EiRmnFD6uIo7J8+aNb3gd7PtmCpQdTepOJlTsY/VCU0UL6nS70Z8VapTt4sMp0H1sMGVOCrtsOmX9jBoojD/T8EBMEotgX2QaUIPEW314/5ESk8Rpzx8R0ry6ML+h1SvZ7+z4lboy1RMXcabXGsRUj19XghvQPunHBP03WtwYwXL6UTTpS9GZdfDLtoHofNN3PnvWiprBVM29h0xR5lWuTjKg8fajy+uQ3iUGA4igxVc2CEgEvAlGcF93JB+1WZ3+XRvepO+6mBFq0BOxuJ69PZ9AzNufuPic74qBpLt48i08eMbFWOpaRL31tpeiXkZTHWdHfv3mNx9fF5hDdakcqe0esdJdvVFpcHzSNToxyi3VWvo0ZPOXRafGVCDQ5AuHtixI0QZEX+MWRaFv2usF0e4eMIvWoqJIN12NMfZyxN1Uwp7i9uYfTH4gpeXaE6fW1wYpT79z2GDZfDzDeZUwpNutN2Rw56LMwji7LQnm0CjDtTVXzFjJNvHmMqT1ptB41NpahODJrku8ThgDFUcIqnMUlAhqB8M6LOwJqBexWN56bw73nvpU0yikwd6vTOzNlekZR9E0tg5p+snbkSE1h8UeOwuRLT90LIY7s6TRG5EiDZry+XnmAO0Gj0mIQNtcnd95yFnar++T0PN/GDK4zZjycb4lAkyMQxb7INhAqcmSD8vr6CDJi4OXDC+7mLGvgZQuQDhlxQjWjM2j+yNGDf3TZO+aZs4YpjtZgFH+OMwIUR3GuXZaNCKyCQBTnxYkchRAWMklzxNTMg94iVmxda3bEWrhUe82RmTbWv+bI8xj/B7EOSkSE9kzB1nzu2UaVIm3mxgwUR35A+TkOCESxL+HW9rioSGdeRqXNKXXu7zCjRvpruVGDitxUc10Pmn3NkYrOVYryy+8D1oNpXPlKBGKIAMVRDCuVRSICYRCI4rxUTRyJ7XLFol+xJkCcJ+I4MWq3ujW2jtVbhjvrdiJMlROY2LvVGWujgoBSU1Eyn6vd6n4aleujBq/6omPOvUoM6WlBDy7I6TPpA+Oe853s854uYURM7zE2ZqA4coDkmxghEMW+eHd1M0CQu9X5tuVW7bNr7JI9Vc7cjltHrPVaRuNR9qYHKhq8xo5wllo/FDZfd06ttludXtu0xs5xOnJW1byFSfM57vnOopO26h8i+t2B4f8nzqm7pwZ+DED5lgjEGAGKoxhXLotGBFZDIIrzUk1xBKjtYv0HPArHRmx3/eFohRPjo59zVFZ+55yjg7hkHqmiLww650itH6p0NtLKz6flOSVaTNlOWPCZRiIZe8qdBX2uCcWRBp+vcUIgkn0Je57QmwcYF4MLenc6te2+ez7SA1yQv/si0/pctb2XvNFdU1jxnCMv/TitzosHPyUKAYqjRFU3C0sEXAQiOS8RIzRaTFVcQ6SdFbFtrHEY68pPo+gWW3WnO9D/+RTyYkTzitgEoUtGb9LtIyiaB8RGzZco/sM8DorzUsRmDYfErnNiZPQSxg/1ICPS3tSHKZ9w0tEucU/mg34MHxvByLFh9H+QkfmSJ9yLaYIVNl1wUXc3a9CLw21x1IV++UzxXO9/fsFzNz8QgaZAIJJ9cXahS6P7iGj3l3B6fwfSYgDFOEjank7XipGbOor7GnNH7UOYxe514k+31XT7QVy4UoTYra5PHuzsPcRZbwue/nAYU1eKuDTWLw+Q90e07d3xVs8XxLojuWNnK/rGLkmbNbxT7G5p7JAnMqcGgKz3+nA6V4Reh+nYD7sIqGreQqapknZfKI5cLPgucQhQHCWuyllgImAjEMl5iSpC1PWmY+PH3T6N3kJ6f947ZeM/D5Af60d3q711thAkrTv7cfrKA3d3O/2wqPnS9715jLlvhtHXrsSNED3tfRj+Zs6Y6qcvVq9Pihg/1IcOJ18W0q3d6B8rOveInabSlgVn2p/vEfqjuTGDLY7sne+C1igF7W6ln8NXItCoCESyL6IQb1Zw75tBdMmziUTb6sPwFWOU4uEFO0J7pOjuiinuW7EPWJYHl6ppuis/T2FQD1ykM+g6cBpFvS2/AZjnuk2t6Mvmyzd4WCtf+nlvHqP4eZ/aydIeRBm/aS6sVBc+KWL041Z7UEXmbbxCpNwow0bzFjJNXRT5SnHkgYMfkoVAfMVRsuqRpSUCkRGI7LxEToE3EAEikFQEaF+SWvMsNxFofgQojpq/DlkCIrAuBOi8rAs23kQEiEAIBGhfQoDES4gAEWhIBCiOGrJamCkiUHsE6LzUHmOmQASSigDtS1JrnuUmAs2PAMVR89chS0AE1oUAnZd1wcabiAARCIEA7UsIkHgJESACDYkAxVFDVgszRQRqjwCdl9pjzBSIQFIRoH1Jas2z3ESg+RGgOGr+OmQJiMC6EKDzsi7YeBMRIAIhEKB9CQESLyECRKAhEaA4ashqYaaIQO0RoPNSe4yZAhFIKgK0L0mteZabCDQ/AhRHzV+HLAERWBcCdF7WBRtvIgJEIAQCtC8hQOIlRIAINCQCFEcNWS3MFBGoPQJ0XmqPMVMgAklFgPYlqTXPchOB5keA4qj565AlIALrQoDOy7pg401EgAiEQID2JQRIvIQIEIGGRIDiqCGrhZkiArVHgM5L7TFmCkQgqQjQviS15lluItD8CFAcNX8dsgREYF0I0HlZF2y8iQgQgRAI0L6EAImXEAEi0JAIUBw1ZLUwU0Sg9gjQeak9xkyBCCQVAdqXpNY8y00Emh8BiqPmr0OWgAisCwE6L+uCjTcRASIQAgHalxAg8RIiQAQaEgGKo4asFmaKCNQeATovtceYKRCBpCJA+5LUmme5iUDzI0Bx1Px1yBIQgXUhQOdlXbDxJiJABEIgQPsSAiReQgSIQEMiQHHUkNXCTBGB2iNA56X2GDMFIpBUBGhfklrzLDcRaH4EKI6avw5ZAiKwLgTovKwLNt5EBIhACARoX0KAxEuIABFoSAQaXhyJDPKfGJAD5AA5QA6QA+QAOUAOkAPkwNvgwPPlFdT6/w/rSUAUvlQq8Z8YkAM14ADbF20L7Ss5UCsO0L6QW7XiFp9LbtWaA8J+rUe3RL2H4qgGzm2tycHnx9sA0XmJd/2y/bJ+68kB2hfyr578Y9rk30Y4QHFE0cKoTEI5QOeFncdGOg/eS/6sxgHaF/JjNX7wN/KjkTlAcZRQx7iRScm8vR2jSefl7eBMPhPnJHKA9oW8TyLvWeZ48J7iiOKIkaOEcoDOSzyMODtj1mMjcoD2hbxsRF4yT+RlGA5QHCXUMQ5DDl4TbyNC5yXe9cv2y/qtJwdoX8i/evKPaZN/G+EAxRHFESNHCeUAnRd2HhvpPHgv+bMaB2hfyI/V+MHfyI9G5gDFUUId40YmJfP2dowmnZe3gzP5TJyTyAHaF/I+ibxnmePBe4ojiiNGjhLKATov8TDi7IxZj43IAdoX8rIReck8kZdhOEBxlFDHOAw5eE28jQidl3jXL9sv67eeHKB9If/qyT+mTf5thAMURxRHjBwllAN0Xth5bKTz4L3kz2ocoH0hP1bjB38jPxqZAxRHCXWMG5mUzNvbMZp0Xt4OzuQzcU4iB2hfyPsk8p5ljgfvKY4ojhg5SigH6LzEw4izM2Y9NiIHaF/Iy0bkJfNEXobhAMVRQh3jMOTgNfE2InRe4l2/bL+s33pygPaF/Ksn/5g2+bcRDlAcURwxcpRQDtB5Yeexkc6D95I/q3GA9oX8WI0f/I38aGQOUBwl1DFuZFIyb2/HaNJ5eTs4k8/EOYkcoH0h75PIe5Y5HryPlzhaWUBhpBftW1KwLAvWphb0jhSwsBKPymKjYz1WkwPrdV6Wbl3E8f4daNlkOe1sR/8pFP5duX4WZicx1NuOTMq+J7WlHb0DZwLuWcDkLvXcP57B3UqDFytFZNWzdk8s2NHP2aydH8vCwOWXFSOiCxO71XVZFPXz1b3ZWbsMxc9UHoQdWeXfSVs/h68Vca8md/msym2tUbCJbl+WcHtiAJ2q/0619GIod3cdfHqEyY8qtNvPip7nLd2axMC2DFLaXziSw90yfyFkvlYeSf/DtospZLbtw5nikic9WTeLBRzvbbHTTGXQ2X8Gxafl9VnVvIVM0+TOo5l9SFm7MbmKXTev5/vyOiQmzYtJfMTRygImP0rBSrVj3xcXUbhawMUvetFiWUh9NEmBRKetvJNKOCaRnZeVJRSOtstOPdU9gDPTBbudnR3ADimUWpCd9TkDKwvIHWiRAsN/z27pBKXQO2E6QIY4stpxZr6CcZ3N2s6FZcERKIY4sgbyeBlYv+bzK4ujuzNZZI+6/0MfZWBZGew+7H4nfj8X5PwEpluhHLyW7TKmHIhqX+ZOCDuRwo4jk8hdvYhTe4WtSWH3/6nBj9A4FZG1LGQ+GvK0YdmeZwxbc/O47R90D2EyJ/yFfWhPKX/BSCtcvh4ht9fwP3KTGOoWg7QtyBaNgZpHOewTabTtw6npAnITQ7bt3JpF8YVhI6qZt7BpGmUu/TqJ3XLwieKIAsfgpcmRmL+PjTh6eWUAKSuDoWte52zpsvg+hYErhoGKeaWyMSezMUet96jOy8J5EXFJYfd5w8HQbWnpNk6JiE9qH3KPNP4vUTwqHJ4WDOQCHJyVR8gfsh2igcu63SrxsmO37JzbxwLSKpVQ/CyF1LZOtAeIo927RD4HkDedDZ3Pf09it9WJzm1iZLmyOPJjaUeb6Cj4ceFnzXW++rkQyb48uohey0Knp70voXA4AytVoS3rNu1//fUcdlgWhq6tViePcPFjC9a2M55I0dK1IWRMfyFsvq4ft+9z7FgJpZUFnBM2cds5JwI+N6LKs2Tk7ddz2C3KPq5tXXXzFi5NIz8q3y1bhW2mzfPzmp8NrvjbXow+x0YczY2JUaYhFPwh8aUc/mw6UDGqPDbSZDTSWtVzJOflRR4DYiTx44t4VKkNXT+O9pYdyOoBinvn0GlZaDkxVzk6sDKH41stWFuPY062XSWOdp3D5GcpWEFT62ReUshO2E6FP3KUnRACKHhq3d3xTli7JjEpp81RHNWKW3wubVMU+7I0sy/YEb9piw453VXbii3BUZaWo0U7WnxtKPhZpt16msO+QL9gDse3WEip6Xeh8lUqYe6EED1ZFH3+h/d+77PdNrKE3F5L2qUFkceq5i1kmg42Syh+1gJr1zksXBPTlCmO3Hpim04SFrERRxUrTY7oWNg3o0emSfCKWDkGkhglAaMozsvLywNyatxqa3n8mN0da4e12tQ4xTc7KpPB8ZuCd1ocTWJBtt3yqXUySiwcETH1w3RwnHVDauS1bGrdXZzbZk/Ds9cUURz564yfafuqxYEo9qV4VExBM9qj7ovEQIhlYcd5O/L8spiVU+GcARctmJzBlRIWzu+QQuXitePQU3cz2wYwecvwAYr2tFy9xtAt80vkByxYO85BCJVw+VJrnHZNynvcZ5VQmj8jo9syirXos1e6jKUSbFupBnermbewaaq8LM1m0ZLajclfSyhJe0px5KlPo874fbxtZbzFkbMOKWJYng2g8kg/sYkNNlGcF+lwWDtwTnSaITlQOOybulbpPiVqdv/fI684Eo7PFgveqXUvkT+Uskd25RS58jVHwuF5NN1bPrVORrLszp7iKHw9hq1vXkdMTQ5EsS+yPSpBYj6jVLLXD1nORgp6qm6nXI9orwey39v3KXEj1hqrtUSF6VPY16bW/+g1kdLmBNsz0zaEy5ca0DlcKLeNpo1S74Om+3mm7VYzb2HTFLZZrk1KYd+MsMMUR14esm0nDY/4iiNnPUPAIvFKThq/LzfuxCS2mER2XiJNsVAOQ9BosJ9TpgNhRo7EdBUxR9+cWien1GVw/HoJJc99ujO3IEeD1VoBM9Ilp9SpaYGmA+Q6Aupef/5KJXicl4Dfk9ZxsLx0ltbiQHj7ogRNUOSlTByVUHpRRHar2NSgXUaRdquokp2fBUz2Zso3YVq5jVNineEWe/quiD5XmjLm2oaw+bqLM+9bcAWcwQ3TRs2fkdOMy6NVXvtS1byFTFOsjxIbWrV8VsSStm+MHMW271+r7fL3EuIpjlbuYvJje6Ro4LIaBdENnq9s8OSA5EB450V33sEjrcGGVI/gBkyV8eOvppGURY7Edb6pdXJ6n3JwVhVHJf/Uurs480cLvdO2PXAdIOXIqOhVkOMiykdxZDh8/vrjZ9rUAA5EsS/hIjQuB1/OZpER22/vOOfZUCHYFtn32W1YTdOtZnRGD+g0ceTo7lgnLLFjnrlRBMUR23VAu16tjcXpt/iJo6cFZEUIPbUDx68bc4wTXMlxIizL4joIG8UiivMi5p+Ls0DMSExZ+iKqI84vOntbLoze8Joj0WY9U+tswZUZURs8mKOy4lqfwPFMrZNz/3txUe2kR3FUPR6V8YC2lk5VyR55DcuNcGt7XM5KZ16eP2ZOqXN/L/k2RpD5kBs1qOhwNdf1lJp9zZGaurjKeW6B68HYztnOY8yBeImjX3P4s9z56s/IRVgbEdaA8zqj84lxo0hKPUcSR3I62+q71dnb5rvRmZLarS7zmdpFKogzK3dxxpju4tmQQV0vp9aJ7XDl4mw1pU78toY4KsmpdfY2/lKoGTvtURyxLSelndernFHsi3dXN4Obcrc637bcaqpY5xcX7aly5nbcyiZ41ynaz7MHa3ZjcnHtHeEsFQUKm6/Vd6vTEfc1do7Ta67W2K0uWt7CpPkIt6/aZ9aJ8yGd/zGxbrMdQ9+I725X3qU0yK7zOwqnJudAfMTRkj0PuSw03OQVVK+OjekaHXRMORTFeRF8sEdrK5xztJjHgByYMLfZ1YunW/DnaX2Gh4Grsy4whbJzjsz1B3JqXSdOnRyw1wzo+lhLHKmpdalDp3D8j94dKymOjHrQePKVDk0VORDJvoQ9T0gPpujd6dRhqe75SPaOlGV+wFIBQ1vMwZ3qniVkT/817VgTn3OkOcBpdbQHmgsJfI2NOLJ3rbHQvtd7gr0+5Z4n2dMZouDzciCS8yKM48oCcgfEwYBiJ6gBnJkWI4o5TI7YJ8tbegtY05AG3lPAxbMDzja7vROmcDK28tbPUVPrRLoZ88ykNcWR3rVO7Jq3D7mnbvkpjlws2C6IRS04EM2+6IGUFHYcnkTu6kWc2ivOLkzBOcfMGaBpQbaoD3V/ieJnGViWO71ObkctbFTbn3EuV4DYra5XDNz47JPeFjy1YwiTuQIufmHbsdRHk1hwpuWFy5eMeH9kr3Pu/eIiCrlJDHX7dsgT9kzYLHFe3NZenJouIDcxhB2bxGfvep+q5i1kmmUcoDiiONJ9cAJfYyKO7NCxcJ4q/ZsGtswIJLDiiQEdomjOi4vXwtVT2Nfdjozo5IUTItYZHbmI24b48PNrYXYSQ73+eyZR/Lf7XPueAHGkd62z9FlI6p4Q4sieWmfB2ptzd2ES55fwEFh2/LT7NeVAZPuysoTbEwPo3CJEhYVUSy+GcsbAya/2oc+ZwwVPWy4tqQOqxcGlStQs3ZrEwLaMXCdppTLo7D+FgphO56tzz3WbWtB7JFe+wcNa+dLPXFlAYaQXLULsWClktu3DmWLAuud/F3C8t8XI2xkUA2xnVfMWMk0PPhRHZXzx4KPrna+xxCkm4qjc6JHExIQcWJ0DkZ0XdgKx7ATYTlZvJ8RnffjQvqwPN/KNuJED9ecAxREdPjp8CeUAnZf6G2B2gqyDuHKA9oXcjiu3Wa74c5viKKGOMRt3/Bv3WnVM54UcWIsj/J0cWS8HaF/InfVyh/eRO/XmAMURxREjRwnlAJ0XdkD17oCYfnw5SPsS37plu2Xdxp0DFEcJdYzjTmyWb23jTedlbYzII2JEDqyPA7Qv68ONfCNu5ED9OUBxRHHEyFFCOUDnpf4GmJ0g6yCuHKB9Ibfjym2WK/7cpjhKqGPMxh3/xr1WHdN5IQfW4gh/J0fWywHaF3JnvdzhfeROvTlAcURxxMhRQjlA54UdUL07IKYfXw7SvsS3btluWbdx5wDFUUId47gTm+Vb23jTeVkbI/KIGJED6+MA7cv6cCPfiBs5UH8OUBxRHDFylFAO0HmpvwFmJ8g6iCsHaF/I7bhym+WKP7cpjhLqGLNxx79xr1XHdF7IgbU4wt/JkfVygPaF3Fkvd3gfuVNvDlAcURwxcpRQDtB5YQdU7w6I6ceXg7Qv8a1btlvWbdw5QHGUUMc47sRm+dY23nRe1saIPCJG5MD6OED7sj7cyDfiRg7UnwMURxRHjBwllAN0XupvgNkJsg7iygHaF3I7rtxmueLPbYqjhDrGbNzxb9xr1TGdF3JgLY7wd3JkvRygfSF31ssd3kfu1JsDFEcUR4wcJZQDdF7YAdW7A2L68eUg7Ut865btlnUbdw5QHCXUMY47sVm+tY03nZe1MSKPiBE5sD4O0L6sDzfyjbiRA/XnAMURxREjRwnlAJ2X+htgdoKsg7hygPaF3I4rt1mu+HO74cWRyCD/iQE5QA6QA+QAOUAOkAPkADlADrwNDjxfXkGt//+wngRE4flHBIhAbRBg+6oNrnwqESACkIOaxIEIEAEi0IwICP9oPbol6j0UR83IDuY51ghQHMW6elk4IlBXBGhf6go/EycCRGADCFAcbQA83koEmhkBOi/NXHvMOxFobARoXxq7fpg7IkAEKiNAcVQZG/5CBGKNAJ2XWFcvC0cE6ooA7Utd4WfiRIAIbAABiqMNgMdbiUAzI0DnpZlrj3knAo2NAO1LY9cPc0cEiEBlBCiOKmPDX4hArBGg8xLr6mXhiEBdEaB9qSv8TJwIEIENIEBxtAHweCsRaGYE6Lw0c+0x70SgsRGgfWns+mHuiAARqIwAxVFlbPgLEYg1AnReYl29LBwRqCsCtC91hZ+JEwEisAEEKI42AB5vJQLNjACdl2auPeadCDQ2ArQvjV0/zB0RIAKVEaA4qowNfyECsUaAzkusq5eFIwJ1RYD2pa7wM3EiQAQ2gADF0QbA461EoJkRoPPSzLXHvBOBxkaA9qWx64e5IwJEoDICFEeVseEvRCDWCNB5iXX1snBEoK4I0L7UFX4mTgSIwAYQoDjaAHi8lQg0MwJ0Xpq59ph3ItDYCNC+NHb9MHdEgAhURoDiqDI2/IUIxBoBOi+xrl4WjgjUFQHal7rCz8SJABHYAAIURxsAj7cSgWZGgM5LM9ce804EGhsB2pfGrh/mjggQgcoIUBxVxoa/EIFYI0DnJdbVy8IRgboiQPtSV/iZOBEgAhtAIF7i6M1zFMf60bXJgmVZSLf2YXT2cy1/0gAAIABJREFU8Qbg4a1EIL4IRHJenkyhx7LblWhb5n/6nQ50HziN4pKB1SrXW1YarTv7cbpS2/zPA+TH+tHdmlbp2NeP5u5h5Y2Rhni7SjqB+dK3v3mMuW+G0deeQVqWJ41Mex8GzxXx2J+GvmdpDlPZPnS8481XxXLI+57j0l4br77cc/0kz+vcUfH7COY83/IDEWhuBCLZF1nUFdz7ZhBdqn2J/nv4yoN1gPAcU3u8NsqxV0e9rWzl5ykMfqBswKZW9GXzeFDW/kPmS/gfn/ehVfofaWQ+6Mf4zZXy/C8VMfpxq2130hl0HRjH3H/KL6tq3kKlOYeRdDBuPd/QjyqvIX4TZwRiJI5WMHe0FZbVir6xSyjOXsLp/R1IW2mwYceZwizbehGI5LxoEdLVj5FjI57/4QNddke/aRAF7Quo6zuyoi0WPf/5b0bR3y4ERhr9l72CYeWnUXSLDjrdgf7Pp5AX916ZwqhKI90+gqLpSETNlwDrYR4H3xNOQBrdh8ZxSebvEsYP9SAj0t7Uhym/T/ZwCj0yX8KZGbbLn+1XjlwaHcfmoIvuqY/nl9BnZdD6XhrWBxfgf6y4luLIgxg/xASBSPYFwJ1Tov9Oozsr2r3Rf09HdcznMGJZyOxR7dS0V5eNFnhnFK1iEHXnMKauFHFprB8daQvpPVMwUwyXr+fI70/bdkv4H1emMLxT2LhWjNx87dbo8zz6RRrt/TidKyL/zTC6hZh6bwRzJfcyVDNvYdNUtrTrgNe+C3t/IUjkGdnlWyIQNwTiI47ujCJjWT4htILCIWGwOCobN+KyPBtHIJLzokWIb+RV52Ll6qAUSF3/q5wPdX3FgYmVIobfsWD917grGMQ90jkZxz1TAKlEVn4etwXKB+Pu6G7UfJXmMCKE0XuDyD/RuTdelwoYFL+nDaGH1ygcFnakB1MPjWvF2zcrKB7JwLK6cMHwu/RVD/63C5Y1iEuXBT4ZjP6kf3FfKY5cLPguPghEsi9yEMFC1z/MRqTalmiLpnBYC6KHF9BtWRj+cbULVUTXtCUAVn4cRsZKY/CaEjRh8/WT8D/SGLxqDJG8eYwLPZZnUOTO5xmfbRGDNRdkVN6xnahu3sKlCeDHYVhWNy74bdxqMPI3IhBTBGIjjp7nDqLjnYPI+5yqO6eE40JxFFP+slgbQCCS87KGCMGbIobF9DQtntYSRwCKR8zpZFqA9CPvDSZ5Svj8cr+MBjsRp4j5ssVKK0bveB7r/aBGbVtP6YseY0o4OT3eEWXnpoVxdIgoWNm0uQcY/y8L1v48VkoFDArhd7gAYxxZPoLiyEGSb2KEQBT7snK5H5bVgyn/gIUc9Exj5LoYiLiDUTFw8U5wlKX12JzdtqSTH/AsE9v/5NFfNpgqLriD0XcspJUdC5UvGfUSomcEc74ped77vc92s7OC/H7DvlQ1byHTBPB4spu+klspfJdwBGIjjsrq8c1rPJgdkVN0HKNZdhG/IALJRSCK8+Ks7dHixw+bGmFNH1Nz+tcUR0o4vDMKKUGEeBDi6lC5ePAk9UbNixeCQ/ywljjy5EulaUarPA/XH5QY0nkTzo8c8e3B+M/GyLC+vNKrHE220H/ZvmfuqJhm04dLPvFHcVQJQH7fzAhEsS9zx0TbCBjEVHahe9Ke6Pb65oicCucMXGjB9N4o7ihhIp389Agu/TiKHrl+Saz/GcSU2XZvjshItxRdHpBfo3DIgvXhBTm1Lly+1BqnoMETOXCiolhL9rrNoGj6g390wLKGURRlqGbewqapB6v2jKMg1n2pdVOtH4+i6BesHrz4gQjEE4FYiqPH3/Q4C8YzA/nKC6zjWacsFREIhUAU52U1EfL6+R2M7xHOTQYj11VcZDVxVHqA4rFuexqenkajpsIEOQ7ewijhoqfKriKOyvLlj255H+z5ZAuWHkzpTSZW7mD0Q1FGC+l3utCfFWuV7uDBKtN9bDFkTAm6bjtk/o0ZKI480PNDTBCIYl9kG1CCxFt8e/2QE5HGa8wdE2uTujC+oNcp2e/t+5S4MdYSFXOn1RrHVoxcV4Mb10cqTiEz22O4fCmbdKTozbr4ZNpB9T5oup/ts6hoVzXzFjZNqIEjK42O/aflOkxnPVTQdOLykvIbIhArBGIpjh7czKM4m8eU2DlGGEmxwNIX7o5VLbIwRGAdCERxXnQn7+z65NuxTi6kPnXH3ZRAi5ay69RuSOkMesbm3N3npEPgXzMYXCjTeYmUL52nStEvIzmPs6K/f/Maj6+LzSG61Y5UdlnSXb5RaXF90DQ6Mcot1ln5NmbwlEenxVci0OQIhLcvStAERV7gF0eibdnrBtPtHbJ/71FRJRuux5j6OFPe57+5h9MfiCl5doTp9bXB4Gl8ng1SwubrAca7jCnFZr0pmyMHfRbG0WVZ9hRB8xoxpU0O6NriqKp5C5kmXhcx2ppG61HfxjL/ycvpwNbeS/AFvH0l4EciEC8EYimOzCrSC8X9o7XmNXxPBJKIQHjnxR0BtQJ2qxvPzeHec99KGuUUmLvV6ZHITM8oiv6eVk0/WTtypKaw+CNHYfKlp+6FEEf2dBojchRAkNcrD3AnaFQawPNcn9x5y1nYre6X0/N8GzNQHAWAy6+aHoEo9iVchMaF5PX1EbkBk5j+Vr71tnud+c4WIB0y4oRqRmcQh8iRiZT3fVkE3PszPxGBWCIQe3FUtlA8ltXIQhGB6AhEcV6cCE0IYSFzYo6YmlnTW2KLrWvN5TtauFR7zZGZtp46so41R57H+D+IdVAiIrRnSo2uumcbVYq0mRszUBz5AeXnOCAQxb6EW9vjovLgH2IXSBG5NafUub8jaKaI3KhBRW6qua4H8VhzJDELwM3eqGGNDS4M6PmWCMQBgdiIozt/b0Vahcw9FaOcLmehuOdHfiACyUUgivNSNXEktsu9bi+q9k53VbvVBe1YZVRRWSQ4wlQ58Rh7tzpjbZTxbOetmoqS+VztVvfTqFwfNXjVFx1zblBiSE8LenBBTp9JHxj3nO9kn/d0CSNieo+xMQPFkQMk38QIgSj2xburmwGCOqLDs05Htc+usUv2VDlzO24dsdZrGY1H2ZseqGjwGjvCWWr9UNh8yV1xK+5Wp7fHXmPnOL3mqqp5C5mmmtZcbuPU1EIdqTfw5FsiEGcEYiOObCPmO2dAzeUVB8H6p7fEuVJZNiIQBoEozks1xRGgD2xOo8c84FE4NmK76w9HK5wYH/2cozIcnHOODuKSeaSKvjDonCO1fqjS2UgrP5+W55RoMWU7YcFnGolk7Cl3FvS5JhRHGny+xgmBSPYl7HlCbx5gXAwu6N3p1Lb77vlID3BB/u6LTOtz1Zy1M9U9SwjNfs6RsnHeASv3DCZt2+LET5aFCKyGQGzEEd48xpTYMSvdgX5xQrXYkCFr74hVtshwNUT4GxFICAKRnJeIERotpiquIdLOitgJydgqduWnUbn9vmzHn08hP1uUp82PHuiS0Zt0+wiK5llmUfMl6vZhHgfFeSlWGt2HxK5zRRRnL2H8UA8yaQvWpj5M+YSTjnaJezIf9GP4mDhFfhj9H2RkvuQJ92KaYIVNFzyU0mJLRbptcdSFfvnM8tPp8wueu/mBCDQFApHsi7MLXRrdR0S7v4TT+zvkmWamDbGn07Vi5KaO4r7G3FH7EGaxe53402013X4QF64UIXar65MHO3sPcdbbgqc/HMbUlSIujfWjQx5CbW7gpHfHWz1fEOuO5I6dregT/seVKQzvFLtbGjvkicypASDrvT6czhWh12E69sMuAqqat5BpijVZabnL36i7W52wh/4p0CqPfCECcUYgPuJI1NKbxyiKHerkHv0W0q19GM7dc3fEinNNsmxEICICkZyXqCJEXW86Nv7s2afRW0jvz3t3QvrPA+TH+tHdam+dLQRJ685+nL7yoLwtR82XzsSbx5j7Zhh97UrcCNHT3ofhb+Yq72z5pIjxQ33ocPIlbEw3+seKzj1ipynhYKy1AYy5MYMtjuyd74LWKJWfxaILwVci0LgIRLIvohhvVnBPnLEjzyZS/fcVY5Ti4QU7Qnuk6O6KKe5bsQ9YtnouOO1w5ecpDOqBi3QGXQdOo6i35Tcg81y3qRV92Xz5Bg9r5Us/z+N/2IMo4zfNhZXqwidFjH7cag+qyLyNV4iUG2XYaN5Cpvl4dhR92r7JNC/hXkARdJH5SgTiikC8xFFca4nlIgI1QCCy81KDPPCRRIAIxBMB2pd41itLRQSSgADFURJqmWUkAgEI0HkJAIVfEQEiUBUEaF+qAiMfQgSIQB0QoDiqA+hMkgg0AgJ0XhqhFpgHIhBPBGhf4lmvLBURSAICFEdJqGWWkQgEIEDnJQAUfkUEiEBVEKB9qQqMfAgRIAJ1QIDiqA6gM0ki0AgI0HlphFpgHohAPBGgfYlnvbJURCAJCFAcJaGWWUYiEIAAnZcAUPgVESACVUGA9qUqMPIhRIAI1AEBiqM6gM4kiUAjIEDnpRFqgXkgAvFEgPYlnvXKUhGBJCBAcZSEWmYZiUAAAnReAkDhV0SACFQFAdqXqsDIhxABIlAHBCiO6gA6kyQCjYAAnZdGqAXmgQjEEwHal3jWK0tFBJKAAMVREmqZZSQCAQjQeQkAhV8RASJQFQRoX6oCIx9CBIhAHRCgOKoD6EySCDQCAnReGqEWmAciEE8EaF/iWa8sFRFIAgIUR0moZZaRCAQgQOclABR+RQSIQFUQoH2pCox8CBEgAnVAgOKoDqAzSSLQCAjQeWmEWmAeiEA8EaB9iWe9slREIAkIUBwloZZZRiIQgACdlwBQ+BURIAJVQYD2pSow8iFEgAjUAQGKozqAziSJQCMgQOelEWqBeSAC8USA9iWe9cpSEYEkIEBxlIRaZhmJQAACdF4CQOFXRIAIVAUB2peqwMiHEAEiUAcEKI7qADqTJAKNgACdl0aoBeaBCMQTAdqXeNYrS0UEkoAAxVESapllJAIBCNB5CQCFXxEBIlAVBGhfqgIjH0IEiEAdEGh4cSQyyH9iQA6QA+QAOUAOkAPkADlADpADb4MDz5dXUOv/P6wnAVH4UqnEf2JADtSAA2xftC20r+RArThA+0Ju1YpbfC65VWsOCPu1Ht0S9R6Koxo4t7UmB58fbwNE5yXe9cv2y/qtJwdoX8i/evKPaZN/G+EAxRFFC6MyCeUAnRd2HhvpPHgv+bMaB2hfyI/V+MHfyI9G5gDFUUId40YmJfP2dowmnZe3gzP5TJyTyAHaF/I+ibxnmePBe4ojiiNGjhLKATov8TDi7IxZj43IAdoX8rIReck8kZdhOEBxlFDHOAw5eE28jQidl3jXL9sv67eeHKB9If/qyT+mTf5thAMURxRHjBwllAN0Xth5bKTz4L3kz2ocoH0hP1bjB38jPxqZAxRHCXWMG5mUzNvbMZp0Xt4OzuQzcU4iB2hfyPsk8p5ljgfvKY4ojhg5SigH6LzEw4izM2Y9NiIHaF/Iy0bkJfNEXobhAMVRQh3jMOTgNfE2InRe4l2/bL+s33pygPaF/Ksn/5g2+bcRDlAcURwxcpRQDtB5Yeexkc6D95I/q3GA9oX8WI0f/I38aGQOUBwl1DFuZFIyb2/HaNJ5eTs4k8/EOYkcoH0h75PIe5Y5HrynOKI4YuQooRyg8xIPI87OmPXYiBygfSEvG5GXzBN5GYYDFEcJdYzDkIPXxNuI0HmJd/2y/bJ+68kB2hfyr578Y9rk30Y4QHFEccTIUUI5QOeFncdGOg/eS/6sxgHaF/JjNX7wN/KjkTlAcZRQx7iRScm8vR2jSefl7eBMPhPnJHKA9oW8TyLvWeZ48D7G4ugRcntTsHZNYoECiNEhcqCMA+t1XpZuXcTx/h1o2WTBsixYm1qwo/8UCv+ubBQXZicx1NuOTMq+J7WlHb0DZwLuWcDkLvXcP57B3Ur1tlJEVj1r98SCXbbZrJ0fy8LA5Zdl5dWd1sLEbnVdFkX9fHVvdtYuQ/EzlQdRvlX+nbT1c/haEXeNP18rt5M4YRPdvizh9sQAOrekZJtLtfRiKHd3HXx6hMmPKrTbz4qe5y3dmsTAtgxSyo71Hsnh7oq/fkLma+URCiO9yi6mkNm2D2eKS570ZP0uFnC8t8VOM5VBZ/8ZFJ/60yyhqnkLlaZrU/02j3auvH7i1FZZlvL6ja04Eg6QNHgUR+XGmQ4cMSmVENl5WVlC4Wi7bFep7gGcmS6gcLWAi2cHsEMKpRZkZ33OwMoCcgdabGfHd89u6QSl0DthOkCGOLLacWa+3GhJQz6btdu3ZcHpuA1xZA3k8TKQ5+bzK4ujuzNZZI+6/0MfZWBZGew+7H4nfj8X5PwEpluhHLyWbTGmHIhqX+ZOCDuRwo4jk8hdvYhTe4WtSWH3/6nBj9A4FZG1LGQ+GvK0YdmeZwxbc/M4WiwLqe4hTOYKuPjFPrSnLKQ+8g6ohsuXGoxNtWPfFxdRyE1iqFuIvBZki8ZAzaMc9ok02vbh1HQBuYkh23ZuzaL4wrAR1cxb2DT/PYndloXOfq+No50z6iU0B3lPswuueIqjX89ht9WClq0WI0dszHS+KnAgqvOycF5EXFLYfd5wMPSzl27jlIj4pPYh90h3DC9RPCocnhYM5AIcnJVHyB+yHaKBy1pUKfGyYzd2pyy0jwWkVSqh+FkKqW2daA8QR7t3iXwOIG86Gzqf0gHoROc2MbJcWRz5DbsdbdqNyVWiY/57+FnzgK9J5EIk+/LoInqFY+5p70soHM7ASlVoy7pN+19/PYcdloWha6vx7hEufmzB2nbGEylaujaEjJXCwBUlaMLm6/px+z7HjpVQWlnAOWETt51zIuBzI6o8S0bepL9ioXNc27rq5i1cmiWUrg3Bsnbg3K9G3vzY8jP9iYRwIH7iaKmI7FYLu88voCCmxjByxMackMYc1QGL5Ly8yGNATGP7+CIeVcLz+nG0t+xA9poSOvfOodOy0HJirjIHV+ZwXAxibD2OOTmdRYmjXecw+VkKVtDUOpmXFLITYhCkPHKUnbBHQIOm1t0d75Q2YVJOm6M4isoZXk/HMSwHotiXpZl9sKyAwYebtuiQ0121rdgSHGVpOVq0o8XSyQ94lmm3nuawz7Qdzm9zOL7FQkpNvwuVr1IJcyeE6Mmi6JuS573f+2wXxyXk9hq+SlXzFjLNUgkL53d4B4wcTMh5t66IRVKwiJk4WkLxsxY7LL4iRpcNg8OGXtlBJTaJxCaK8/Ly8oCcGhckOCoZy7tj7bBWmxqneGdHZTI4flN0PFocTWJBjsaWT617eWUAKeGI/GqLIP+0uuysGnktm1p3F+e22WLKXlNEcVSp7vg9naCNciCKfSkeFVPQjPao+yQxEGJZ2HHejjy/LGblVDhnwEULJmdwRTn5qSwuXjsOPXU3s20Ak7d0dLqEUtGelqvXGLplfYn8gAVrxzm5VjlcvtQap6CB2PkzMroto1iLPnuly1gqwbaVQygIcVXNvIVNs1RC4bAF66MzyIt1X3KadAotvccD1oWybbh8IRZxxSJW4ujRzD6kjGk9FEdsuHFtuNUoVxTnxR5VjDblQna2QQ6P4RTIcqi1Qrv/75FXHAnHZ4t/at1L5A+l7JFdNUe+XByV8Gi6t3xqnYxk2SPKFEe0DdVoQ3xGZR5FsS+yPSpB4sXUXj9kORsp6Km6nXI9or0eyH5v36fEjbGWqDB9Cvva1PofvSZS2pxge2bahnD5UgM6hwvlg2ymjVLvg6b7eabtVjNvYdMs3cWZP4qpxim07z2Fi1eN9VCp3ZjkVLvyuvX3Y/wcK4ziI47EKHLKuyBcGrag0RySOFYk9namlTtrXufFJrLzEjTtpWJbUg5DGHFkOhBm5EhMVxFz9M2pdXJKXQbHr5dQ8txXQkmJLDkarNYKmJEuOaVOTQs0HSDJC/PegDJ5nJeA38ktL7eIB/EIb1+UoAnsq/3iqITSC3vqfKqtXUaRxBR6l28LmOzNOLNHnO9XbuOUWGe4xZ6+K6LPgdP45HpGvR4xbL7u4sz7FlwBZ9S9aaPmz8hpxuXRqhJM+1LVvIVMs/SygOMtKbR8VsSSad+e5taeTm1ez/cGFw0eEJemwyUe4mjlLs5ss8oaNsURG6fTOdI4lRmn8M6L7ryDR1qDMdYjuAFTZfx1oaaRlEWOxHW+qXVyep9ycFYVRyX/1Dp7ZLR3WkSn1JRbU7hRHJXxI7heaVOISzgORLEv4SI0brovZ7PIiO23d5zzbKiwWt3YAkRN061mdEYP6DR15MjF1o+h2Pym4gY3flvOz7SjMeFAPMSRcmz8e/N7Pjth+cpGwG8U+JlYxZkDUZwXEZURW+ObkZgybERUR5xfdPa2XBi94TVHwsh6ptbZgiszojZ4MEdlxbU+geOZWifn/vfiotpJj5Ejtu0y/sakU2+UckWxL+HW9ricvTvWqc4fM6fUub+XfBsjSEzkRg0WZOSmmut6SvFYcyQxC8DNnlK9xgYXbDsURTHjQDzE0aPb8rwVceaK+X9GbNX5xyE5f7Zw2x4xbpSOg/kwOrKYNapmqdsozktJTmdbfbe6pcsDUkDp6ExJ7VaX+UztIhVUzyrqq6e7eDZkUNfLqXViO1y5OFtNqRO/rSGOSnJqnb0trxRqxk57FEdsf83STps1n1Hsi3dXN4Obcrc637bcaqpY5xcX7aly5nbcyiYEHQFgD9bsxuRiCaU1doSzVBQobL5W361OR9zX2DlOr7mqat5CpqkGlsoHv9QMALEBTpD95ncURTHlQDzEUYXK4bQ6o5OpgFGzdrzM98brNorzIvC2R2srnHO0mMeA3JLb3GZXL55uwZ+n9RkeRr5XO+fIXH8gp9Z14tTJAXvNgObyWuJITa1LHTqF43+0sG/G3a2K4sioB40nX+noVJEDkexL2POE9GCK3p1OHZbqno9k70hpiUNVzbOElgoY2mIO7lT3LCF7+m8K7nltTXbOkRr8kgfgmtEjdQaTE62vIj/Yh9MGNzIHKI7Y2OkQJJQDkZwXgdHKAnIHxKGt4lT5AZyZFpHaHCZH7JPlraBdjQLvKeDi2QFnm93eCVM4GVt563pRU+tEuhnzzKQ1xZHetU4ssN6H3FO3M6I4crFo5A6KeWveeopmX/RASgo7Dk8id/UiTu1tR0ocOj3hbrhgD9C0IFtUh7SWXqL4WQaW5U6vW5q1t/tOtf0Z53IFiN3qesXAjc8+6W3BUzuGMJkr4OIXth3zCoRw+ZIR74/sHfF6v7iIQm4SQ92+HfKEPRM2S5wXt7UXp6aNHeF8Yq6qeQuZpliTJaZOp7qPu7vVybz6hKa2y3yl7xRjDlAcxbhy6Vg0r2PxNuoumvPiYrlw9RT2dbcjIzpO0ZmKdUZHLuK2IT78+V+YncRQr/+eSRT/7T7XvidAHOld6yx9FpK6J4Q4sqfWWbD25jy7MFEc+XHnZz9n+XljnIhsX1aWcFucsbNFiAoLqZZeDOWMgRMdxThc8LTl0pI6oHrXOSyoqMfSrUkMbMtIZ99KZdDZfwoFMZ3O1997rtvUgt4jufINHtbKl37mygIKI71oUWcEZbbtw5miG6120v53Acd7W4y8nUExwHZWNW8h01y4ehy9LTb+lsTjIm6bEThdVr6WccmpX2ITC2xiLY5I1vLOgJgQE82ByM4LjX4sjL6uf77SFtSSA7Qv5Fct+cVnk1+15ADFER0+OnwJ5QCdF3Yutexc+Oxk84v2Jdn1z/bP+m9mDlAcJdQxbmbSMu/VMbp0XqqDI/lIHMmBcg7QvpRjQp4QE3KgOThAcURxxMhRQjlA56U5jDQ7U9ZTM3KA9oW8bUbeMs/kreAAxVFCHWMaABoAOi/kAO0AOVArDtC+kFu14hafS27VmgMURxRHjBwllAN0XtjB1LqD4fOTyzHal+TWPds9677ZOUBxlFDHuNmJy/xv3PjSedk4huQhMSQHgjlA+xKMC/lCXMiBxucAxRHFESNHCeUAnZfGN9DsRFlHzcoB2hdyt1m5y3yTuxRHCXWM2fjZ+Om8kAO0A+RArThA+0Ju1YpbfC65VWsOUBxRHDFylFAO0HlhB1PrDobPTy7HaF+SW/ds96z7ZucAxVFCHeNmJy7zv3HjS+dl4xiSh8SQHAjmAO1LMC7kC3EhBxqfAxRHFEeMHCWUA3ReGt9AsxNlHTUrB2hfyN1m5S7zTe5SHCXUMWbjZ+On80IO0A6QA7XiAO0LuVUrbvG55FatOUBxRHHEyFFCOUDnhR1MrTsYPj+5HKN9SW7ds92z7pudAxRHCXWMm524zP/GjS+dl41jSB4SQ3IgmAO0L8G4kC/EhRxofA5QHFEcMXKUUA7QeWl8A81OlHXUrBygfSF3m5W7zDe5S3GUUMeYjZ+Nn84LOUA7QA7UigO0L+RWrbjF55JbteYAxRHFESNHCeUAnRd2MLXuYPj85HKM9iW5dc92z7pvdg40vDgSGeQ/MSAHyAFygBwgB8gBcoAcIAfIgbfBgefLK6j1/x9qnQCfX/tKJMbEmBwgB8gBcoAcIAfIAXKAHNg4ByiO3oICJVE3TlRiSAzJAXKAHCAHyAFygBwgB2rNAYojiqOahydrTWI+n4aSHCAHyAFygBwgB8gBcqAaHKA4ojiiOCIHyAFygBwgB8gBcoAcIAfIgeUVUByxIbAhkAPkADlADpAD5AA5QA6QA+QAxRHDj9UIP/IZ5BE5QA6QA+QAOUAOkAPkQBw4wMgRRwk4SkAOkAPkADlADpAD5AA5QA6QA4wcUeHHQeGzDOQxOUAOkAPkADlADpAD5EA1OMDIEUcJOEpADpAD5AA5QA6QA+QAOUAOkAOMHFFhV0Nh8xnkETlADpAD5AA5QA6QA+RAHDjAyBFHCThKQA6QA+QAOUAOkAPkADlADpADjBxR4cdB4bMM5DE5QA6QA+QAOUAOkAPkQDU4wMgRRwk4SkAOkAMr4nsjAAABNElEQVTkADlADpAD5AA5QA6QA4wcUWFXQ2HzGeQROUAOkAPkADlADpAD5EAcOMDIEUcJOEpADpAD5AA5QA6QA+QAOUAOkAOMHFHhx0HhswzkMTlADpAD5AA5QA6QA+RANTjAyBFHCThKQA6QA+QAOUAOkAPkADlADpADjBxRYVdDYfMZ5BE5QA6QA+QAOUAOkAPkQBw4wMgRRwk4SkAOkAPkADlADpAD5AA5QA6QA4wcUeHHQeGzDOQxOUAOkAPkADlADpAD5EA1OMDIEUcJOEpADpAD5AA5QA6QA+QAOUAOkAOMHFFhV0Nh8xnkETlADpAD5AA5QA6QA+RAHDjAyBFHCThKQA6QA+QAOUAOkAPkADlADpADjBxR4cdB4bMM5DE5QA6QA+QAOUAOkAPkQDU48P8BhUBRhFEZi+YAAAAASUVORK5CYII=;" vertex="1" parent="SAMm_WZ2sFC5QimjHP4S-94">
          <mxGeometry x="685" y="732" width="571.36" height="190" as="geometry" />
        </mxCell>
        <mxCell id="SAMm_WZ2sFC5QimjHP4S-106" value="diff" style="swimlane;fillColor=none;gradientColor=none;" vertex="1" parent="SAMm_WZ2sFC5QimjHP4S-94">
          <mxGeometry x="40" y="970" width="1070" height="550" as="geometry" />
        </mxCell>
        <mxCell id="SAMm_WZ2sFC5QimjHP4S-110" value="" style="html=1;points=[];perimeter=orthogonalPerimeter;fillColor=none;gradientColor=none;" vertex="1" parent="SAMm_WZ2sFC5QimjHP4S-106">
          <mxGeometry x="520" y="30" width="10" height="510" as="geometry" />
        </mxCell>
        <mxCell id="SAMm_WZ2sFC5QimjHP4S-114" value="&lt;b&gt;&lt;font style=&quot;font-size: 19px&quot;&gt;learner&lt;/font&gt;&lt;/b&gt;" style="text;html=1;align=center;verticalAlign=middle;resizable=0;points=[];autosize=1;" vertex="1" parent="SAMm_WZ2sFC5QimjHP4S-106">
          <mxGeometry x="970" y="40" width="80" height="20" as="geometry" />
        </mxCell>
        <mxCell id="SAMm_WZ2sFC5QimjHP4S-119" value="1" style="endArrow=open;html=1;endSize=12;startArrow=diamondThin;startSize=14;startFill=0;edgeStyle=orthogonalEdgeStyle;align=left;verticalAlign=bottom;" edge="1" parent="SAMm_WZ2sFC5QimjHP4S-106">
          <mxGeometry x="-1" y="3" relative="1" as="geometry">
            <mxPoint x="280" y="110" as="sourcePoint" />
            <mxPoint x="840" y="110" as="targetPoint" />
          </mxGeometry>
        </mxCell>
        <mxCell id="SAMm_WZ2sFC5QimjHP4S-121" value="1" style="endArrow=open;html=1;endSize=12;startArrow=diamondThin;startSize=14;startFill=0;edgeStyle=orthogonalEdgeStyle;align=left;verticalAlign=bottom;" edge="1" parent="SAMm_WZ2sFC5QimjHP4S-106">
          <mxGeometry x="-1" y="3" relative="1" as="geometry">
            <mxPoint x="280" y="190" as="sourcePoint" />
            <mxPoint x="840" y="190" as="targetPoint" />
          </mxGeometry>
        </mxCell>
        <mxCell id="SAMm_WZ2sFC5QimjHP4S-122" value="&lt;font style=&quot;font-size: 18px&quot;&gt;发送&lt;span style=&quot;color: rgb(77 , 77 , 77) ; background-color: rgb(255 , 255 , 255)&quot;&gt;PROPOSAL内容数据包和COMMIT指令数据包&lt;/span&gt;&lt;/font&gt;" style="text;html=1;align=center;verticalAlign=middle;resizable=0;points=[];autosize=1;" vertex="1" parent="SAMm_WZ2sFC5QimjHP4S-106">
          <mxGeometry x="310" y="160" width="420" height="20" as="geometry" />
        </mxCell>
        <mxCell id="SAMm_WZ2sFC5QimjHP4S-120" value="&lt;font style=&quot;font-size: 18px&quot;&gt;发送diff指令，通知learner进入差异化准备&lt;/font&gt;" style="text;html=1;align=center;verticalAlign=middle;resizable=0;points=[];autosize=1;" vertex="1" parent="SAMm_WZ2sFC5QimjHP4S-106">
          <mxGeometry x="320" y="80" width="350" height="20" as="geometry" />
        </mxCell>
        <mxCell id="SAMm_WZ2sFC5QimjHP4S-113" value="&lt;b&gt;&lt;font style=&quot;font-size: 19px&quot;&gt;leader&lt;/font&gt;&lt;/b&gt;" style="text;html=1;align=center;verticalAlign=middle;resizable=0;points=[];autosize=1;" vertex="1" parent="SAMm_WZ2sFC5QimjHP4S-106">
          <mxGeometry x="15" y="50" width="70" height="20" as="geometry" />
        </mxCell>
        <mxCell id="SAMm_WZ2sFC5QimjHP4S-38" value="&lt;font style=&quot;font-size: 16px&quot;&gt;zab有恢复模式和广播模式&lt;/font&gt;" style="text;html=1;align=center;verticalAlign=middle;resizable=0;points=[];autosize=1;" vertex="1" parent="YiJMnF56RPMD7wd5EbZs-1">
          <mxGeometry x="80" y="1110" width="200" height="20" as="geometry" />
        </mxCell>
      </root>
    </mxGraphModel>
  </diagram>
</mxfile>
